%TF.GenerationSoftware,KiCad,Pcbnew,10.0.1*%
%TF.CreationDate,2026-05-27T15:10:57+02:00*%
%TF.ProjectId,Open_PSU_Meter_ESP32,4f70656e-5f50-4535-955f-4d657465725f,rev?*%
%TF.SameCoordinates,Original*%
%TF.FileFunction,Soldermask,Top*%
%TF.FilePolarity,Negative*%
%FSLAX46Y46*%
G04 Gerber Fmt 4.6, Leading zero omitted, Abs format (unit mm)*
G04 Created by KiCad (PCBNEW 10.0.1) date 2026-05-27 15:10:58*
%MOMM*%
%LPD*%
G01*
G04 APERTURE LIST*
G04 APERTURE END LIST*
G36*
X4465667Y6700721D02*
G01*
X4769603Y6631350D01*
X5063860Y6528385D01*
X5344739Y6393121D01*
X5608706Y6227259D01*
X5852443Y6032885D01*
X6072885Y5812443D01*
X6267259Y5568706D01*
X6433121Y5304739D01*
X6568385Y5023860D01*
X6671350Y4729603D01*
X6740721Y4425667D01*
X6775627Y4115876D01*
X6775627Y3804124D01*
X6740721Y3494333D01*
X6671350Y3190397D01*
X6568385Y2896140D01*
X6433121Y2615261D01*
X6267259Y2351294D01*
X6072885Y2107557D01*
X5852443Y1887115D01*
X5608706Y1692741D01*
X5344739Y1526879D01*
X5063860Y1391615D01*
X4769603Y1288650D01*
X4465667Y1219279D01*
X4155876Y1184373D01*
X3844124Y1184373D01*
X3534333Y1219279D01*
X3230397Y1288650D01*
X2936140Y1391615D01*
X2655261Y1526879D01*
X2391294Y1692741D01*
X2147557Y1887115D01*
X1927115Y2107557D01*
X1732741Y2351294D01*
X1566879Y2615261D01*
X1431615Y2896140D01*
X1328650Y3190397D01*
X1259279Y3494333D01*
X1224373Y3804124D01*
X1224373Y4115876D01*
X1259279Y4425667D01*
X1328650Y4729603D01*
X1431615Y5023860D01*
X1566879Y5304739D01*
X1732741Y5568706D01*
X1927115Y5812443D01*
X2147557Y6032885D01*
X2391294Y6227259D01*
X2655261Y6393121D01*
X2936140Y6528385D01*
X3230397Y6631350D01*
X3534333Y6700721D01*
X3844124Y6735627D01*
X4155876Y6735627D01*
X4465667Y6700721D01*
G37*
G36*
X76465667Y6700721D02*
G01*
X76769603Y6631350D01*
X77063860Y6528385D01*
X77344739Y6393121D01*
X77608706Y6227259D01*
X77852443Y6032885D01*
X78072885Y5812443D01*
X78267259Y5568706D01*
X78433121Y5304739D01*
X78568385Y5023860D01*
X78671350Y4729603D01*
X78740721Y4425667D01*
X78775627Y4115876D01*
X78775627Y3804124D01*
X78740721Y3494333D01*
X78671350Y3190397D01*
X78568385Y2896140D01*
X78433121Y2615261D01*
X78267259Y2351294D01*
X78072885Y2107557D01*
X77852443Y1887115D01*
X77608706Y1692741D01*
X77344739Y1526879D01*
X77063860Y1391615D01*
X76769603Y1288650D01*
X76465667Y1219279D01*
X76155876Y1184373D01*
X75844124Y1184373D01*
X75534333Y1219279D01*
X75230397Y1288650D01*
X74936140Y1391615D01*
X74655261Y1526879D01*
X74391294Y1692741D01*
X74147557Y1887115D01*
X73927115Y2107557D01*
X73732741Y2351294D01*
X73566879Y2615261D01*
X73431615Y2896140D01*
X73328650Y3190397D01*
X73259279Y3494333D01*
X73224373Y3804124D01*
X73224373Y4115876D01*
X73259279Y4425667D01*
X73328650Y4729603D01*
X73431615Y5023860D01*
X73566879Y5304739D01*
X73732741Y5568706D01*
X73927115Y5812443D01*
X74147557Y6032885D01*
X74391294Y6227259D01*
X74655261Y6393121D01*
X74936140Y6528385D01*
X75230397Y6631350D01*
X75534333Y6700721D01*
X75844124Y6735627D01*
X76155876Y6735627D01*
X76465667Y6700721D01*
G37*
G36*
X26640043Y3768968D02*
G01*
X26645359Y3766490D01*
X26647954Y3766111D01*
X26684839Y3748079D01*
X26741945Y3721450D01*
X26821450Y3641945D01*
X26848089Y3584818D01*
X26866110Y3547955D01*
X26866487Y3545362D01*
X26868968Y3540043D01*
X26880000Y3456250D01*
X26880000Y2543750D01*
X26868968Y2459957D01*
X26866487Y2454638D01*
X26866110Y2452046D01*
X26848099Y2415205D01*
X26821450Y2358055D01*
X26741945Y2278550D01*
X26684795Y2251901D01*
X26647954Y2233890D01*
X26645362Y2233513D01*
X26640043Y2231032D01*
X26556250Y2220000D01*
X26068750Y2220000D01*
X25984957Y2231032D01*
X25979638Y2233513D01*
X25977045Y2233890D01*
X25940182Y2251911D01*
X25883055Y2278550D01*
X25803550Y2358055D01*
X25776921Y2415161D01*
X25758889Y2452046D01*
X25758510Y2454641D01*
X25756032Y2459957D01*
X25745000Y2543750D01*
X25745000Y3456250D01*
X25756032Y3540043D01*
X25758510Y3545359D01*
X25758889Y3547955D01*
X25776931Y3584862D01*
X25803550Y3641945D01*
X25883055Y3721450D01*
X25940138Y3748069D01*
X25977045Y3766111D01*
X25979641Y3766490D01*
X25984957Y3768968D01*
X26068750Y3780000D01*
X26556250Y3780000D01*
X26640043Y3768968D01*
G37*
G36*
X28515043Y3768968D02*
G01*
X28520359Y3766490D01*
X28522954Y3766111D01*
X28559839Y3748079D01*
X28616945Y3721450D01*
X28696450Y3641945D01*
X28723089Y3584818D01*
X28741110Y3547955D01*
X28741487Y3545362D01*
X28743968Y3540043D01*
X28755000Y3456250D01*
X28755000Y2543750D01*
X28743968Y2459957D01*
X28741487Y2454638D01*
X28741110Y2452046D01*
X28723099Y2415205D01*
X28696450Y2358055D01*
X28616945Y2278550D01*
X28559795Y2251901D01*
X28522954Y2233890D01*
X28520362Y2233513D01*
X28515043Y2231032D01*
X28431250Y2220000D01*
X27943750Y2220000D01*
X27859957Y2231032D01*
X27854638Y2233513D01*
X27852045Y2233890D01*
X27815182Y2251911D01*
X27758055Y2278550D01*
X27678550Y2358055D01*
X27651921Y2415161D01*
X27633889Y2452046D01*
X27633510Y2454641D01*
X27631032Y2459957D01*
X27620000Y2543750D01*
X27620000Y3456250D01*
X27631032Y3540043D01*
X27633510Y3545359D01*
X27633889Y3547955D01*
X27651931Y3584862D01*
X27678550Y3641945D01*
X27758055Y3721450D01*
X27815138Y3748069D01*
X27852045Y3766111D01*
X27854641Y3766490D01*
X27859957Y3768968D01*
X27943750Y3780000D01*
X28431250Y3780000D01*
X28515043Y3768968D01*
G37*
G36*
X12395043Y3788968D02*
G01*
X12400359Y3786490D01*
X12402954Y3786111D01*
X12439839Y3768079D01*
X12496945Y3741450D01*
X12576450Y3661945D01*
X12603089Y3604818D01*
X12621110Y3567955D01*
X12621487Y3565362D01*
X12623968Y3560043D01*
X12635000Y3476250D01*
X12635000Y2563750D01*
X12623968Y2479957D01*
X12621487Y2474638D01*
X12621110Y2472046D01*
X12603099Y2435205D01*
X12576450Y2378055D01*
X12496945Y2298550D01*
X12439795Y2271901D01*
X12402954Y2253890D01*
X12400362Y2253513D01*
X12395043Y2251032D01*
X12311250Y2240000D01*
X11823750Y2240000D01*
X11739957Y2251032D01*
X11734638Y2253513D01*
X11732045Y2253890D01*
X11695182Y2271911D01*
X11638055Y2298550D01*
X11558550Y2378055D01*
X11531921Y2435161D01*
X11513889Y2472046D01*
X11513510Y2474641D01*
X11511032Y2479957D01*
X11500000Y2563750D01*
X11500000Y3476250D01*
X11511032Y3560043D01*
X11513510Y3565359D01*
X11513889Y3567955D01*
X11531931Y3604862D01*
X11558550Y3661945D01*
X11638055Y3741450D01*
X11695138Y3768069D01*
X11732045Y3786111D01*
X11734641Y3786490D01*
X11739957Y3788968D01*
X11823750Y3800000D01*
X12311250Y3800000D01*
X12395043Y3788968D01*
G37*
G36*
X14270043Y3788968D02*
G01*
X14275359Y3786490D01*
X14277954Y3786111D01*
X14314839Y3768079D01*
X14371945Y3741450D01*
X14451450Y3661945D01*
X14478089Y3604818D01*
X14496110Y3567955D01*
X14496487Y3565362D01*
X14498968Y3560043D01*
X14510000Y3476250D01*
X14510000Y2563750D01*
X14498968Y2479957D01*
X14496487Y2474638D01*
X14496110Y2472046D01*
X14478099Y2435205D01*
X14451450Y2378055D01*
X14371945Y2298550D01*
X14314795Y2271901D01*
X14277954Y2253890D01*
X14275362Y2253513D01*
X14270043Y2251032D01*
X14186250Y2240000D01*
X13698750Y2240000D01*
X13614957Y2251032D01*
X13609638Y2253513D01*
X13607045Y2253890D01*
X13570182Y2271911D01*
X13513055Y2298550D01*
X13433550Y2378055D01*
X13406921Y2435161D01*
X13388889Y2472046D01*
X13388510Y2474641D01*
X13386032Y2479957D01*
X13375000Y2563750D01*
X13375000Y3476250D01*
X13386032Y3560043D01*
X13388510Y3565359D01*
X13388889Y3567955D01*
X13406931Y3604862D01*
X13433550Y3661945D01*
X13513055Y3741450D01*
X13570138Y3768069D01*
X13607045Y3786111D01*
X13609641Y3786490D01*
X13614957Y3788968D01*
X13698750Y3800000D01*
X14186250Y3800000D01*
X14270043Y3788968D01*
G37*
G36*
X8790285Y4916940D02*
G01*
X8971397Y4841921D01*
X9134393Y4733010D01*
X9273010Y4594393D01*
X9381921Y4431397D01*
X9456940Y4250285D01*
X9495185Y4058017D01*
X9495185Y3861983D01*
X9456940Y3669715D01*
X9381921Y3488603D01*
X9273010Y3325607D01*
X9134393Y3186990D01*
X8971397Y3078079D01*
X8790285Y3003060D01*
X8598017Y2964815D01*
X8401983Y2964815D01*
X8209715Y3003060D01*
X8028603Y3078079D01*
X7865607Y3186990D01*
X7726990Y3325607D01*
X7618079Y3488603D01*
X7543060Y3669715D01*
X7504815Y3861983D01*
X7504815Y4058017D01*
X7543060Y4250285D01*
X7618079Y4431397D01*
X7726990Y4594393D01*
X7865607Y4733010D01*
X8028603Y4841921D01*
X8209715Y4916940D01*
X8401983Y4955185D01*
X8598017Y4955185D01*
X8790285Y4916940D01*
G37*
G36*
X71790285Y4916940D02*
G01*
X71971397Y4841921D01*
X72134393Y4733010D01*
X72273010Y4594393D01*
X72381921Y4431397D01*
X72456940Y4250285D01*
X72495185Y4058017D01*
X72495185Y3861983D01*
X72456940Y3669715D01*
X72381921Y3488603D01*
X72273010Y3325607D01*
X72134393Y3186990D01*
X71971397Y3078079D01*
X71790285Y3003060D01*
X71598017Y2964815D01*
X71401983Y2964815D01*
X71209715Y3003060D01*
X71028603Y3078079D01*
X70865607Y3186990D01*
X70726990Y3325607D01*
X70618079Y3488603D01*
X70543060Y3669715D01*
X70504815Y3861983D01*
X70504815Y4058017D01*
X70543060Y4250285D01*
X70618079Y4431397D01*
X70726990Y4594393D01*
X70865607Y4733010D01*
X71028603Y4841921D01*
X71209715Y4916940D01*
X71401983Y4955185D01*
X71598017Y4955185D01*
X71790285Y4916940D01*
G37*
G36*
X63165391Y15259511D02*
G01*
X63191345Y15242170D01*
X63208228Y15216901D01*
X63228521Y15206054D01*
X72151000Y15206054D01*
X72151003Y15206054D01*
X72209190Y15187148D01*
X72209189Y15187148D01*
X72209191Y15187147D01*
X72245155Y15137647D01*
X72250000Y15107054D01*
X72250000Y6590939D01*
X72231093Y6532748D01*
X72181593Y6496784D01*
X72151000Y6491939D01*
X72150998Y6491939D01*
X55598491Y6491939D01*
X55598488Y6491939D01*
X55598485Y6491940D01*
X55598484Y6491940D01*
X55540297Y6510846D01*
X55504333Y6560346D01*
X55499488Y6590939D01*
X55499488Y12142005D01*
X55487680Y12164096D01*
X55486625Y12164801D01*
X55484161Y12165291D01*
X55458207Y12182632D01*
X55440866Y12208586D01*
X55434776Y12239201D01*
X55434776Y15185601D01*
X55440866Y15216216D01*
X55458207Y15242170D01*
X55484161Y15259511D01*
X55514776Y15265601D01*
X63134776Y15265601D01*
X63165391Y15259511D01*
G37*
G36*
X12339106Y12897563D02*
G01*
X12343730Y12895522D01*
X12346253Y12895189D01*
X12377824Y12880467D01*
X12433238Y12855999D01*
X12505999Y12783238D01*
X12530476Y12727803D01*
X12545188Y12696254D01*
X12545519Y12693734D01*
X12547563Y12689106D01*
X12555000Y12625000D01*
X12555000Y12225000D01*
X12547563Y12160894D01*
X12545519Y12156267D01*
X12545188Y12153747D01*
X12530484Y12122217D01*
X12505999Y12066762D01*
X12433238Y11994001D01*
X12377783Y11969516D01*
X12346253Y11954812D01*
X12343733Y11954481D01*
X12339106Y11952437D01*
X12275000Y11945000D01*
X11725000Y11945000D01*
X11660894Y11952437D01*
X11656266Y11954481D01*
X11653746Y11954812D01*
X11622197Y11969524D01*
X11566762Y11994001D01*
X11494001Y12066762D01*
X11469533Y12122176D01*
X11454811Y12153747D01*
X11454478Y12156270D01*
X11452437Y12160894D01*
X11445000Y12225000D01*
X11445000Y12625000D01*
X11452437Y12689106D01*
X11454478Y12693731D01*
X11454811Y12696254D01*
X11469541Y12727843D01*
X11494001Y12783238D01*
X11566762Y12855999D01*
X11622157Y12880459D01*
X11653746Y12895189D01*
X11656269Y12895522D01*
X11660894Y12897563D01*
X11725000Y12905000D01*
X12275000Y12905000D01*
X12339106Y12897563D01*
G37*
G36*
X26589106Y12897563D02*
G01*
X26593730Y12895522D01*
X26596253Y12895189D01*
X26627824Y12880467D01*
X26683238Y12855999D01*
X26755999Y12783238D01*
X26780476Y12727803D01*
X26795188Y12696254D01*
X26795519Y12693734D01*
X26797563Y12689106D01*
X26805000Y12625000D01*
X26805000Y12225000D01*
X26797563Y12160894D01*
X26795519Y12156267D01*
X26795188Y12153747D01*
X26780484Y12122217D01*
X26755999Y12066762D01*
X26683238Y11994001D01*
X26627783Y11969516D01*
X26596253Y11954812D01*
X26593733Y11954481D01*
X26589106Y11952437D01*
X26525000Y11945000D01*
X25975000Y11945000D01*
X25910894Y11952437D01*
X25906266Y11954481D01*
X25903746Y11954812D01*
X25872197Y11969524D01*
X25816762Y11994001D01*
X25744001Y12066762D01*
X25719533Y12122176D01*
X25704811Y12153747D01*
X25704478Y12156270D01*
X25702437Y12160894D01*
X25695000Y12225000D01*
X25695000Y12625000D01*
X25702437Y12689106D01*
X25704478Y12693731D01*
X25704811Y12696254D01*
X25719541Y12727843D01*
X25744001Y12783238D01*
X25816762Y12855999D01*
X25872157Y12880459D01*
X25903746Y12895189D01*
X25906269Y12895522D01*
X25910894Y12897563D01*
X25975000Y12905000D01*
X26525000Y12905000D01*
X26589106Y12897563D01*
G37*
G36*
X54732591Y15259511D02*
G01*
X54758545Y15242170D01*
X54775886Y15216216D01*
X54781976Y15185601D01*
X54781976Y12239201D01*
X54775886Y12208586D01*
X54758545Y12182632D01*
X54732591Y12165291D01*
X54701976Y12159201D01*
X53025576Y12159201D01*
X52994961Y12165291D01*
X52969007Y12182632D01*
X52951666Y12208586D01*
X52945576Y12239201D01*
X52945576Y15185601D01*
X52951666Y15216216D01*
X52969007Y15242170D01*
X52994961Y15259511D01*
X53025576Y15265601D01*
X54701976Y15265601D01*
X54732591Y15259511D01*
G37*
G36*
X39867277Y13823634D02*
G01*
X39937028Y13777028D01*
X39983634Y13707277D01*
X40000000Y13625000D01*
X40000000Y13355000D01*
X39983634Y13272723D01*
X39937028Y13202972D01*
X39867277Y13156366D01*
X39785000Y13140000D01*
X39415000Y13140000D01*
X39332723Y13156366D01*
X39262972Y13202972D01*
X39216366Y13272723D01*
X39200000Y13355000D01*
X39200000Y13625000D01*
X39216366Y13707277D01*
X39262972Y13777028D01*
X39332723Y13823634D01*
X39415000Y13840000D01*
X39785000Y13840000D01*
X39867277Y13823634D01*
G37*
G36*
X41267277Y13823634D02*
G01*
X41337028Y13777028D01*
X41383634Y13707277D01*
X41400000Y13625000D01*
X41400000Y13355000D01*
X41383634Y13272723D01*
X41337028Y13202972D01*
X41267277Y13156366D01*
X41185000Y13140000D01*
X40815000Y13140000D01*
X40732723Y13156366D01*
X40662972Y13202972D01*
X40616366Y13272723D01*
X40600000Y13355000D01*
X40600000Y13625000D01*
X40616366Y13707277D01*
X40662972Y13777028D01*
X40732723Y13823634D01*
X40815000Y13840000D01*
X41185000Y13840000D01*
X41267277Y13823634D01*
G37*
G36*
X12339106Y14547563D02*
G01*
X12343730Y14545522D01*
X12346253Y14545189D01*
X12377824Y14530467D01*
X12433238Y14505999D01*
X12505999Y14433238D01*
X12530476Y14377803D01*
X12545188Y14346254D01*
X12545519Y14343734D01*
X12547563Y14339106D01*
X12555000Y14275000D01*
X12555000Y13875000D01*
X12547563Y13810894D01*
X12545519Y13806267D01*
X12545188Y13803747D01*
X12530484Y13772217D01*
X12505999Y13716762D01*
X12433238Y13644001D01*
X12377783Y13619516D01*
X12346253Y13604812D01*
X12343733Y13604481D01*
X12339106Y13602437D01*
X12275000Y13595000D01*
X11725000Y13595000D01*
X11660894Y13602437D01*
X11656266Y13604481D01*
X11653746Y13604812D01*
X11622197Y13619524D01*
X11566762Y13644001D01*
X11494001Y13716762D01*
X11469533Y13772176D01*
X11454811Y13803747D01*
X11454478Y13806270D01*
X11452437Y13810894D01*
X11445000Y13875000D01*
X11445000Y14275000D01*
X11452437Y14339106D01*
X11454478Y14343731D01*
X11454811Y14346254D01*
X11469541Y14377843D01*
X11494001Y14433238D01*
X11566762Y14505999D01*
X11622157Y14530459D01*
X11653746Y14545189D01*
X11656269Y14545522D01*
X11660894Y14547563D01*
X11725000Y14555000D01*
X12275000Y14555000D01*
X12339106Y14547563D01*
G37*
G36*
X26589106Y14547563D02*
G01*
X26593730Y14545522D01*
X26596253Y14545189D01*
X26627824Y14530467D01*
X26683238Y14505999D01*
X26755999Y14433238D01*
X26780476Y14377803D01*
X26795188Y14346254D01*
X26795519Y14343734D01*
X26797563Y14339106D01*
X26805000Y14275000D01*
X26805000Y13875000D01*
X26797563Y13810894D01*
X26795519Y13806267D01*
X26795188Y13803747D01*
X26780484Y13772217D01*
X26755999Y13716762D01*
X26683238Y13644001D01*
X26627783Y13619516D01*
X26596253Y13604812D01*
X26593733Y13604481D01*
X26589106Y13602437D01*
X26525000Y13595000D01*
X25975000Y13595000D01*
X25910894Y13602437D01*
X25906266Y13604481D01*
X25903746Y13604812D01*
X25872197Y13619524D01*
X25816762Y13644001D01*
X25744001Y13716762D01*
X25719533Y13772176D01*
X25704811Y13803747D01*
X25704478Y13806270D01*
X25702437Y13810894D01*
X25695000Y13875000D01*
X25695000Y14275000D01*
X25702437Y14339106D01*
X25704478Y14343731D01*
X25704811Y14346254D01*
X25719541Y14377843D01*
X25744001Y14433238D01*
X25816762Y14505999D01*
X25872157Y14530459D01*
X25903746Y14545189D01*
X25906269Y14545522D01*
X25910894Y14547563D01*
X25975000Y14555000D01*
X26525000Y14555000D01*
X26589106Y14547563D01*
G37*
G36*
X43219830Y14746899D02*
G01*
X43228621Y14743018D01*
X43236352Y14741891D01*
X43284686Y14718262D01*
X43322367Y14701624D01*
X43325855Y14698136D01*
X43326826Y14697661D01*
X43397660Y14626827D01*
X43398134Y14625857D01*
X43401624Y14622367D01*
X43418264Y14584681D01*
X43441890Y14536354D01*
X43443016Y14528624D01*
X43446899Y14519830D01*
X43455000Y14450000D01*
X43455000Y13950000D01*
X43446899Y13880170D01*
X43443015Y13871376D01*
X43441890Y13863648D01*
X43418271Y13815336D01*
X43401624Y13777633D01*
X43398133Y13774143D01*
X43397660Y13773174D01*
X43326826Y13702340D01*
X43325857Y13701867D01*
X43322367Y13698376D01*
X43284669Y13681731D01*
X43236353Y13658110D01*
X43228623Y13656984D01*
X43219830Y13653101D01*
X43150000Y13645000D01*
X42700000Y13645000D01*
X42630170Y13653101D01*
X42621376Y13656984D01*
X42613647Y13658110D01*
X42565324Y13681734D01*
X42527633Y13698376D01*
X42524143Y13701866D01*
X42523173Y13702340D01*
X42452339Y13773174D01*
X42451864Y13774145D01*
X42448376Y13777633D01*
X42431740Y13815310D01*
X42408109Y13863647D01*
X42406982Y13871380D01*
X42403101Y13880170D01*
X42395000Y13950000D01*
X42395000Y14450000D01*
X42403101Y14519830D01*
X42406982Y14528621D01*
X42408109Y14536353D01*
X42431742Y14584697D01*
X42448376Y14622367D01*
X42451863Y14625855D01*
X42452339Y14626827D01*
X42523173Y14697661D01*
X42524145Y14698137D01*
X42527633Y14701624D01*
X42565298Y14718256D01*
X42613646Y14741891D01*
X42621379Y14743018D01*
X42630170Y14746899D01*
X42700000Y14755000D01*
X43150000Y14755000D01*
X43219830Y14746899D01*
G37*
G36*
X44769830Y14746899D02*
G01*
X44778621Y14743018D01*
X44786352Y14741891D01*
X44834686Y14718262D01*
X44872367Y14701624D01*
X44875855Y14698136D01*
X44876826Y14697661D01*
X44947660Y14626827D01*
X44948134Y14625857D01*
X44951624Y14622367D01*
X44968264Y14584681D01*
X44991890Y14536354D01*
X44993016Y14528624D01*
X44996899Y14519830D01*
X45005000Y14450000D01*
X45005000Y13950000D01*
X44996899Y13880170D01*
X44993015Y13871376D01*
X44991890Y13863648D01*
X44968271Y13815336D01*
X44951624Y13777633D01*
X44948133Y13774143D01*
X44947660Y13773174D01*
X44876826Y13702340D01*
X44875857Y13701867D01*
X44872367Y13698376D01*
X44834669Y13681731D01*
X44786353Y13658110D01*
X44778623Y13656984D01*
X44769830Y13653101D01*
X44700000Y13645000D01*
X44250000Y13645000D01*
X44180170Y13653101D01*
X44171376Y13656984D01*
X44163647Y13658110D01*
X44115324Y13681734D01*
X44077633Y13698376D01*
X44074143Y13701866D01*
X44073173Y13702340D01*
X44002339Y13773174D01*
X44001864Y13774145D01*
X43998376Y13777633D01*
X43981740Y13815310D01*
X43958109Y13863647D01*
X43956982Y13871380D01*
X43953101Y13880170D01*
X43945000Y13950000D01*
X43945000Y14450000D01*
X43953101Y14519830D01*
X43956982Y14528621D01*
X43958109Y14536353D01*
X43981742Y14584697D01*
X43998376Y14622367D01*
X44001863Y14625855D01*
X44002339Y14626827D01*
X44073173Y14697661D01*
X44074145Y14698137D01*
X44077633Y14701624D01*
X44115298Y14718256D01*
X44163646Y14741891D01*
X44171379Y14743018D01*
X44180170Y14746899D01*
X44250000Y14755000D01*
X44700000Y14755000D01*
X44769830Y14746899D01*
G37*
G36*
X39867277Y14843634D02*
G01*
X39937028Y14797028D01*
X39983634Y14727277D01*
X40000000Y14645000D01*
X40000000Y14375000D01*
X39983634Y14292723D01*
X39937028Y14222972D01*
X39867277Y14176366D01*
X39785000Y14160000D01*
X39415000Y14160000D01*
X39332723Y14176366D01*
X39262972Y14222972D01*
X39216366Y14292723D01*
X39200000Y14375000D01*
X39200000Y14645000D01*
X39216366Y14727277D01*
X39262972Y14797028D01*
X39332723Y14843634D01*
X39415000Y14860000D01*
X39785000Y14860000D01*
X39867277Y14843634D01*
G37*
G36*
X41267277Y14843634D02*
G01*
X41337028Y14797028D01*
X41383634Y14727277D01*
X41400000Y14645000D01*
X41400000Y14375000D01*
X41383634Y14292723D01*
X41337028Y14222972D01*
X41267277Y14176366D01*
X41185000Y14160000D01*
X40815000Y14160000D01*
X40732723Y14176366D01*
X40662972Y14222972D01*
X40616366Y14292723D01*
X40600000Y14375000D01*
X40600000Y14645000D01*
X40616366Y14727277D01*
X40662972Y14797028D01*
X40732723Y14843634D01*
X40815000Y14860000D01*
X41185000Y14860000D01*
X41267277Y14843634D01*
G37*
G36*
X48982277Y15883634D02*
G01*
X49052028Y15837028D01*
X49098634Y15767277D01*
X49115000Y15685000D01*
X49115000Y15315000D01*
X49098634Y15232723D01*
X49052028Y15162972D01*
X48982277Y15116366D01*
X48900000Y15100000D01*
X48630000Y15100000D01*
X48547723Y15116366D01*
X48477972Y15162972D01*
X48431366Y15232723D01*
X48415000Y15315000D01*
X48415000Y15685000D01*
X48431366Y15767277D01*
X48477972Y15837028D01*
X48547723Y15883634D01*
X48630000Y15900000D01*
X48900000Y15900000D01*
X48982277Y15883634D01*
G37*
G36*
X50002277Y15883634D02*
G01*
X50072028Y15837028D01*
X50118634Y15767277D01*
X50135000Y15685000D01*
X50135000Y15315000D01*
X50118634Y15232723D01*
X50072028Y15162972D01*
X50002277Y15116366D01*
X49920000Y15100000D01*
X49650000Y15100000D01*
X49567723Y15116366D01*
X49497972Y15162972D01*
X49451366Y15232723D01*
X49435000Y15315000D01*
X49435000Y15685000D01*
X49451366Y15767277D01*
X49497972Y15837028D01*
X49567723Y15883634D01*
X49650000Y15900000D01*
X49920000Y15900000D01*
X50002277Y15883634D01*
G37*
G36*
X36767277Y16073634D02*
G01*
X36837028Y16027028D01*
X36883634Y15957277D01*
X36900000Y15875000D01*
X36900000Y15605000D01*
X36883634Y15522723D01*
X36837028Y15452972D01*
X36767277Y15406366D01*
X36685000Y15390000D01*
X36315000Y15390000D01*
X36232723Y15406366D01*
X36162972Y15452972D01*
X36116366Y15522723D01*
X36100000Y15605000D01*
X36100000Y15875000D01*
X36116366Y15957277D01*
X36162972Y16027028D01*
X36232723Y16073634D01*
X36315000Y16090000D01*
X36685000Y16090000D01*
X36767277Y16073634D01*
G37*
G36*
X41159316Y17968201D02*
G01*
X41209602Y17934602D01*
X41243201Y17884316D01*
X41255000Y17825000D01*
X41255000Y17675000D01*
X41243201Y17615684D01*
X41209602Y17565398D01*
X41159316Y17531799D01*
X41156853Y17531310D01*
X41149993Y17526725D01*
X41149993Y17473275D01*
X41156853Y17468691D01*
X41159316Y17468201D01*
X41209602Y17434602D01*
X41243201Y17384316D01*
X41255000Y17325000D01*
X41255000Y17175000D01*
X41243201Y17115684D01*
X41209602Y17065398D01*
X41159316Y17031799D01*
X41156853Y17031310D01*
X41149993Y17026725D01*
X41149993Y16973275D01*
X41156853Y16968691D01*
X41159316Y16968201D01*
X41209602Y16934602D01*
X41243201Y16884316D01*
X41255000Y16825000D01*
X41255000Y16675000D01*
X41243201Y16615684D01*
X41209602Y16565398D01*
X41159316Y16531799D01*
X41156853Y16531310D01*
X41149993Y16526725D01*
X41149993Y16473275D01*
X41156853Y16468691D01*
X41159316Y16468201D01*
X41209602Y16434602D01*
X41243201Y16384316D01*
X41255000Y16325000D01*
X41255000Y16175000D01*
X41243201Y16115684D01*
X41209602Y16065398D01*
X41159316Y16031799D01*
X41156853Y16031310D01*
X41149993Y16026725D01*
X41149993Y15973275D01*
X41156853Y15968691D01*
X41159316Y15968201D01*
X41209602Y15934602D01*
X41243201Y15884316D01*
X41255000Y15825000D01*
X41255000Y15675000D01*
X41243201Y15615684D01*
X41209602Y15565398D01*
X41159316Y15531799D01*
X41100000Y15520000D01*
X39800000Y15520000D01*
X39740684Y15531799D01*
X39690398Y15565398D01*
X39656799Y15615684D01*
X39645000Y15675000D01*
X39645000Y15825000D01*
X39656799Y15884316D01*
X39690398Y15934602D01*
X39740684Y15968201D01*
X39743144Y15968691D01*
X39750006Y15973275D01*
X39750006Y16026725D01*
X39743144Y16031310D01*
X39740684Y16031799D01*
X39690398Y16065398D01*
X39656799Y16115684D01*
X39645000Y16175000D01*
X39645000Y16325000D01*
X39656799Y16384316D01*
X39690398Y16434602D01*
X39740684Y16468201D01*
X39743144Y16468691D01*
X39750006Y16473275D01*
X39750006Y16526725D01*
X39743144Y16531310D01*
X39740684Y16531799D01*
X39690398Y16565398D01*
X39656799Y16615684D01*
X39645000Y16675000D01*
X39645000Y16825000D01*
X39656799Y16884316D01*
X39690398Y16934602D01*
X39740684Y16968201D01*
X39743144Y16968691D01*
X39750006Y16973275D01*
X39750006Y17026725D01*
X39743144Y17031310D01*
X39740684Y17031799D01*
X39690398Y17065398D01*
X39656799Y17115684D01*
X39645000Y17175000D01*
X39645000Y17325000D01*
X39656799Y17384316D01*
X39690398Y17434602D01*
X39740684Y17468201D01*
X39743144Y17468691D01*
X39750006Y17473275D01*
X39750006Y17526725D01*
X39743144Y17531310D01*
X39740684Y17531799D01*
X39690398Y17565398D01*
X39656799Y17615684D01*
X39645000Y17675000D01*
X39645000Y17825000D01*
X39656799Y17884316D01*
X39690398Y17934602D01*
X39740684Y17968201D01*
X39800000Y17980000D01*
X41100000Y17980000D01*
X41159316Y17968201D01*
G37*
G36*
X45459316Y17968201D02*
G01*
X45509602Y17934602D01*
X45543201Y17884316D01*
X45555000Y17825000D01*
X45555000Y17675000D01*
X45543201Y17615684D01*
X45509602Y17565398D01*
X45459316Y17531799D01*
X45456853Y17531310D01*
X45449993Y17526725D01*
X45449993Y17473275D01*
X45456853Y17468691D01*
X45459316Y17468201D01*
X45509602Y17434602D01*
X45543201Y17384316D01*
X45555000Y17325000D01*
X45555000Y17175000D01*
X45543201Y17115684D01*
X45509602Y17065398D01*
X45459316Y17031799D01*
X45456853Y17031310D01*
X45449993Y17026725D01*
X45449993Y16973275D01*
X45456853Y16968691D01*
X45459316Y16968201D01*
X45509602Y16934602D01*
X45543201Y16884316D01*
X45555000Y16825000D01*
X45555000Y16675000D01*
X45543201Y16615684D01*
X45509602Y16565398D01*
X45459316Y16531799D01*
X45456853Y16531310D01*
X45449993Y16526725D01*
X45449993Y16473275D01*
X45456853Y16468691D01*
X45459316Y16468201D01*
X45509602Y16434602D01*
X45543201Y16384316D01*
X45555000Y16325000D01*
X45555000Y16175000D01*
X45543201Y16115684D01*
X45509602Y16065398D01*
X45459316Y16031799D01*
X45456853Y16031310D01*
X45449993Y16026725D01*
X45449993Y15973275D01*
X45456853Y15968691D01*
X45459316Y15968201D01*
X45509602Y15934602D01*
X45543201Y15884316D01*
X45555000Y15825000D01*
X45555000Y15675000D01*
X45543201Y15615684D01*
X45509602Y15565398D01*
X45459316Y15531799D01*
X45400000Y15520000D01*
X44100000Y15520000D01*
X44040684Y15531799D01*
X43990398Y15565398D01*
X43956799Y15615684D01*
X43945000Y15675000D01*
X43945000Y15825000D01*
X43956799Y15884316D01*
X43990398Y15934602D01*
X44040684Y15968201D01*
X44043144Y15968691D01*
X44050006Y15973275D01*
X44050006Y16026725D01*
X44043144Y16031310D01*
X44040684Y16031799D01*
X43990398Y16065398D01*
X43956799Y16115684D01*
X43945000Y16175000D01*
X43945000Y16325000D01*
X43956799Y16384316D01*
X43990398Y16434602D01*
X44040684Y16468201D01*
X44043144Y16468691D01*
X44050006Y16473275D01*
X44050006Y16526725D01*
X44043144Y16531310D01*
X44040684Y16531799D01*
X43990398Y16565398D01*
X43956799Y16615684D01*
X43945000Y16675000D01*
X43945000Y16825000D01*
X43956799Y16884316D01*
X43990398Y16934602D01*
X44040684Y16968201D01*
X44043144Y16968691D01*
X44050006Y16973275D01*
X44050006Y17026725D01*
X44043144Y17031310D01*
X44040684Y17031799D01*
X43990398Y17065398D01*
X43956799Y17115684D01*
X43945000Y17175000D01*
X43945000Y17325000D01*
X43956799Y17384316D01*
X43990398Y17434602D01*
X44040684Y17468201D01*
X44043144Y17468691D01*
X44050006Y17473275D01*
X44050006Y17526725D01*
X44043144Y17531310D01*
X44040684Y17531799D01*
X43990398Y17565398D01*
X43956799Y17615684D01*
X43945000Y17675000D01*
X43945000Y17825000D01*
X43956799Y17884316D01*
X43990398Y17934602D01*
X44040684Y17968201D01*
X44100000Y17980000D01*
X45400000Y17980000D01*
X45459316Y17968201D01*
G37*
G36*
X46844830Y17246899D02*
G01*
X46853621Y17243018D01*
X46861352Y17241891D01*
X46909686Y17218262D01*
X46947367Y17201624D01*
X46950855Y17198136D01*
X46951826Y17197661D01*
X47022660Y17126827D01*
X47023134Y17125857D01*
X47026624Y17122367D01*
X47043264Y17084681D01*
X47066890Y17036354D01*
X47068016Y17028624D01*
X47071899Y17019830D01*
X47080000Y16950000D01*
X47080000Y16500000D01*
X47071899Y16430170D01*
X47068015Y16421376D01*
X47066890Y16413648D01*
X47043271Y16365336D01*
X47026624Y16327633D01*
X47023133Y16324143D01*
X47022660Y16323174D01*
X46951826Y16252340D01*
X46950857Y16251867D01*
X46947367Y16248376D01*
X46909669Y16231731D01*
X46861353Y16208110D01*
X46853623Y16206984D01*
X46844830Y16203101D01*
X46775000Y16195000D01*
X46275000Y16195000D01*
X46205170Y16203101D01*
X46196376Y16206984D01*
X46188647Y16208110D01*
X46140324Y16231734D01*
X46102633Y16248376D01*
X46099143Y16251866D01*
X46098173Y16252340D01*
X46027339Y16323174D01*
X46026864Y16324145D01*
X46023376Y16327633D01*
X46006740Y16365310D01*
X45983109Y16413647D01*
X45981982Y16421380D01*
X45978101Y16430170D01*
X45970000Y16500000D01*
X45970000Y16950000D01*
X45978101Y17019830D01*
X45981982Y17028621D01*
X45983109Y17036353D01*
X46006742Y17084697D01*
X46023376Y17122367D01*
X46026863Y17125855D01*
X46027339Y17126827D01*
X46098173Y17197661D01*
X46099145Y17198137D01*
X46102633Y17201624D01*
X46140298Y17218256D01*
X46188646Y17241891D01*
X46196379Y17243018D01*
X46205170Y17246899D01*
X46275000Y17255000D01*
X46775000Y17255000D01*
X46844830Y17246899D01*
G37*
G36*
X36767277Y17093634D02*
G01*
X36837028Y17047028D01*
X36883634Y16977277D01*
X36900000Y16895000D01*
X36900000Y16625000D01*
X36883634Y16542723D01*
X36837028Y16472972D01*
X36767277Y16426366D01*
X36685000Y16410000D01*
X36315000Y16410000D01*
X36232723Y16426366D01*
X36162972Y16472972D01*
X36116366Y16542723D01*
X36100000Y16625000D01*
X36100000Y16895000D01*
X36116366Y16977277D01*
X36162972Y17047028D01*
X36232723Y17093634D01*
X36315000Y17110000D01*
X36685000Y17110000D01*
X36767277Y17093634D01*
G37*
G36*
X46844830Y18796899D02*
G01*
X46853621Y18793018D01*
X46861352Y18791891D01*
X46909686Y18768262D01*
X46947367Y18751624D01*
X46950855Y18748136D01*
X46951826Y18747661D01*
X47022660Y18676827D01*
X47023134Y18675857D01*
X47026624Y18672367D01*
X47043264Y18634681D01*
X47066890Y18586354D01*
X47068016Y18578624D01*
X47071899Y18569830D01*
X47080000Y18500000D01*
X47080000Y18050000D01*
X47071899Y17980170D01*
X47068015Y17971376D01*
X47066890Y17963648D01*
X47043271Y17915336D01*
X47026624Y17877633D01*
X47023133Y17874143D01*
X47022660Y17873174D01*
X46951826Y17802340D01*
X46950857Y17801867D01*
X46947367Y17798376D01*
X46909669Y17781731D01*
X46861353Y17758110D01*
X46853623Y17756984D01*
X46844830Y17753101D01*
X46775000Y17745000D01*
X46275000Y17745000D01*
X46205170Y17753101D01*
X46196376Y17756984D01*
X46188647Y17758110D01*
X46140324Y17781734D01*
X46102633Y17798376D01*
X46099143Y17801866D01*
X46098173Y17802340D01*
X46027339Y17873174D01*
X46026864Y17874145D01*
X46023376Y17877633D01*
X46006740Y17915310D01*
X45983109Y17963647D01*
X45981982Y17971380D01*
X45978101Y17980170D01*
X45970000Y18050000D01*
X45970000Y18500000D01*
X45978101Y18569830D01*
X45981982Y18578621D01*
X45983109Y18586353D01*
X46006742Y18634697D01*
X46023376Y18672367D01*
X46026863Y18675855D01*
X46027339Y18676827D01*
X46098173Y18747661D01*
X46099145Y18748137D01*
X46102633Y18751624D01*
X46140298Y18768256D01*
X46188646Y18791891D01*
X46196379Y18793018D01*
X46205170Y18796899D01*
X46275000Y18805000D01*
X46775000Y18805000D01*
X46844830Y18796899D01*
G37*
G36*
X6454106Y19117563D02*
G01*
X6458730Y19115522D01*
X6461253Y19115189D01*
X6492824Y19100467D01*
X6548238Y19075999D01*
X6620999Y19003238D01*
X6645476Y18947803D01*
X6660188Y18916254D01*
X6660519Y18913734D01*
X6662563Y18909106D01*
X6670000Y18845000D01*
X6670000Y18295000D01*
X6662563Y18230894D01*
X6660519Y18226267D01*
X6660188Y18223747D01*
X6645484Y18192217D01*
X6620999Y18136762D01*
X6548238Y18064001D01*
X6492783Y18039516D01*
X6461253Y18024812D01*
X6458733Y18024481D01*
X6454106Y18022437D01*
X6390000Y18015000D01*
X5990000Y18015000D01*
X5925894Y18022437D01*
X5921266Y18024481D01*
X5918746Y18024812D01*
X5887197Y18039524D01*
X5831762Y18064001D01*
X5759001Y18136762D01*
X5734533Y18192176D01*
X5719811Y18223747D01*
X5719478Y18226270D01*
X5717437Y18230894D01*
X5710000Y18295000D01*
X5710000Y18845000D01*
X5717437Y18909106D01*
X5719478Y18913731D01*
X5719811Y18916254D01*
X5734541Y18947843D01*
X5759001Y19003238D01*
X5831762Y19075999D01*
X5887157Y19100459D01*
X5918746Y19115189D01*
X5921269Y19115522D01*
X5925894Y19117563D01*
X5990000Y19125000D01*
X6390000Y19125000D01*
X6454106Y19117563D01*
G37*
G36*
X8104106Y19117563D02*
G01*
X8108730Y19115522D01*
X8111253Y19115189D01*
X8142824Y19100467D01*
X8198238Y19075999D01*
X8270999Y19003238D01*
X8295476Y18947803D01*
X8310188Y18916254D01*
X8310519Y18913734D01*
X8312563Y18909106D01*
X8320000Y18845000D01*
X8320000Y18295000D01*
X8312563Y18230894D01*
X8310519Y18226267D01*
X8310188Y18223747D01*
X8295484Y18192217D01*
X8270999Y18136762D01*
X8198238Y18064001D01*
X8142783Y18039516D01*
X8111253Y18024812D01*
X8108733Y18024481D01*
X8104106Y18022437D01*
X8040000Y18015000D01*
X7640000Y18015000D01*
X7575894Y18022437D01*
X7571266Y18024481D01*
X7568746Y18024812D01*
X7537197Y18039524D01*
X7481762Y18064001D01*
X7409001Y18136762D01*
X7384533Y18192176D01*
X7369811Y18223747D01*
X7369478Y18226270D01*
X7367437Y18230894D01*
X7360000Y18295000D01*
X7360000Y18845000D01*
X7367437Y18909106D01*
X7369478Y18913731D01*
X7369811Y18916254D01*
X7384541Y18947843D01*
X7409001Y19003238D01*
X7481762Y19075999D01*
X7537157Y19100459D01*
X7568746Y19115189D01*
X7571269Y19115522D01*
X7575894Y19117563D01*
X7640000Y19125000D01*
X8040000Y19125000D01*
X8104106Y19117563D01*
G37*
G36*
X12185410Y19968756D02*
G01*
X12190800Y19966243D01*
X12193487Y19965851D01*
X12231689Y19947176D01*
X12289280Y19920320D01*
X12370320Y19839280D01*
X12397185Y19781667D01*
X12415850Y19743488D01*
X12416241Y19740803D01*
X12418756Y19735410D01*
X12430000Y19650000D01*
X12430000Y18350000D01*
X12418756Y18264590D01*
X12416240Y18259197D01*
X12415850Y18256513D01*
X12397195Y18218355D01*
X12370320Y18160720D01*
X12289280Y18079680D01*
X12231645Y18052805D01*
X12193487Y18034150D01*
X12190803Y18033760D01*
X12185410Y18031244D01*
X12100000Y18020000D01*
X11450000Y18020000D01*
X11364590Y18031244D01*
X11359197Y18033759D01*
X11356512Y18034150D01*
X11318333Y18052815D01*
X11260720Y18079680D01*
X11179680Y18160720D01*
X11152824Y18218311D01*
X11134149Y18256513D01*
X11133757Y18259200D01*
X11131244Y18264590D01*
X11120000Y18350000D01*
X11120000Y19650000D01*
X11131244Y19735410D01*
X11133757Y19740800D01*
X11134149Y19743488D01*
X11152834Y19781712D01*
X11179680Y19839280D01*
X11260720Y19920320D01*
X11318288Y19947166D01*
X11356512Y19965851D01*
X11359200Y19966243D01*
X11364590Y19968756D01*
X11450000Y19980000D01*
X12100000Y19980000D01*
X12185410Y19968756D01*
G37*
G36*
X15135410Y19968756D02*
G01*
X15140800Y19966243D01*
X15143487Y19965851D01*
X15181689Y19947176D01*
X15239280Y19920320D01*
X15320320Y19839280D01*
X15347185Y19781667D01*
X15365850Y19743488D01*
X15366241Y19740803D01*
X15368756Y19735410D01*
X15380000Y19650000D01*
X15380000Y18350000D01*
X15368756Y18264590D01*
X15366240Y18259197D01*
X15365850Y18256513D01*
X15347195Y18218355D01*
X15320320Y18160720D01*
X15239280Y18079680D01*
X15181645Y18052805D01*
X15143487Y18034150D01*
X15140803Y18033760D01*
X15135410Y18031244D01*
X15050000Y18020000D01*
X14400000Y18020000D01*
X14314590Y18031244D01*
X14309197Y18033759D01*
X14306512Y18034150D01*
X14268333Y18052815D01*
X14210720Y18079680D01*
X14129680Y18160720D01*
X14102824Y18218311D01*
X14084149Y18256513D01*
X14083757Y18259200D01*
X14081244Y18264590D01*
X14070000Y18350000D01*
X14070000Y19650000D01*
X14081244Y19735410D01*
X14083757Y19740800D01*
X14084149Y19743488D01*
X14102834Y19781712D01*
X14129680Y19839280D01*
X14210720Y19920320D01*
X14268288Y19947166D01*
X14306512Y19965851D01*
X14309200Y19966243D01*
X14314590Y19968756D01*
X14400000Y19980000D01*
X15050000Y19980000D01*
X15135410Y19968756D01*
G37*
G36*
X30119830Y19791899D02*
G01*
X30128621Y19788018D01*
X30136352Y19786891D01*
X30184686Y19763262D01*
X30222367Y19746624D01*
X30225855Y19743136D01*
X30226826Y19742661D01*
X30297660Y19671827D01*
X30298134Y19670857D01*
X30301624Y19667367D01*
X30318264Y19629681D01*
X30341890Y19581354D01*
X30343016Y19573624D01*
X30346899Y19564830D01*
X30355000Y19495000D01*
X30355000Y18995000D01*
X30346899Y18925170D01*
X30343015Y18916376D01*
X30341890Y18908648D01*
X30318271Y18860336D01*
X30301624Y18822633D01*
X30298133Y18819143D01*
X30297660Y18818174D01*
X30226826Y18747340D01*
X30225857Y18746867D01*
X30222367Y18743376D01*
X30184669Y18726731D01*
X30136353Y18703110D01*
X30128623Y18701984D01*
X30119830Y18698101D01*
X30050000Y18690000D01*
X29600000Y18690000D01*
X29530170Y18698101D01*
X29521376Y18701984D01*
X29513647Y18703110D01*
X29465324Y18726734D01*
X29427633Y18743376D01*
X29424143Y18746866D01*
X29423173Y18747340D01*
X29352339Y18818174D01*
X29351864Y18819145D01*
X29348376Y18822633D01*
X29331740Y18860310D01*
X29308109Y18908647D01*
X29306982Y18916380D01*
X29303101Y18925170D01*
X29295000Y18995000D01*
X29295000Y19495000D01*
X29303101Y19564830D01*
X29306982Y19573621D01*
X29308109Y19581353D01*
X29331742Y19629697D01*
X29348376Y19667367D01*
X29351863Y19670855D01*
X29352339Y19671827D01*
X29423173Y19742661D01*
X29424145Y19743137D01*
X29427633Y19746624D01*
X29465298Y19763256D01*
X29513646Y19786891D01*
X29521379Y19788018D01*
X29530170Y19791899D01*
X29600000Y19800000D01*
X30050000Y19800000D01*
X30119830Y19791899D01*
G37*
G36*
X31669830Y19791899D02*
G01*
X31678621Y19788018D01*
X31686352Y19786891D01*
X31734686Y19763262D01*
X31772367Y19746624D01*
X31775855Y19743136D01*
X31776826Y19742661D01*
X31847660Y19671827D01*
X31848134Y19670857D01*
X31851624Y19667367D01*
X31868264Y19629681D01*
X31891890Y19581354D01*
X31893016Y19573624D01*
X31896899Y19564830D01*
X31905000Y19495000D01*
X31905000Y18995000D01*
X31896899Y18925170D01*
X31893015Y18916376D01*
X31891890Y18908648D01*
X31868271Y18860336D01*
X31851624Y18822633D01*
X31848133Y18819143D01*
X31847660Y18818174D01*
X31776826Y18747340D01*
X31775857Y18746867D01*
X31772367Y18743376D01*
X31734669Y18726731D01*
X31686353Y18703110D01*
X31678623Y18701984D01*
X31669830Y18698101D01*
X31600000Y18690000D01*
X31150000Y18690000D01*
X31080170Y18698101D01*
X31071376Y18701984D01*
X31063647Y18703110D01*
X31015324Y18726734D01*
X30977633Y18743376D01*
X30974143Y18746866D01*
X30973173Y18747340D01*
X30902339Y18818174D01*
X30901864Y18819145D01*
X30898376Y18822633D01*
X30881740Y18860310D01*
X30858109Y18908647D01*
X30856982Y18916380D01*
X30853101Y18925170D01*
X30845000Y18995000D01*
X30845000Y19495000D01*
X30853101Y19564830D01*
X30856982Y19573621D01*
X30858109Y19581353D01*
X30881742Y19629697D01*
X30898376Y19667367D01*
X30901863Y19670855D01*
X30902339Y19671827D01*
X30973173Y19742661D01*
X30974145Y19743137D01*
X30977633Y19746624D01*
X31015298Y19763256D01*
X31063646Y19786891D01*
X31071379Y19788018D01*
X31080170Y19791899D01*
X31150000Y19800000D01*
X31600000Y19800000D01*
X31669830Y19791899D01*
G37*
G36*
X48982277Y19883634D02*
G01*
X49052028Y19837028D01*
X49098634Y19767277D01*
X49115000Y19685000D01*
X49115000Y19315000D01*
X49098634Y19232723D01*
X49052028Y19162972D01*
X48982277Y19116366D01*
X48900000Y19100000D01*
X48630000Y19100000D01*
X48547723Y19116366D01*
X48477972Y19162972D01*
X48431366Y19232723D01*
X48415000Y19315000D01*
X48415000Y19685000D01*
X48431366Y19767277D01*
X48477972Y19837028D01*
X48547723Y19883634D01*
X48630000Y19900000D01*
X48900000Y19900000D01*
X48982277Y19883634D01*
G37*
G36*
X50002277Y19883634D02*
G01*
X50072028Y19837028D01*
X50118634Y19767277D01*
X50135000Y19685000D01*
X50135000Y19315000D01*
X50118634Y19232723D01*
X50072028Y19162972D01*
X50002277Y19116366D01*
X49920000Y19100000D01*
X49650000Y19100000D01*
X49567723Y19116366D01*
X49497972Y19162972D01*
X49451366Y19232723D01*
X49435000Y19315000D01*
X49435000Y19685000D01*
X49451366Y19767277D01*
X49497972Y19837028D01*
X49567723Y19883634D01*
X49650000Y19900000D01*
X49920000Y19900000D01*
X50002277Y19883634D01*
G37*
G36*
X54732591Y22727111D02*
G01*
X54758545Y22709770D01*
X54775886Y22683816D01*
X54781976Y22653201D01*
X54781976Y19706801D01*
X54775886Y19676186D01*
X54758545Y19650232D01*
X54732591Y19632891D01*
X54701976Y19626801D01*
X53025576Y19626801D01*
X52994961Y19632891D01*
X52969007Y19650232D01*
X52951666Y19676186D01*
X52945576Y19706801D01*
X52945576Y22653201D01*
X52951666Y22683816D01*
X52969007Y22709770D01*
X52994961Y22727111D01*
X53025576Y22733201D01*
X54701976Y22733201D01*
X54732591Y22727111D01*
G37*
G36*
X72208678Y28473033D02*
G01*
X72208677Y28473033D01*
X72208679Y28473032D01*
X72244643Y28423532D01*
X72249488Y28392939D01*
X72249488Y19799000D01*
X72230581Y19740809D01*
X72181081Y19704845D01*
X72150488Y19700000D01*
X72150486Y19700000D01*
X63237643Y19700000D01*
X63215552Y19688192D01*
X63209176Y19678651D01*
X63208686Y19676186D01*
X63191345Y19650232D01*
X63165391Y19632891D01*
X63134776Y19626801D01*
X55514776Y19626801D01*
X55484161Y19632891D01*
X55458207Y19650232D01*
X55440866Y19676186D01*
X55434776Y19706801D01*
X55434776Y22653201D01*
X55440866Y22683816D01*
X55458207Y22709770D01*
X55484161Y22727111D01*
X55486622Y22727601D01*
X55487681Y22728308D01*
X55499488Y22750398D01*
X55499488Y28392943D01*
X55518394Y28451129D01*
X55548541Y28473032D01*
X55567895Y28487094D01*
X55598488Y28491939D01*
X72150488Y28491939D01*
X72150491Y28491939D01*
X72208678Y28473033D01*
G37*
G36*
X3161457Y21303981D02*
G01*
X3282008Y21280002D01*
X3395566Y21232965D01*
X3497765Y21164678D01*
X3584678Y21077765D01*
X3652965Y20975566D01*
X3700002Y20862008D01*
X3723981Y20741457D01*
X3723981Y20618543D01*
X3700002Y20497992D01*
X3652965Y20384434D01*
X3584678Y20282235D01*
X3497765Y20195322D01*
X3395566Y20127035D01*
X3282008Y20079998D01*
X3161457Y20056019D01*
X3100000Y20053000D01*
X3098768Y20053000D01*
X2301232Y20053000D01*
X2300000Y20053000D01*
X2238543Y20056019D01*
X2117992Y20079998D01*
X2004434Y20127035D01*
X1902235Y20195322D01*
X1815322Y20282235D01*
X1747035Y20384434D01*
X1699998Y20497992D01*
X1676019Y20618543D01*
X1676019Y20741457D01*
X1699998Y20862008D01*
X1747035Y20975566D01*
X1815322Y21077765D01*
X1902235Y21164678D01*
X2004434Y21232965D01*
X2117992Y21280002D01*
X2238543Y21303981D01*
X2300000Y21307000D01*
X3100000Y21307000D01*
X3161457Y21303981D01*
G37*
G36*
X7461457Y29943981D02*
G01*
X7582008Y29920002D01*
X7695566Y29872965D01*
X7797765Y29804678D01*
X7884678Y29717765D01*
X7952965Y29615566D01*
X8000002Y29502008D01*
X8023981Y29381457D01*
X8023981Y29258543D01*
X8000002Y29137992D01*
X7952965Y29024434D01*
X7884678Y28922235D01*
X7797765Y28835322D01*
X7695566Y28767035D01*
X7582008Y28719998D01*
X7461457Y28696019D01*
X7459811Y28695939D01*
X7441002Y28692197D01*
X7449885Y28602000D01*
X8000000Y28602000D01*
X8039034Y28594236D01*
X8072125Y28572125D01*
X8094236Y28539034D01*
X8102000Y28500000D01*
X8102000Y27900000D01*
X8094236Y27860966D01*
X8072125Y27827875D01*
X8070036Y27826480D01*
X8062478Y27815167D01*
X8062478Y27784833D01*
X8070036Y27773521D01*
X8072125Y27772125D01*
X8094236Y27739034D01*
X8102000Y27700000D01*
X8102000Y27100000D01*
X8094236Y27060966D01*
X8072125Y27027875D01*
X8070036Y27026480D01*
X8062478Y27015167D01*
X8062478Y26984833D01*
X8070036Y26973521D01*
X8072125Y26972125D01*
X8094236Y26939034D01*
X8102000Y26900000D01*
X8102000Y26600000D01*
X8094236Y26560966D01*
X8072125Y26527875D01*
X8070036Y26526480D01*
X8062478Y26515167D01*
X8062478Y26484833D01*
X8070036Y26473521D01*
X8072125Y26472125D01*
X8094236Y26439034D01*
X8102000Y26400000D01*
X8102000Y26100000D01*
X8094236Y26060966D01*
X8072125Y26027875D01*
X8070036Y26026480D01*
X8062478Y26015167D01*
X8062478Y25984833D01*
X8070036Y25973521D01*
X8072125Y25972125D01*
X8094236Y25939034D01*
X8102000Y25900000D01*
X8102000Y25600000D01*
X8094236Y25560966D01*
X8072125Y25527875D01*
X8070036Y25526480D01*
X8062478Y25515167D01*
X8062478Y25484833D01*
X8070036Y25473521D01*
X8072125Y25472125D01*
X8094236Y25439034D01*
X8102000Y25400000D01*
X8102000Y25100000D01*
X8094236Y25060966D01*
X8072125Y25027875D01*
X8070036Y25026480D01*
X8062478Y25015167D01*
X8062478Y24984833D01*
X8070036Y24973521D01*
X8072125Y24972125D01*
X8094236Y24939034D01*
X8102000Y24900000D01*
X8102000Y24600000D01*
X8094236Y24560966D01*
X8072125Y24527875D01*
X8070036Y24526480D01*
X8062478Y24515167D01*
X8062478Y24484833D01*
X8070036Y24473521D01*
X8072125Y24472125D01*
X8094236Y24439034D01*
X8102000Y24400000D01*
X8102000Y24100000D01*
X8094236Y24060966D01*
X8072125Y24027875D01*
X8070036Y24026480D01*
X8062478Y24015167D01*
X8062478Y23984833D01*
X8070036Y23973521D01*
X8072125Y23972125D01*
X8094236Y23939034D01*
X8102000Y23900000D01*
X8102000Y23600000D01*
X8094236Y23560966D01*
X8072125Y23527875D01*
X8070036Y23526480D01*
X8062478Y23515167D01*
X8062478Y23484833D01*
X8070036Y23473521D01*
X8072125Y23472125D01*
X8094236Y23439034D01*
X8102000Y23400000D01*
X8102000Y23100000D01*
X8094236Y23060966D01*
X8072125Y23027875D01*
X8070036Y23026480D01*
X8062478Y23015167D01*
X8062478Y22984833D01*
X8070036Y22973521D01*
X8072125Y22972125D01*
X8094236Y22939034D01*
X8102000Y22900000D01*
X8102000Y22300000D01*
X8094236Y22260966D01*
X8072125Y22227875D01*
X8070036Y22226480D01*
X8062478Y22215167D01*
X8062478Y22184833D01*
X8070036Y22173521D01*
X8072125Y22172125D01*
X8094236Y22139034D01*
X8102000Y22100000D01*
X8102000Y21500000D01*
X8094236Y21460966D01*
X8072125Y21427875D01*
X8039034Y21405764D01*
X8000000Y21398000D01*
X7449886Y21398000D01*
X7441002Y21307805D01*
X7459823Y21304062D01*
X7461457Y21303981D01*
X7582008Y21280002D01*
X7695566Y21232965D01*
X7797765Y21164678D01*
X7884678Y21077765D01*
X7952965Y20975566D01*
X8000002Y20862008D01*
X8023981Y20741457D01*
X8023981Y20618543D01*
X8000002Y20497992D01*
X7952965Y20384434D01*
X7884678Y20282235D01*
X7797765Y20195322D01*
X7695566Y20127035D01*
X7582008Y20079998D01*
X7461457Y20056019D01*
X7400000Y20053000D01*
X7398768Y20053000D01*
X6301232Y20053000D01*
X6300000Y20053000D01*
X6238543Y20056019D01*
X6117992Y20079998D01*
X6004434Y20127035D01*
X5902235Y20195322D01*
X5815322Y20282235D01*
X5747035Y20384434D01*
X5699998Y20497992D01*
X5676019Y20618543D01*
X5676019Y20741457D01*
X5699998Y20862008D01*
X5747035Y20975566D01*
X5815322Y21077765D01*
X5902235Y21164678D01*
X6004434Y21232965D01*
X6117992Y21280002D01*
X6238543Y21303981D01*
X6300000Y21307000D01*
X6970079Y21307000D01*
X6978963Y21397196D01*
X6974921Y21398000D01*
X6970000Y21398000D01*
X6930966Y21405764D01*
X6897875Y21427875D01*
X6875764Y21460966D01*
X6868000Y21500000D01*
X6868000Y22061744D01*
X6781054Y22073191D01*
X6776321Y22055528D01*
X6776321Y22053874D01*
X6747268Y21945446D01*
X6691142Y21848233D01*
X6611767Y21768858D01*
X6514554Y21712732D01*
X6406126Y21683679D01*
X6293874Y21683679D01*
X6185446Y21712732D01*
X6088233Y21768858D01*
X6008858Y21848233D01*
X5952732Y21945446D01*
X5923679Y22053874D01*
X5923679Y22166126D01*
X5952732Y22274554D01*
X6008858Y22371767D01*
X6088233Y22451142D01*
X6185446Y22507268D01*
X6293874Y22536321D01*
X6406126Y22536321D01*
X6514554Y22507268D01*
X6611767Y22451142D01*
X6691142Y22371767D01*
X6747268Y22274554D01*
X6776321Y22166126D01*
X6776321Y22094319D01*
X6866090Y22085477D01*
X6868000Y22095080D01*
X6868000Y22100000D01*
X6875764Y22139034D01*
X6897875Y22172125D01*
X6899960Y22173519D01*
X6907521Y22184833D01*
X6907521Y22215167D01*
X6899961Y22226481D01*
X6897875Y22227875D01*
X6875764Y22260966D01*
X6868000Y22300000D01*
X6868000Y22900000D01*
X6875764Y22939034D01*
X6877158Y22941122D01*
X6881482Y22962855D01*
X6858469Y22997295D01*
X6854925Y22998000D01*
X6850000Y22998000D01*
X6810966Y23005764D01*
X6777875Y23027875D01*
X6755764Y23060966D01*
X6748000Y23100000D01*
X6748000Y23400000D01*
X6755764Y23439034D01*
X6777875Y23472125D01*
X6779960Y23473519D01*
X6787521Y23484833D01*
X6787521Y23515167D01*
X6779961Y23526481D01*
X6777875Y23527875D01*
X6755764Y23560966D01*
X6748000Y23600000D01*
X6748000Y23900000D01*
X6755764Y23939034D01*
X6777875Y23972125D01*
X6779960Y23973519D01*
X6787521Y23984833D01*
X6787521Y24015167D01*
X6779961Y24026481D01*
X6777875Y24027875D01*
X6755764Y24060966D01*
X6748000Y24100000D01*
X6748000Y24400000D01*
X6755764Y24439034D01*
X6777875Y24472125D01*
X6779960Y24473519D01*
X6787521Y24484833D01*
X6787521Y24515167D01*
X6779961Y24526481D01*
X6777875Y24527875D01*
X6755764Y24560966D01*
X6748000Y24600000D01*
X6748000Y24900000D01*
X6755764Y24939034D01*
X6777875Y24972125D01*
X6779960Y24973519D01*
X6787521Y24984833D01*
X6787521Y25015167D01*
X6779961Y25026481D01*
X6777875Y25027875D01*
X6755764Y25060966D01*
X6748000Y25100000D01*
X6748000Y25400000D01*
X6755764Y25439034D01*
X6777875Y25472125D01*
X6779960Y25473519D01*
X6787521Y25484833D01*
X6787521Y25515167D01*
X6779961Y25526481D01*
X6777875Y25527875D01*
X6755764Y25560966D01*
X6748000Y25600000D01*
X6748000Y25900000D01*
X6755764Y25939034D01*
X6777875Y25972125D01*
X6779960Y25973519D01*
X6787521Y25984833D01*
X6787521Y26015167D01*
X6779961Y26026481D01*
X6777875Y26027875D01*
X6755764Y26060966D01*
X6748000Y26100000D01*
X6748000Y26400000D01*
X6755764Y26439034D01*
X6777875Y26472125D01*
X6779960Y26473519D01*
X6787521Y26484833D01*
X6787521Y26515167D01*
X6779961Y26526481D01*
X6777875Y26527875D01*
X6755764Y26560966D01*
X6748000Y26600000D01*
X6748000Y26900000D01*
X6755764Y26939034D01*
X6777875Y26972125D01*
X6810966Y26994236D01*
X6850000Y27002000D01*
X6854924Y27002000D01*
X6858469Y27002705D01*
X6881481Y27037144D01*
X6877158Y27058880D01*
X6875764Y27060966D01*
X6868000Y27100000D01*
X6868000Y27700000D01*
X6875764Y27739034D01*
X6897875Y27772125D01*
X6899960Y27773519D01*
X6907521Y27784833D01*
X6907521Y27815167D01*
X6899961Y27826481D01*
X6897875Y27827875D01*
X6875764Y27860966D01*
X6868000Y27900000D01*
X6868000Y27904933D01*
X6866092Y27914526D01*
X6776321Y27905686D01*
X6776321Y27833874D01*
X6747268Y27725446D01*
X6691142Y27628233D01*
X6611767Y27548858D01*
X6514554Y27492732D01*
X6406126Y27463679D01*
X6293874Y27463679D01*
X6185446Y27492732D01*
X6088233Y27548858D01*
X6008858Y27628233D01*
X5952732Y27725446D01*
X5923679Y27833874D01*
X5923679Y27946126D01*
X5952732Y28054554D01*
X6008858Y28151767D01*
X6088233Y28231142D01*
X6185446Y28287268D01*
X6293874Y28316321D01*
X6406126Y28316321D01*
X6514554Y28287268D01*
X6611767Y28231142D01*
X6691142Y28151767D01*
X6747268Y28054554D01*
X6776321Y27946126D01*
X6776321Y27944473D01*
X6781054Y27926808D01*
X6868000Y27938254D01*
X6868000Y28495078D01*
X6868000Y28500000D01*
X6875764Y28539034D01*
X6897875Y28572125D01*
X6930966Y28594236D01*
X6970000Y28602000D01*
X6974932Y28602000D01*
X6978965Y28602802D01*
X6970082Y28693000D01*
X6301232Y28693000D01*
X6300000Y28693000D01*
X6238543Y28696019D01*
X6117992Y28719998D01*
X6004434Y28767035D01*
X5902235Y28835322D01*
X5815322Y28922235D01*
X5747035Y29024434D01*
X5699998Y29137992D01*
X5676019Y29258543D01*
X5676019Y29381457D01*
X5699998Y29502008D01*
X5747035Y29615566D01*
X5815322Y29717765D01*
X5902235Y29804678D01*
X6004434Y29872965D01*
X6117992Y29920002D01*
X6238543Y29943981D01*
X6300000Y29947000D01*
X7400000Y29947000D01*
X7461457Y29943981D01*
G37*
G36*
X10819830Y21496899D02*
G01*
X10828621Y21493018D01*
X10836352Y21491891D01*
X10884686Y21468262D01*
X10922367Y21451624D01*
X10925855Y21448136D01*
X10926826Y21447661D01*
X10997660Y21376827D01*
X10998134Y21375857D01*
X11001624Y21372367D01*
X11018264Y21334681D01*
X11041890Y21286354D01*
X11043016Y21278624D01*
X11046899Y21269830D01*
X11055000Y21200000D01*
X11055000Y20750000D01*
X11046899Y20680170D01*
X11043015Y20671376D01*
X11041890Y20663648D01*
X11018271Y20615336D01*
X11001624Y20577633D01*
X10998133Y20574143D01*
X10997660Y20573174D01*
X10926826Y20502340D01*
X10925857Y20501867D01*
X10922367Y20498376D01*
X10884669Y20481731D01*
X10836353Y20458110D01*
X10828623Y20456984D01*
X10819830Y20453101D01*
X10750000Y20445000D01*
X10250000Y20445000D01*
X10180170Y20453101D01*
X10171376Y20456984D01*
X10163647Y20458110D01*
X10115324Y20481734D01*
X10077633Y20498376D01*
X10074143Y20501866D01*
X10073173Y20502340D01*
X10002339Y20573174D01*
X10001864Y20574145D01*
X9998376Y20577633D01*
X9981740Y20615310D01*
X9958109Y20663647D01*
X9956982Y20671380D01*
X9953101Y20680170D01*
X9945000Y20750000D01*
X9945000Y21200000D01*
X9953101Y21269830D01*
X9956982Y21278621D01*
X9958109Y21286353D01*
X9981742Y21334697D01*
X9998376Y21372367D01*
X10001863Y21375855D01*
X10002339Y21376827D01*
X10073173Y21447661D01*
X10074145Y21448137D01*
X10077633Y21451624D01*
X10115298Y21468256D01*
X10163646Y21491891D01*
X10171379Y21493018D01*
X10180170Y21496899D01*
X10250000Y21505000D01*
X10750000Y21505000D01*
X10819830Y21496899D01*
G37*
G36*
X30070615Y22698910D02*
G01*
X30096569Y22681569D01*
X30113910Y22655615D01*
X30120000Y22625000D01*
X30120000Y20925000D01*
X30113910Y20894385D01*
X30096569Y20868431D01*
X30070615Y20851090D01*
X30040000Y20845000D01*
X28340000Y20845000D01*
X28309385Y20851090D01*
X28283431Y20868431D01*
X28266090Y20894385D01*
X28260000Y20925000D01*
X28260000Y22625000D01*
X28266090Y22655615D01*
X28283431Y22681569D01*
X28309385Y22698910D01*
X28340000Y22705000D01*
X30040000Y22705000D01*
X30070615Y22698910D01*
G37*
G36*
X31999965Y22664955D02*
G01*
X32168399Y22595187D01*
X32319986Y22493900D01*
X32448900Y22364986D01*
X32550187Y22213399D01*
X32619955Y22044965D01*
X32655522Y21866156D01*
X32655522Y21683844D01*
X32619955Y21505035D01*
X32550187Y21336601D01*
X32448900Y21185014D01*
X32319986Y21056100D01*
X32168399Y20954813D01*
X31999965Y20885045D01*
X31821156Y20849478D01*
X31638844Y20849478D01*
X31460035Y20885045D01*
X31291601Y20954813D01*
X31140014Y21056100D01*
X31011100Y21185014D01*
X30909813Y21336601D01*
X30840045Y21505035D01*
X30804478Y21683844D01*
X30804478Y21866156D01*
X30840045Y22044965D01*
X30909813Y22213399D01*
X31011100Y22364986D01*
X31140014Y22493900D01*
X31291601Y22595187D01*
X31460035Y22664955D01*
X31638844Y22700522D01*
X31821156Y22700522D01*
X31999965Y22664955D01*
G37*
G36*
X34539965Y22664955D02*
G01*
X34708399Y22595187D01*
X34859986Y22493900D01*
X34988900Y22364986D01*
X35090187Y22213399D01*
X35159955Y22044965D01*
X35195522Y21866156D01*
X35195522Y21683844D01*
X35159955Y21505035D01*
X35090187Y21336601D01*
X34988900Y21185014D01*
X34859986Y21056100D01*
X34708399Y20954813D01*
X34539965Y20885045D01*
X34361156Y20849478D01*
X34178844Y20849478D01*
X34000035Y20885045D01*
X33831601Y20954813D01*
X33680014Y21056100D01*
X33551100Y21185014D01*
X33449813Y21336601D01*
X33380045Y21505035D01*
X33344478Y21683844D01*
X33344478Y21866156D01*
X33380045Y22044965D01*
X33449813Y22213399D01*
X33551100Y22364986D01*
X33680014Y22493900D01*
X33831601Y22595187D01*
X34000035Y22664955D01*
X34178844Y22700522D01*
X34361156Y22700522D01*
X34539965Y22664955D01*
G37*
G36*
X37079965Y22664955D02*
G01*
X37248399Y22595187D01*
X37399986Y22493900D01*
X37528900Y22364986D01*
X37630187Y22213399D01*
X37699955Y22044965D01*
X37735522Y21866156D01*
X37735522Y21683844D01*
X37699955Y21505035D01*
X37630187Y21336601D01*
X37528900Y21185014D01*
X37399986Y21056100D01*
X37248399Y20954813D01*
X37079965Y20885045D01*
X36901156Y20849478D01*
X36718844Y20849478D01*
X36540035Y20885045D01*
X36371601Y20954813D01*
X36220014Y21056100D01*
X36091100Y21185014D01*
X35989813Y21336601D01*
X35920045Y21505035D01*
X35884478Y21683844D01*
X35884478Y21866156D01*
X35920045Y22044965D01*
X35989813Y22213399D01*
X36091100Y22364986D01*
X36220014Y22493900D01*
X36371601Y22595187D01*
X36540035Y22664955D01*
X36718844Y22700522D01*
X36901156Y22700522D01*
X37079965Y22664955D01*
G37*
G36*
X39739106Y21897563D02*
G01*
X39743730Y21895522D01*
X39746253Y21895189D01*
X39777824Y21880467D01*
X39833238Y21855999D01*
X39905999Y21783238D01*
X39930476Y21727803D01*
X39945188Y21696254D01*
X39945519Y21693734D01*
X39947563Y21689106D01*
X39955000Y21625000D01*
X39955000Y21225000D01*
X39947563Y21160894D01*
X39945519Y21156267D01*
X39945188Y21153747D01*
X39930484Y21122217D01*
X39905999Y21066762D01*
X39833238Y20994001D01*
X39777783Y20969516D01*
X39746253Y20954812D01*
X39743733Y20954481D01*
X39739106Y20952437D01*
X39675000Y20945000D01*
X39125000Y20945000D01*
X39060894Y20952437D01*
X39056266Y20954481D01*
X39053746Y20954812D01*
X39022197Y20969524D01*
X38966762Y20994001D01*
X38894001Y21066762D01*
X38869533Y21122176D01*
X38854811Y21153747D01*
X38854478Y21156270D01*
X38852437Y21160894D01*
X38845000Y21225000D01*
X38845000Y21625000D01*
X38852437Y21689106D01*
X38854478Y21693731D01*
X38854811Y21696254D01*
X38869541Y21727843D01*
X38894001Y21783238D01*
X38966762Y21855999D01*
X39022157Y21880459D01*
X39053746Y21895189D01*
X39056269Y21895522D01*
X39060894Y21897563D01*
X39125000Y21905000D01*
X39675000Y21905000D01*
X39739106Y21897563D01*
G37*
G36*
X14319830Y23046899D02*
G01*
X14328621Y23043018D01*
X14336352Y23041891D01*
X14384686Y23018262D01*
X14422367Y23001624D01*
X14425855Y22998136D01*
X14426826Y22997661D01*
X14497660Y22926827D01*
X14498134Y22925857D01*
X14501624Y22922367D01*
X14518264Y22884681D01*
X14541890Y22836354D01*
X14543016Y22828624D01*
X14546899Y22819830D01*
X14555000Y22750000D01*
X14555000Y22250000D01*
X14546899Y22180170D01*
X14543015Y22171376D01*
X14541890Y22163648D01*
X14518271Y22115336D01*
X14501624Y22077633D01*
X14498133Y22074143D01*
X14497660Y22073174D01*
X14426826Y22002340D01*
X14425857Y22001867D01*
X14422367Y21998376D01*
X14384669Y21981731D01*
X14336353Y21958110D01*
X14328623Y21956984D01*
X14319830Y21953101D01*
X14250000Y21945000D01*
X13800000Y21945000D01*
X13730170Y21953101D01*
X13721376Y21956984D01*
X13713647Y21958110D01*
X13665324Y21981734D01*
X13627633Y21998376D01*
X13624143Y22001866D01*
X13623173Y22002340D01*
X13552339Y22073174D01*
X13551864Y22074145D01*
X13548376Y22077633D01*
X13531740Y22115310D01*
X13508109Y22163647D01*
X13506982Y22171380D01*
X13503101Y22180170D01*
X13495000Y22250000D01*
X13495000Y22750000D01*
X13503101Y22819830D01*
X13506982Y22828621D01*
X13508109Y22836353D01*
X13531742Y22884697D01*
X13548376Y22922367D01*
X13551863Y22925855D01*
X13552339Y22926827D01*
X13623173Y22997661D01*
X13624145Y22998137D01*
X13627633Y23001624D01*
X13665298Y23018256D01*
X13713646Y23041891D01*
X13721379Y23043018D01*
X13730170Y23046899D01*
X13800000Y23055000D01*
X14250000Y23055000D01*
X14319830Y23046899D01*
G37*
G36*
X15869830Y23046899D02*
G01*
X15878621Y23043018D01*
X15886352Y23041891D01*
X15934686Y23018262D01*
X15972367Y23001624D01*
X15975855Y22998136D01*
X15976826Y22997661D01*
X16047660Y22926827D01*
X16048134Y22925857D01*
X16051624Y22922367D01*
X16068264Y22884681D01*
X16091890Y22836354D01*
X16093016Y22828624D01*
X16096899Y22819830D01*
X16105000Y22750000D01*
X16105000Y22250000D01*
X16096899Y22180170D01*
X16093015Y22171376D01*
X16091890Y22163648D01*
X16068271Y22115336D01*
X16051624Y22077633D01*
X16048133Y22074143D01*
X16047660Y22073174D01*
X15976826Y22002340D01*
X15975857Y22001867D01*
X15972367Y21998376D01*
X15934669Y21981731D01*
X15886353Y21958110D01*
X15878623Y21956984D01*
X15869830Y21953101D01*
X15800000Y21945000D01*
X15350000Y21945000D01*
X15280170Y21953101D01*
X15271376Y21956984D01*
X15263647Y21958110D01*
X15215324Y21981734D01*
X15177633Y21998376D01*
X15174143Y22001866D01*
X15173173Y22002340D01*
X15102339Y22073174D01*
X15101864Y22074145D01*
X15098376Y22077633D01*
X15081740Y22115310D01*
X15058109Y22163647D01*
X15056982Y22171380D01*
X15053101Y22180170D01*
X15045000Y22250000D01*
X15045000Y22750000D01*
X15053101Y22819830D01*
X15056982Y22828621D01*
X15058109Y22836353D01*
X15081742Y22884697D01*
X15098376Y22922367D01*
X15101863Y22925855D01*
X15102339Y22926827D01*
X15173173Y22997661D01*
X15174145Y22998137D01*
X15177633Y23001624D01*
X15215298Y23018256D01*
X15263646Y23041891D01*
X15271379Y23043018D01*
X15280170Y23046899D01*
X15350000Y23055000D01*
X15800000Y23055000D01*
X15869830Y23046899D01*
G37*
G36*
X10819830Y23046899D02*
G01*
X10828621Y23043018D01*
X10836352Y23041891D01*
X10884686Y23018262D01*
X10922367Y23001624D01*
X10925855Y22998136D01*
X10926826Y22997661D01*
X10997660Y22926827D01*
X10998134Y22925857D01*
X11001624Y22922367D01*
X11018264Y22884681D01*
X11041890Y22836354D01*
X11043016Y22828624D01*
X11046899Y22819830D01*
X11055000Y22750000D01*
X11055000Y22300000D01*
X11046899Y22230170D01*
X11043015Y22221376D01*
X11041890Y22213648D01*
X11018271Y22165336D01*
X11001624Y22127633D01*
X10998133Y22124143D01*
X10997660Y22123174D01*
X10926826Y22052340D01*
X10925857Y22051867D01*
X10922367Y22048376D01*
X10884669Y22031731D01*
X10836353Y22008110D01*
X10828623Y22006984D01*
X10819830Y22003101D01*
X10750000Y21995000D01*
X10250000Y21995000D01*
X10180170Y22003101D01*
X10171376Y22006984D01*
X10163647Y22008110D01*
X10115324Y22031734D01*
X10077633Y22048376D01*
X10074143Y22051866D01*
X10073173Y22052340D01*
X10002339Y22123174D01*
X10001864Y22124145D01*
X9998376Y22127633D01*
X9981740Y22165310D01*
X9958109Y22213647D01*
X9956982Y22221380D01*
X9953101Y22230170D01*
X9945000Y22300000D01*
X9945000Y22750000D01*
X9953101Y22819830D01*
X9956982Y22828621D01*
X9958109Y22836353D01*
X9981742Y22884697D01*
X9998376Y22922367D01*
X10001863Y22925855D01*
X10002339Y22926827D01*
X10073173Y22997661D01*
X10074145Y22998137D01*
X10077633Y23001624D01*
X10115298Y23018256D01*
X10163646Y23041891D01*
X10171379Y23043018D01*
X10180170Y23046899D01*
X10250000Y23055000D01*
X10750000Y23055000D01*
X10819830Y23046899D01*
G37*
G36*
X77031354Y24126003D02*
G01*
X77190936Y24094260D01*
X77341259Y24031995D01*
X77476546Y23941599D01*
X77591599Y23826546D01*
X77681995Y23691259D01*
X77744260Y23540936D01*
X77776003Y23381354D01*
X77776003Y23218646D01*
X77744260Y23059064D01*
X77681995Y22908741D01*
X77591599Y22773454D01*
X77476546Y22658401D01*
X77341259Y22568005D01*
X77190936Y22505740D01*
X77031354Y22473997D01*
X76950000Y22470000D01*
X76948768Y22470000D01*
X76151232Y22470000D01*
X76150000Y22470000D01*
X76068646Y22473997D01*
X75909064Y22505740D01*
X75758741Y22568005D01*
X75623454Y22658401D01*
X75508401Y22773454D01*
X75418005Y22908741D01*
X75355740Y23059064D01*
X75323997Y23218646D01*
X75323997Y23381354D01*
X75355740Y23540936D01*
X75418005Y23691259D01*
X75508401Y23826546D01*
X75623454Y23941599D01*
X75758741Y24031995D01*
X75909064Y24094260D01*
X76068646Y24126003D01*
X76150000Y24130000D01*
X76950000Y24130000D01*
X77031354Y24126003D01*
G37*
G36*
X39739106Y23547563D02*
G01*
X39743730Y23545522D01*
X39746253Y23545189D01*
X39777824Y23530467D01*
X39833238Y23505999D01*
X39905999Y23433238D01*
X39930476Y23377803D01*
X39945188Y23346254D01*
X39945519Y23343734D01*
X39947563Y23339106D01*
X39955000Y23275000D01*
X39955000Y22875000D01*
X39947563Y22810894D01*
X39945519Y22806267D01*
X39945188Y22803747D01*
X39930484Y22772217D01*
X39905999Y22716762D01*
X39833238Y22644001D01*
X39777783Y22619516D01*
X39746253Y22604812D01*
X39743733Y22604481D01*
X39739106Y22602437D01*
X39675000Y22595000D01*
X39125000Y22595000D01*
X39060894Y22602437D01*
X39056266Y22604481D01*
X39053746Y22604812D01*
X39022197Y22619524D01*
X38966762Y22644001D01*
X38894001Y22716762D01*
X38869533Y22772176D01*
X38854811Y22803747D01*
X38854478Y22806270D01*
X38852437Y22810894D01*
X38845000Y22875000D01*
X38845000Y23275000D01*
X38852437Y23339106D01*
X38854478Y23343731D01*
X38854811Y23346254D01*
X38869541Y23377843D01*
X38894001Y23433238D01*
X38966762Y23505999D01*
X39022157Y23530459D01*
X39053746Y23545189D01*
X39056269Y23545522D01*
X39060894Y23547563D01*
X39125000Y23555000D01*
X39675000Y23555000D01*
X39739106Y23547563D01*
G37*
G36*
X11065734Y25163444D02*
G01*
X11136296Y25116296D01*
X11183444Y25045734D01*
X11200000Y24962500D01*
X11200000Y23737500D01*
X11183444Y23654266D01*
X11136296Y23583704D01*
X11065734Y23536556D01*
X10982500Y23520000D01*
X10707500Y23520000D01*
X10624266Y23536556D01*
X10553704Y23583704D01*
X10506556Y23654266D01*
X10490000Y23737500D01*
X10490000Y24962500D01*
X10506556Y25045734D01*
X10553704Y25116296D01*
X10624266Y25163444D01*
X10707500Y25180000D01*
X10982500Y25180000D01*
X11065734Y25163444D01*
G37*
G36*
X12335734Y25163444D02*
G01*
X12406296Y25116296D01*
X12453444Y25045734D01*
X12470000Y24962500D01*
X12470000Y23737500D01*
X12453444Y23654266D01*
X12406296Y23583704D01*
X12335734Y23536556D01*
X12252500Y23520000D01*
X11977500Y23520000D01*
X11894266Y23536556D01*
X11823704Y23583704D01*
X11776556Y23654266D01*
X11760000Y23737500D01*
X11760000Y24962500D01*
X11776556Y25045734D01*
X11823704Y25116296D01*
X11894266Y25163444D01*
X11977500Y25180000D01*
X12252500Y25180000D01*
X12335734Y25163444D01*
G37*
G36*
X13605734Y25163444D02*
G01*
X13676296Y25116296D01*
X13723444Y25045734D01*
X13740000Y24962500D01*
X13740000Y23737500D01*
X13723444Y23654266D01*
X13676296Y23583704D01*
X13605734Y23536556D01*
X13522500Y23520000D01*
X13247500Y23520000D01*
X13164266Y23536556D01*
X13093704Y23583704D01*
X13046556Y23654266D01*
X13030000Y23737500D01*
X13030000Y24962500D01*
X13046556Y25045734D01*
X13093704Y25116296D01*
X13164266Y25163444D01*
X13247500Y25180000D01*
X13522500Y25180000D01*
X13605734Y25163444D01*
G37*
G36*
X14875734Y25163444D02*
G01*
X14946296Y25116296D01*
X14993444Y25045734D01*
X15010000Y24962500D01*
X15010000Y23737500D01*
X14993444Y23654266D01*
X14946296Y23583704D01*
X14875734Y23536556D01*
X14792500Y23520000D01*
X14517500Y23520000D01*
X14434266Y23536556D01*
X14363704Y23583704D01*
X14316556Y23654266D01*
X14300000Y23737500D01*
X14300000Y24962500D01*
X14316556Y25045734D01*
X14363704Y25116296D01*
X14434266Y25163444D01*
X14517500Y25180000D01*
X14792500Y25180000D01*
X14875734Y25163444D01*
G37*
G36*
X18554046Y25274196D02*
G01*
X18600829Y25268768D01*
X18616815Y25261710D01*
X18638017Y25257492D01*
X18660717Y25242325D01*
X18679491Y25234035D01*
X18692311Y25221215D01*
X18712635Y25207635D01*
X18726214Y25187312D01*
X18739034Y25174492D01*
X18747322Y25155720D01*
X18762492Y25133017D01*
X18766709Y25111813D01*
X18773767Y25095830D01*
X18779192Y25049058D01*
X18780000Y25045000D01*
X18780000Y24745000D01*
X18779192Y24740942D01*
X18773767Y24694171D01*
X18766710Y24678190D01*
X18762492Y24656983D01*
X18747321Y24634279D01*
X18739034Y24615509D01*
X18726216Y24602692D01*
X18712635Y24582365D01*
X18692308Y24568784D01*
X18679491Y24555966D01*
X18660721Y24547679D01*
X18638017Y24532508D01*
X18616810Y24528290D01*
X18600829Y24521233D01*
X18554058Y24515808D01*
X18550000Y24515000D01*
X16900000Y24515000D01*
X16895942Y24515808D01*
X16849170Y24521233D01*
X16833187Y24528291D01*
X16811983Y24532508D01*
X16789280Y24547678D01*
X16770508Y24555966D01*
X16757688Y24568786D01*
X16737365Y24582365D01*
X16723785Y24602689D01*
X16710965Y24615509D01*
X16702675Y24634283D01*
X16687508Y24656983D01*
X16683290Y24678185D01*
X16676232Y24694171D01*
X16670804Y24740954D01*
X16670000Y24745000D01*
X16670000Y25045000D01*
X16670804Y25049046D01*
X16676232Y25095830D01*
X16683290Y25111817D01*
X16687508Y25133017D01*
X16702674Y25155716D01*
X16710965Y25174492D01*
X16723787Y25187315D01*
X16737365Y25207635D01*
X16757685Y25221213D01*
X16770508Y25234035D01*
X16789284Y25242326D01*
X16811983Y25257492D01*
X16833183Y25261710D01*
X16849170Y25268768D01*
X16895954Y25274196D01*
X16900000Y25275000D01*
X18550000Y25275000D01*
X18554046Y25274196D01*
G37*
G36*
X23504046Y25274196D02*
G01*
X23550829Y25268768D01*
X23566815Y25261710D01*
X23588017Y25257492D01*
X23610717Y25242325D01*
X23629491Y25234035D01*
X23642311Y25221215D01*
X23662635Y25207635D01*
X23676214Y25187312D01*
X23689034Y25174492D01*
X23697322Y25155720D01*
X23712492Y25133017D01*
X23716709Y25111813D01*
X23723767Y25095830D01*
X23729192Y25049058D01*
X23730000Y25045000D01*
X23730000Y24745000D01*
X23729192Y24740942D01*
X23723767Y24694171D01*
X23716710Y24678190D01*
X23712492Y24656983D01*
X23697321Y24634279D01*
X23689034Y24615509D01*
X23676216Y24602692D01*
X23662635Y24582365D01*
X23642308Y24568784D01*
X23629491Y24555966D01*
X23610721Y24547679D01*
X23588017Y24532508D01*
X23566810Y24528290D01*
X23550829Y24521233D01*
X23504058Y24515808D01*
X23500000Y24515000D01*
X21850000Y24515000D01*
X21845942Y24515808D01*
X21799170Y24521233D01*
X21783187Y24528291D01*
X21761983Y24532508D01*
X21739280Y24547678D01*
X21720508Y24555966D01*
X21707688Y24568786D01*
X21687365Y24582365D01*
X21673785Y24602689D01*
X21660965Y24615509D01*
X21652675Y24634283D01*
X21637508Y24656983D01*
X21633290Y24678185D01*
X21626232Y24694171D01*
X21620804Y24740954D01*
X21620000Y24745000D01*
X21620000Y25045000D01*
X21620804Y25049046D01*
X21626232Y25095830D01*
X21633290Y25111817D01*
X21637508Y25133017D01*
X21652674Y25155716D01*
X21660965Y25174492D01*
X21673787Y25187315D01*
X21687365Y25207635D01*
X21707685Y25221213D01*
X21720508Y25234035D01*
X21739284Y25242326D01*
X21761983Y25257492D01*
X21783183Y25261710D01*
X21799170Y25268768D01*
X21845954Y25274196D01*
X21850000Y25275000D01*
X23500000Y25275000D01*
X23504046Y25274196D01*
G37*
G36*
X38365984Y26459141D02*
G01*
X38521016Y26394925D01*
X38660541Y26301697D01*
X38779197Y26183041D01*
X38872425Y26043516D01*
X38936641Y25888484D01*
X38969378Y25723903D01*
X38969378Y25556097D01*
X38936641Y25391516D01*
X38872425Y25236484D01*
X38779197Y25096959D01*
X38660541Y24978303D01*
X38521016Y24885075D01*
X38365984Y24820859D01*
X38201403Y24788122D01*
X38033597Y24788122D01*
X37869016Y24820859D01*
X37713984Y24885075D01*
X37574459Y24978303D01*
X37455803Y25096959D01*
X37362575Y25236484D01*
X37298359Y25391516D01*
X37265622Y25556097D01*
X37265622Y25723903D01*
X37298359Y25888484D01*
X37362575Y26043516D01*
X37455803Y26183041D01*
X37574459Y26301697D01*
X37713984Y26394925D01*
X37869016Y26459141D01*
X38033597Y26491878D01*
X38201403Y26491878D01*
X38365984Y26459141D01*
G37*
G36*
X53605984Y26459141D02*
G01*
X53761016Y26394925D01*
X53900541Y26301697D01*
X54019197Y26183041D01*
X54112425Y26043516D01*
X54176641Y25888484D01*
X54209378Y25723903D01*
X54209378Y25556097D01*
X54176641Y25391516D01*
X54112425Y25236484D01*
X54019197Y25096959D01*
X53900541Y24978303D01*
X53761016Y24885075D01*
X53605984Y24820859D01*
X53441403Y24788122D01*
X53273597Y24788122D01*
X53109016Y24820859D01*
X52953984Y24885075D01*
X52814459Y24978303D01*
X52695803Y25096959D01*
X52602575Y25236484D01*
X52538359Y25391516D01*
X52505622Y25556097D01*
X52505622Y25723903D01*
X52538359Y25888484D01*
X52602575Y26043516D01*
X52695803Y26183041D01*
X52814459Y26301697D01*
X52953984Y26394925D01*
X53109016Y26459141D01*
X53273597Y26491878D01*
X53441403Y26491878D01*
X53605984Y26459141D01*
G37*
G36*
X35739106Y25847563D02*
G01*
X35743730Y25845522D01*
X35746253Y25845189D01*
X35777824Y25830467D01*
X35833238Y25805999D01*
X35905999Y25733238D01*
X35930476Y25677803D01*
X35945188Y25646254D01*
X35945519Y25643734D01*
X35947563Y25639106D01*
X35955000Y25575000D01*
X35955000Y25175000D01*
X35947563Y25110894D01*
X35945519Y25106267D01*
X35945188Y25103747D01*
X35930484Y25072217D01*
X35905999Y25016762D01*
X35833238Y24944001D01*
X35777783Y24919516D01*
X35746253Y24904812D01*
X35743733Y24904481D01*
X35739106Y24902437D01*
X35675000Y24895000D01*
X35125000Y24895000D01*
X35060894Y24902437D01*
X35056266Y24904481D01*
X35053746Y24904812D01*
X35022197Y24919524D01*
X34966762Y24944001D01*
X34894001Y25016762D01*
X34869533Y25072176D01*
X34854811Y25103747D01*
X34854478Y25106270D01*
X34852437Y25110894D01*
X34845000Y25175000D01*
X34845000Y25575000D01*
X34852437Y25639106D01*
X34854478Y25643731D01*
X34854811Y25646254D01*
X34869541Y25677843D01*
X34894001Y25733238D01*
X34966762Y25805999D01*
X35022157Y25830459D01*
X35053746Y25845189D01*
X35056269Y25845522D01*
X35060894Y25847563D01*
X35125000Y25855000D01*
X35675000Y25855000D01*
X35739106Y25847563D01*
G37*
G36*
X75594420Y27305744D02*
G01*
X75746916Y27242578D01*
X75884159Y27150875D01*
X76000875Y27034159D01*
X76092578Y26896916D01*
X76155744Y26744420D01*
X76187946Y26582530D01*
X76187946Y26417470D01*
X76155744Y26255580D01*
X76092578Y26103084D01*
X76000875Y25965841D01*
X75884159Y25849125D01*
X75746916Y25757422D01*
X75594420Y25694256D01*
X75432530Y25662054D01*
X75267470Y25662054D01*
X75105580Y25694256D01*
X74953084Y25757422D01*
X74815841Y25849125D01*
X74699125Y25965841D01*
X74607422Y26103084D01*
X74544256Y26255580D01*
X74512054Y26417470D01*
X74512054Y26582530D01*
X74544256Y26744420D01*
X74607422Y26896916D01*
X74699125Y27034159D01*
X74815841Y27150875D01*
X74953084Y27242578D01*
X75105580Y27305744D01*
X75267470Y27337946D01*
X75432530Y27337946D01*
X75594420Y27305744D01*
G37*
G36*
X77994420Y27305744D02*
G01*
X78146916Y27242578D01*
X78284159Y27150875D01*
X78400875Y27034159D01*
X78492578Y26896916D01*
X78555744Y26744420D01*
X78587946Y26582530D01*
X78587946Y26417470D01*
X78555744Y26255580D01*
X78492578Y26103084D01*
X78400875Y25965841D01*
X78284159Y25849125D01*
X78146916Y25757422D01*
X77994420Y25694256D01*
X77832530Y25662054D01*
X77667470Y25662054D01*
X77505580Y25694256D01*
X77353084Y25757422D01*
X77215841Y25849125D01*
X77099125Y25965841D01*
X77007422Y26103084D01*
X76944256Y26255580D01*
X76912054Y26417470D01*
X76912054Y26582530D01*
X76944256Y26744420D01*
X77007422Y26896916D01*
X77099125Y27034159D01*
X77215841Y27150875D01*
X77353084Y27242578D01*
X77505580Y27305744D01*
X77667470Y27337946D01*
X77832530Y27337946D01*
X77994420Y27305744D01*
G37*
G36*
X18554046Y26544196D02*
G01*
X18600829Y26538768D01*
X18616815Y26531710D01*
X18638017Y26527492D01*
X18660717Y26512325D01*
X18679491Y26504035D01*
X18692311Y26491215D01*
X18712635Y26477635D01*
X18726214Y26457312D01*
X18739034Y26444492D01*
X18747322Y26425720D01*
X18762492Y26403017D01*
X18766709Y26381813D01*
X18773767Y26365830D01*
X18779192Y26319058D01*
X18780000Y26315000D01*
X18780000Y26015000D01*
X18779192Y26010942D01*
X18773767Y25964171D01*
X18766710Y25948190D01*
X18762492Y25926983D01*
X18747321Y25904279D01*
X18739034Y25885509D01*
X18726216Y25872692D01*
X18712635Y25852365D01*
X18692308Y25838784D01*
X18679491Y25825966D01*
X18660721Y25817679D01*
X18638017Y25802508D01*
X18616810Y25798290D01*
X18600829Y25791233D01*
X18554058Y25785808D01*
X18550000Y25785000D01*
X16900000Y25785000D01*
X16895942Y25785808D01*
X16849170Y25791233D01*
X16833187Y25798291D01*
X16811983Y25802508D01*
X16789280Y25817678D01*
X16770508Y25825966D01*
X16757688Y25838786D01*
X16737365Y25852365D01*
X16723785Y25872689D01*
X16710965Y25885509D01*
X16702675Y25904283D01*
X16687508Y25926983D01*
X16683290Y25948185D01*
X16676232Y25964171D01*
X16670804Y26010954D01*
X16670000Y26015000D01*
X16670000Y26315000D01*
X16670804Y26319046D01*
X16676232Y26365830D01*
X16683290Y26381817D01*
X16687508Y26403017D01*
X16702674Y26425716D01*
X16710965Y26444492D01*
X16723787Y26457315D01*
X16737365Y26477635D01*
X16757685Y26491213D01*
X16770508Y26504035D01*
X16789284Y26512326D01*
X16811983Y26527492D01*
X16833183Y26531710D01*
X16849170Y26538768D01*
X16895954Y26544196D01*
X16900000Y26545000D01*
X18550000Y26545000D01*
X18554046Y26544196D01*
G37*
G36*
X23504046Y26544196D02*
G01*
X23550829Y26538768D01*
X23566815Y26531710D01*
X23588017Y26527492D01*
X23610717Y26512325D01*
X23629491Y26504035D01*
X23642311Y26491215D01*
X23662635Y26477635D01*
X23676214Y26457312D01*
X23689034Y26444492D01*
X23697322Y26425720D01*
X23712492Y26403017D01*
X23716709Y26381813D01*
X23723767Y26365830D01*
X23729192Y26319058D01*
X23730000Y26315000D01*
X23730000Y26015000D01*
X23729192Y26010942D01*
X23723767Y25964171D01*
X23716710Y25948190D01*
X23712492Y25926983D01*
X23697321Y25904279D01*
X23689034Y25885509D01*
X23676216Y25872692D01*
X23662635Y25852365D01*
X23642308Y25838784D01*
X23629491Y25825966D01*
X23610721Y25817679D01*
X23588017Y25802508D01*
X23566810Y25798290D01*
X23550829Y25791233D01*
X23504058Y25785808D01*
X23500000Y25785000D01*
X21850000Y25785000D01*
X21845942Y25785808D01*
X21799170Y25791233D01*
X21783187Y25798291D01*
X21761983Y25802508D01*
X21739280Y25817678D01*
X21720508Y25825966D01*
X21707688Y25838786D01*
X21687365Y25852365D01*
X21673785Y25872689D01*
X21660965Y25885509D01*
X21652675Y25904283D01*
X21637508Y25926983D01*
X21633290Y25948185D01*
X21626232Y25964171D01*
X21620804Y26010954D01*
X21620000Y26015000D01*
X21620000Y26315000D01*
X21620804Y26319046D01*
X21626232Y26365830D01*
X21633290Y26381817D01*
X21637508Y26403017D01*
X21652674Y26425716D01*
X21660965Y26444492D01*
X21673787Y26457315D01*
X21687365Y26477635D01*
X21707685Y26491213D01*
X21720508Y26504035D01*
X21739284Y26512326D01*
X21761983Y26527492D01*
X21783183Y26531710D01*
X21799170Y26538768D01*
X21845954Y26544196D01*
X21850000Y26545000D01*
X23500000Y26545000D01*
X23504046Y26544196D01*
G37*
G36*
X35739106Y27497563D02*
G01*
X35743730Y27495522D01*
X35746253Y27495189D01*
X35777824Y27480467D01*
X35833238Y27455999D01*
X35905999Y27383238D01*
X35930476Y27327803D01*
X35945188Y27296254D01*
X35945519Y27293734D01*
X35947563Y27289106D01*
X35955000Y27225000D01*
X35955000Y26825000D01*
X35947563Y26760894D01*
X35945519Y26756267D01*
X35945188Y26753747D01*
X35930484Y26722217D01*
X35905999Y26666762D01*
X35833238Y26594001D01*
X35777783Y26569516D01*
X35746253Y26554812D01*
X35743733Y26554481D01*
X35739106Y26552437D01*
X35675000Y26545000D01*
X35125000Y26545000D01*
X35060894Y26552437D01*
X35056266Y26554481D01*
X35053746Y26554812D01*
X35022197Y26569524D01*
X34966762Y26594001D01*
X34894001Y26666762D01*
X34869533Y26722176D01*
X34854811Y26753747D01*
X34854478Y26756270D01*
X34852437Y26760894D01*
X34845000Y26825000D01*
X34845000Y27225000D01*
X34852437Y27289106D01*
X34854478Y27293731D01*
X34854811Y27296254D01*
X34869541Y27327843D01*
X34894001Y27383238D01*
X34966762Y27455999D01*
X35022157Y27480459D01*
X35053746Y27495189D01*
X35056269Y27495522D01*
X35060894Y27497563D01*
X35125000Y27505000D01*
X35675000Y27505000D01*
X35739106Y27497563D01*
G37*
G36*
X18554046Y27814196D02*
G01*
X18600829Y27808768D01*
X18616815Y27801710D01*
X18638017Y27797492D01*
X18660717Y27782325D01*
X18679491Y27774035D01*
X18692311Y27761215D01*
X18712635Y27747635D01*
X18726214Y27727312D01*
X18739034Y27714492D01*
X18747322Y27695720D01*
X18762492Y27673017D01*
X18766709Y27651813D01*
X18773767Y27635830D01*
X18779192Y27589058D01*
X18780000Y27585000D01*
X18780000Y27285000D01*
X18779192Y27280942D01*
X18773767Y27234171D01*
X18766710Y27218190D01*
X18762492Y27196983D01*
X18747321Y27174279D01*
X18739034Y27155509D01*
X18726216Y27142692D01*
X18712635Y27122365D01*
X18692308Y27108784D01*
X18679491Y27095966D01*
X18660721Y27087679D01*
X18638017Y27072508D01*
X18616810Y27068290D01*
X18600829Y27061233D01*
X18554058Y27055808D01*
X18550000Y27055000D01*
X16900000Y27055000D01*
X16895942Y27055808D01*
X16849170Y27061233D01*
X16833187Y27068291D01*
X16811983Y27072508D01*
X16789280Y27087678D01*
X16770508Y27095966D01*
X16757688Y27108786D01*
X16737365Y27122365D01*
X16723785Y27142689D01*
X16710965Y27155509D01*
X16702675Y27174283D01*
X16687508Y27196983D01*
X16683290Y27218185D01*
X16676232Y27234171D01*
X16670804Y27280954D01*
X16670000Y27285000D01*
X16670000Y27585000D01*
X16670804Y27589046D01*
X16676232Y27635830D01*
X16683290Y27651817D01*
X16687508Y27673017D01*
X16702674Y27695716D01*
X16710965Y27714492D01*
X16723787Y27727315D01*
X16737365Y27747635D01*
X16757685Y27761213D01*
X16770508Y27774035D01*
X16789284Y27782326D01*
X16811983Y27797492D01*
X16833183Y27801710D01*
X16849170Y27808768D01*
X16895954Y27814196D01*
X16900000Y27815000D01*
X18550000Y27815000D01*
X18554046Y27814196D01*
G37*
G36*
X23504046Y27814196D02*
G01*
X23550829Y27808768D01*
X23566815Y27801710D01*
X23588017Y27797492D01*
X23610717Y27782325D01*
X23629491Y27774035D01*
X23642311Y27761215D01*
X23662635Y27747635D01*
X23676214Y27727312D01*
X23689034Y27714492D01*
X23697322Y27695720D01*
X23712492Y27673017D01*
X23716709Y27651813D01*
X23723767Y27635830D01*
X23729192Y27589058D01*
X23730000Y27585000D01*
X23730000Y27285000D01*
X23729192Y27280942D01*
X23723767Y27234171D01*
X23716710Y27218190D01*
X23712492Y27196983D01*
X23697321Y27174279D01*
X23689034Y27155509D01*
X23676216Y27142692D01*
X23662635Y27122365D01*
X23642308Y27108784D01*
X23629491Y27095966D01*
X23610721Y27087679D01*
X23588017Y27072508D01*
X23566810Y27068290D01*
X23550829Y27061233D01*
X23504058Y27055808D01*
X23500000Y27055000D01*
X21850000Y27055000D01*
X21845942Y27055808D01*
X21799170Y27061233D01*
X21783187Y27068291D01*
X21761983Y27072508D01*
X21739280Y27087678D01*
X21720508Y27095966D01*
X21707688Y27108786D01*
X21687365Y27122365D01*
X21673785Y27142689D01*
X21660965Y27155509D01*
X21652675Y27174283D01*
X21637508Y27196983D01*
X21633290Y27218185D01*
X21626232Y27234171D01*
X21620804Y27280954D01*
X21620000Y27285000D01*
X21620000Y27585000D01*
X21620804Y27589046D01*
X21626232Y27635830D01*
X21633290Y27651817D01*
X21637508Y27673017D01*
X21652674Y27695716D01*
X21660965Y27714492D01*
X21673787Y27727315D01*
X21687365Y27747635D01*
X21707685Y27761213D01*
X21720508Y27774035D01*
X21739284Y27782326D01*
X21761983Y27797492D01*
X21783183Y27801710D01*
X21799170Y27808768D01*
X21845954Y27814196D01*
X21850000Y27815000D01*
X23500000Y27815000D01*
X23504046Y27814196D01*
G37*
G36*
X38365984Y28999141D02*
G01*
X38521016Y28934925D01*
X38660541Y28841697D01*
X38779197Y28723041D01*
X38872425Y28583516D01*
X38936641Y28428484D01*
X38969378Y28263903D01*
X38969378Y28096097D01*
X38936641Y27931516D01*
X38872425Y27776484D01*
X38779197Y27636959D01*
X38660541Y27518303D01*
X38521016Y27425075D01*
X38365984Y27360859D01*
X38201403Y27328122D01*
X38033597Y27328122D01*
X37869016Y27360859D01*
X37713984Y27425075D01*
X37574459Y27518303D01*
X37455803Y27636959D01*
X37362575Y27776484D01*
X37298359Y27931516D01*
X37265622Y28096097D01*
X37265622Y28263903D01*
X37298359Y28428484D01*
X37362575Y28583516D01*
X37455803Y28723041D01*
X37574459Y28841697D01*
X37713984Y28934925D01*
X37869016Y28999141D01*
X38033597Y29031878D01*
X38201403Y29031878D01*
X38365984Y28999141D01*
G37*
G36*
X53605984Y28999141D02*
G01*
X53761016Y28934925D01*
X53900541Y28841697D01*
X54019197Y28723041D01*
X54112425Y28583516D01*
X54176641Y28428484D01*
X54209378Y28263903D01*
X54209378Y28096097D01*
X54176641Y27931516D01*
X54112425Y27776484D01*
X54019197Y27636959D01*
X53900541Y27518303D01*
X53761016Y27425075D01*
X53605984Y27360859D01*
X53441403Y27328122D01*
X53273597Y27328122D01*
X53109016Y27360859D01*
X52953984Y27425075D01*
X52814459Y27518303D01*
X52695803Y27636959D01*
X52602575Y27776484D01*
X52538359Y27931516D01*
X52505622Y28096097D01*
X52505622Y28263903D01*
X52538359Y28428484D01*
X52602575Y28583516D01*
X52695803Y28723041D01*
X52814459Y28841697D01*
X52953984Y28934925D01*
X53109016Y28999141D01*
X53273597Y29031878D01*
X53441403Y29031878D01*
X53605984Y28999141D01*
G37*
G36*
X75594420Y29305744D02*
G01*
X75746916Y29242578D01*
X75884159Y29150875D01*
X76000875Y29034159D01*
X76092578Y28896916D01*
X76155744Y28744420D01*
X76187946Y28582530D01*
X76187946Y28417470D01*
X76155744Y28255580D01*
X76092578Y28103084D01*
X76000875Y27965841D01*
X75884159Y27849125D01*
X75746916Y27757422D01*
X75594420Y27694256D01*
X75432530Y27662054D01*
X75267470Y27662054D01*
X75105580Y27694256D01*
X74953084Y27757422D01*
X74815841Y27849125D01*
X74699125Y27965841D01*
X74607422Y28103084D01*
X74544256Y28255580D01*
X74512054Y28417470D01*
X74512054Y28582530D01*
X74544256Y28744420D01*
X74607422Y28896916D01*
X74699125Y29034159D01*
X74815841Y29150875D01*
X74953084Y29242578D01*
X75105580Y29305744D01*
X75267470Y29337946D01*
X75432530Y29337946D01*
X75594420Y29305744D01*
G37*
G36*
X77994420Y29305744D02*
G01*
X78146916Y29242578D01*
X78284159Y29150875D01*
X78400875Y29034159D01*
X78492578Y28896916D01*
X78555744Y28744420D01*
X78587946Y28582530D01*
X78587946Y28417470D01*
X78555744Y28255580D01*
X78492578Y28103084D01*
X78400875Y27965841D01*
X78284159Y27849125D01*
X78146916Y27757422D01*
X77994420Y27694256D01*
X77832530Y27662054D01*
X77667470Y27662054D01*
X77505580Y27694256D01*
X77353084Y27757422D01*
X77215841Y27849125D01*
X77099125Y27965841D01*
X77007422Y28103084D01*
X76944256Y28255580D01*
X76912054Y28417470D01*
X76912054Y28582530D01*
X76944256Y28744420D01*
X77007422Y28896916D01*
X77099125Y29034159D01*
X77215841Y29150875D01*
X77353084Y29242578D01*
X77505580Y29305744D01*
X77667470Y29337946D01*
X77832530Y29337946D01*
X77994420Y29305744D01*
G37*
G36*
X25719830Y29246899D02*
G01*
X25728621Y29243018D01*
X25736352Y29241891D01*
X25784686Y29218262D01*
X25822367Y29201624D01*
X25825855Y29198136D01*
X25826826Y29197661D01*
X25897660Y29126827D01*
X25898134Y29125857D01*
X25901624Y29122367D01*
X25918264Y29084681D01*
X25941890Y29036354D01*
X25943016Y29028624D01*
X25946899Y29019830D01*
X25955000Y28950000D01*
X25955000Y28500000D01*
X25946899Y28430170D01*
X25943015Y28421376D01*
X25941890Y28413648D01*
X25918271Y28365336D01*
X25901624Y28327633D01*
X25898133Y28324143D01*
X25897660Y28323174D01*
X25826826Y28252340D01*
X25825857Y28251867D01*
X25822367Y28248376D01*
X25784669Y28231731D01*
X25736353Y28208110D01*
X25728623Y28206984D01*
X25719830Y28203101D01*
X25650000Y28195000D01*
X25150000Y28195000D01*
X25080170Y28203101D01*
X25071376Y28206984D01*
X25063647Y28208110D01*
X25015324Y28231734D01*
X24977633Y28248376D01*
X24974143Y28251866D01*
X24973173Y28252340D01*
X24902339Y28323174D01*
X24901864Y28324145D01*
X24898376Y28327633D01*
X24881740Y28365310D01*
X24858109Y28413647D01*
X24856982Y28421380D01*
X24853101Y28430170D01*
X24845000Y28500000D01*
X24845000Y28950000D01*
X24853101Y29019830D01*
X24856982Y29028621D01*
X24858109Y29036353D01*
X24881742Y29084697D01*
X24898376Y29122367D01*
X24901863Y29125855D01*
X24902339Y29126827D01*
X24973173Y29197661D01*
X24974145Y29198137D01*
X24977633Y29201624D01*
X25015298Y29218256D01*
X25063646Y29241891D01*
X25071379Y29243018D01*
X25080170Y29246899D01*
X25150000Y29255000D01*
X25650000Y29255000D01*
X25719830Y29246899D01*
G37*
G36*
X18554046Y29084196D02*
G01*
X18600829Y29078768D01*
X18616815Y29071710D01*
X18638017Y29067492D01*
X18660717Y29052325D01*
X18679491Y29044035D01*
X18692311Y29031215D01*
X18712635Y29017635D01*
X18726214Y28997312D01*
X18739034Y28984492D01*
X18747322Y28965720D01*
X18762492Y28943017D01*
X18766709Y28921813D01*
X18773767Y28905830D01*
X18779192Y28859058D01*
X18780000Y28855000D01*
X18780000Y28555000D01*
X18779192Y28550942D01*
X18773767Y28504171D01*
X18766710Y28488190D01*
X18762492Y28466983D01*
X18747321Y28444279D01*
X18739034Y28425509D01*
X18726216Y28412692D01*
X18712635Y28392365D01*
X18692308Y28378784D01*
X18679491Y28365966D01*
X18660721Y28357679D01*
X18638017Y28342508D01*
X18616810Y28338290D01*
X18600829Y28331233D01*
X18554058Y28325808D01*
X18550000Y28325000D01*
X16900000Y28325000D01*
X16895942Y28325808D01*
X16849170Y28331233D01*
X16833187Y28338291D01*
X16811983Y28342508D01*
X16789280Y28357678D01*
X16770508Y28365966D01*
X16757688Y28378786D01*
X16737365Y28392365D01*
X16723785Y28412689D01*
X16710965Y28425509D01*
X16702675Y28444283D01*
X16687508Y28466983D01*
X16683290Y28488185D01*
X16676232Y28504171D01*
X16670804Y28550954D01*
X16670000Y28555000D01*
X16670000Y28855000D01*
X16670804Y28859046D01*
X16676232Y28905830D01*
X16683290Y28921817D01*
X16687508Y28943017D01*
X16702674Y28965716D01*
X16710965Y28984492D01*
X16723787Y28997315D01*
X16737365Y29017635D01*
X16757685Y29031213D01*
X16770508Y29044035D01*
X16789284Y29052326D01*
X16811983Y29067492D01*
X16833183Y29071710D01*
X16849170Y29078768D01*
X16895954Y29084196D01*
X16900000Y29085000D01*
X18550000Y29085000D01*
X18554046Y29084196D01*
G37*
G36*
X23504046Y29084196D02*
G01*
X23550829Y29078768D01*
X23566815Y29071710D01*
X23588017Y29067492D01*
X23610717Y29052325D01*
X23629491Y29044035D01*
X23642311Y29031215D01*
X23662635Y29017635D01*
X23676214Y28997312D01*
X23689034Y28984492D01*
X23697322Y28965720D01*
X23712492Y28943017D01*
X23716709Y28921813D01*
X23723767Y28905830D01*
X23729192Y28859058D01*
X23730000Y28855000D01*
X23730000Y28555000D01*
X23729192Y28550942D01*
X23723767Y28504171D01*
X23716710Y28488190D01*
X23712492Y28466983D01*
X23697321Y28444279D01*
X23689034Y28425509D01*
X23676216Y28412692D01*
X23662635Y28392365D01*
X23642308Y28378784D01*
X23629491Y28365966D01*
X23610721Y28357679D01*
X23588017Y28342508D01*
X23566810Y28338290D01*
X23550829Y28331233D01*
X23504058Y28325808D01*
X23500000Y28325000D01*
X21850000Y28325000D01*
X21845942Y28325808D01*
X21799170Y28331233D01*
X21783187Y28338291D01*
X21761983Y28342508D01*
X21739280Y28357678D01*
X21720508Y28365966D01*
X21707688Y28378786D01*
X21687365Y28392365D01*
X21673785Y28412689D01*
X21660965Y28425509D01*
X21652675Y28444283D01*
X21637508Y28466983D01*
X21633290Y28488185D01*
X21626232Y28504171D01*
X21620804Y28550954D01*
X21620000Y28555000D01*
X21620000Y28855000D01*
X21620804Y28859046D01*
X21626232Y28905830D01*
X21633290Y28921817D01*
X21637508Y28943017D01*
X21652674Y28965716D01*
X21660965Y28984492D01*
X21673787Y28997315D01*
X21687365Y29017635D01*
X21707685Y29031213D01*
X21720508Y29044035D01*
X21739284Y29052326D01*
X21761983Y29067492D01*
X21783183Y29071710D01*
X21799170Y29078768D01*
X21845954Y29084196D01*
X21850000Y29085000D01*
X23500000Y29085000D01*
X23504046Y29084196D01*
G37*
G36*
X3161457Y29943981D02*
G01*
X3282008Y29920002D01*
X3395566Y29872965D01*
X3497765Y29804678D01*
X3584678Y29717765D01*
X3652965Y29615566D01*
X3700002Y29502008D01*
X3723981Y29381457D01*
X3723981Y29258543D01*
X3700002Y29137992D01*
X3652965Y29024434D01*
X3584678Y28922235D01*
X3497765Y28835322D01*
X3395566Y28767035D01*
X3282008Y28719998D01*
X3161457Y28696019D01*
X3100000Y28693000D01*
X3098768Y28693000D01*
X2301232Y28693000D01*
X2300000Y28693000D01*
X2238543Y28696019D01*
X2117992Y28719998D01*
X2004434Y28767035D01*
X1902235Y28835322D01*
X1815322Y28922235D01*
X1747035Y29024434D01*
X1699998Y29137992D01*
X1676019Y29258543D01*
X1676019Y29381457D01*
X1699998Y29502008D01*
X1747035Y29615566D01*
X1815322Y29717765D01*
X1902235Y29804678D01*
X2004434Y29872965D01*
X2117992Y29920002D01*
X2238543Y29943981D01*
X2300000Y29947000D01*
X3100000Y29947000D01*
X3161457Y29943981D01*
G37*
G36*
X11065734Y30463444D02*
G01*
X11136296Y30416296D01*
X11183444Y30345734D01*
X11200000Y30262500D01*
X11200000Y29037500D01*
X11183444Y28954266D01*
X11136296Y28883704D01*
X11065734Y28836556D01*
X10982500Y28820000D01*
X10707500Y28820000D01*
X10624266Y28836556D01*
X10553704Y28883704D01*
X10506556Y28954266D01*
X10490000Y29037500D01*
X10490000Y30262500D01*
X10506556Y30345734D01*
X10553704Y30416296D01*
X10624266Y30463444D01*
X10707500Y30480000D01*
X10982500Y30480000D01*
X11065734Y30463444D01*
G37*
G36*
X12335734Y30463444D02*
G01*
X12406296Y30416296D01*
X12453444Y30345734D01*
X12470000Y30262500D01*
X12470000Y29037500D01*
X12453444Y28954266D01*
X12406296Y28883704D01*
X12335734Y28836556D01*
X12252500Y28820000D01*
X11977500Y28820000D01*
X11894266Y28836556D01*
X11823704Y28883704D01*
X11776556Y28954266D01*
X11760000Y29037500D01*
X11760000Y30262500D01*
X11776556Y30345734D01*
X11823704Y30416296D01*
X11894266Y30463444D01*
X11977500Y30480000D01*
X12252500Y30480000D01*
X12335734Y30463444D01*
G37*
G36*
X13605734Y30463444D02*
G01*
X13676296Y30416296D01*
X13723444Y30345734D01*
X13740000Y30262500D01*
X13740000Y29037500D01*
X13723444Y28954266D01*
X13676296Y28883704D01*
X13605734Y28836556D01*
X13522500Y28820000D01*
X13247500Y28820000D01*
X13164266Y28836556D01*
X13093704Y28883704D01*
X13046556Y28954266D01*
X13030000Y29037500D01*
X13030000Y30262500D01*
X13046556Y30345734D01*
X13093704Y30416296D01*
X13164266Y30463444D01*
X13247500Y30480000D01*
X13522500Y30480000D01*
X13605734Y30463444D01*
G37*
G36*
X14875734Y30463444D02*
G01*
X14946296Y30416296D01*
X14993444Y30345734D01*
X15010000Y30262500D01*
X15010000Y29037500D01*
X14993444Y28954266D01*
X14946296Y28883704D01*
X14875734Y28836556D01*
X14792500Y28820000D01*
X14517500Y28820000D01*
X14434266Y28836556D01*
X14363704Y28883704D01*
X14316556Y28954266D01*
X14300000Y29037500D01*
X14300000Y30262500D01*
X14316556Y30345734D01*
X14363704Y30416296D01*
X14434266Y30463444D01*
X14517500Y30480000D01*
X14792500Y30480000D01*
X14875734Y30463444D01*
G37*
G36*
X66194830Y29871899D02*
G01*
X66203621Y29868018D01*
X66211352Y29866891D01*
X66259686Y29843262D01*
X66297367Y29826624D01*
X66300855Y29823136D01*
X66301826Y29822661D01*
X66372660Y29751827D01*
X66373134Y29750857D01*
X66376624Y29747367D01*
X66393264Y29709681D01*
X66416890Y29661354D01*
X66418016Y29653624D01*
X66421899Y29644830D01*
X66430000Y29575000D01*
X66430000Y29125000D01*
X66421899Y29055170D01*
X66418015Y29046376D01*
X66416890Y29038648D01*
X66393271Y28990336D01*
X66376624Y28952633D01*
X66373133Y28949143D01*
X66372660Y28948174D01*
X66301826Y28877340D01*
X66300857Y28876867D01*
X66297367Y28873376D01*
X66259669Y28856731D01*
X66211353Y28833110D01*
X66203623Y28831984D01*
X66194830Y28828101D01*
X66125000Y28820000D01*
X65375000Y28820000D01*
X65305170Y28828101D01*
X65296376Y28831984D01*
X65288647Y28833110D01*
X65240324Y28856734D01*
X65202633Y28873376D01*
X65199143Y28876866D01*
X65198173Y28877340D01*
X65127339Y28948174D01*
X65126864Y28949145D01*
X65123376Y28952633D01*
X65106740Y28990310D01*
X65083109Y29038647D01*
X65081982Y29046380D01*
X65078101Y29055170D01*
X65070000Y29125000D01*
X65070000Y29575000D01*
X65078101Y29644830D01*
X65081982Y29653621D01*
X65083109Y29661353D01*
X65106742Y29709697D01*
X65123376Y29747367D01*
X65126863Y29750855D01*
X65127339Y29751827D01*
X65198173Y29822661D01*
X65199145Y29823137D01*
X65202633Y29826624D01*
X65240298Y29843256D01*
X65288646Y29866891D01*
X65296379Y29868018D01*
X65305170Y29871899D01*
X65375000Y29880000D01*
X66125000Y29880000D01*
X66194830Y29871899D01*
G37*
G36*
X57485410Y31568756D02*
G01*
X57490800Y31566243D01*
X57493487Y31565851D01*
X57531689Y31547176D01*
X57589280Y31520320D01*
X57670320Y31439280D01*
X57697185Y31381667D01*
X57715850Y31343488D01*
X57716241Y31340803D01*
X57718756Y31335410D01*
X57730000Y31250000D01*
X57730000Y29250000D01*
X57718756Y29164590D01*
X57716240Y29159197D01*
X57715850Y29156513D01*
X57697195Y29118355D01*
X57670320Y29060720D01*
X57589280Y28979680D01*
X57531645Y28952805D01*
X57493487Y28934150D01*
X57490803Y28933760D01*
X57485410Y28931244D01*
X57400000Y28920000D01*
X56100000Y28920000D01*
X56014590Y28931244D01*
X56009197Y28933759D01*
X56006512Y28934150D01*
X55968333Y28952815D01*
X55910720Y28979680D01*
X55829680Y29060720D01*
X55802824Y29118311D01*
X55784149Y29156513D01*
X55783757Y29159200D01*
X55781244Y29164590D01*
X55770000Y29250000D01*
X55770000Y31250000D01*
X55781244Y31335410D01*
X55783757Y31340800D01*
X55784149Y31343488D01*
X55802834Y31381712D01*
X55829680Y31439280D01*
X55910720Y31520320D01*
X55968288Y31547166D01*
X56006512Y31565851D01*
X56009200Y31566243D01*
X56014590Y31568756D01*
X56100000Y31580000D01*
X57400000Y31580000D01*
X57485410Y31568756D01*
G37*
G36*
X61035410Y31568756D02*
G01*
X61040800Y31566243D01*
X61043487Y31565851D01*
X61081689Y31547176D01*
X61139280Y31520320D01*
X61220320Y31439280D01*
X61247185Y31381667D01*
X61265850Y31343488D01*
X61266241Y31340803D01*
X61268756Y31335410D01*
X61280000Y31250000D01*
X61280000Y29250000D01*
X61268756Y29164590D01*
X61266240Y29159197D01*
X61265850Y29156513D01*
X61247195Y29118355D01*
X61220320Y29060720D01*
X61139280Y28979680D01*
X61081645Y28952805D01*
X61043487Y28934150D01*
X61040803Y28933760D01*
X61035410Y28931244D01*
X60950000Y28920000D01*
X59650000Y28920000D01*
X59564590Y28931244D01*
X59559197Y28933759D01*
X59556512Y28934150D01*
X59518333Y28952815D01*
X59460720Y28979680D01*
X59379680Y29060720D01*
X59352824Y29118311D01*
X59334149Y29156513D01*
X59333757Y29159200D01*
X59331244Y29164590D01*
X59320000Y29250000D01*
X59320000Y31250000D01*
X59331244Y31335410D01*
X59333757Y31340800D01*
X59334149Y31343488D01*
X59352834Y31381712D01*
X59379680Y31439280D01*
X59460720Y31520320D01*
X59518288Y31547166D01*
X59556512Y31565851D01*
X59559200Y31566243D01*
X59564590Y31568756D01*
X59650000Y31580000D01*
X60950000Y31580000D01*
X61035410Y31568756D01*
G37*
G36*
X75594420Y31305744D02*
G01*
X75746916Y31242578D01*
X75884159Y31150875D01*
X76000875Y31034159D01*
X76092578Y30896916D01*
X76155744Y30744420D01*
X76187946Y30582530D01*
X76187946Y30417470D01*
X76155744Y30255580D01*
X76092578Y30103084D01*
X76000875Y29965841D01*
X75884159Y29849125D01*
X75746916Y29757422D01*
X75594420Y29694256D01*
X75432530Y29662054D01*
X75267470Y29662054D01*
X75105580Y29694256D01*
X74953084Y29757422D01*
X74815841Y29849125D01*
X74699125Y29965841D01*
X74607422Y30103084D01*
X74544256Y30255580D01*
X74512054Y30417470D01*
X74512054Y30582530D01*
X74544256Y30744420D01*
X74607422Y30896916D01*
X74699125Y31034159D01*
X74815841Y31150875D01*
X74953084Y31242578D01*
X75105580Y31305744D01*
X75267470Y31337946D01*
X75432530Y31337946D01*
X75594420Y31305744D01*
G37*
G36*
X77994420Y31305744D02*
G01*
X78146916Y31242578D01*
X78284159Y31150875D01*
X78400875Y31034159D01*
X78492578Y30896916D01*
X78555744Y30744420D01*
X78587946Y30582530D01*
X78587946Y30417470D01*
X78555744Y30255580D01*
X78492578Y30103084D01*
X78400875Y29965841D01*
X78284159Y29849125D01*
X78146916Y29757422D01*
X77994420Y29694256D01*
X77832530Y29662054D01*
X77667470Y29662054D01*
X77505580Y29694256D01*
X77353084Y29757422D01*
X77215841Y29849125D01*
X77099125Y29965841D01*
X77007422Y30103084D01*
X76944256Y30255580D01*
X76912054Y30417470D01*
X76912054Y30582530D01*
X76944256Y30744420D01*
X77007422Y30896916D01*
X77099125Y31034159D01*
X77215841Y31150875D01*
X77353084Y31242578D01*
X77505580Y31305744D01*
X77667470Y31337946D01*
X77832530Y31337946D01*
X77994420Y31305744D01*
G37*
G36*
X25719830Y30796899D02*
G01*
X25728621Y30793018D01*
X25736352Y30791891D01*
X25784686Y30768262D01*
X25822367Y30751624D01*
X25825855Y30748136D01*
X25826826Y30747661D01*
X25897660Y30676827D01*
X25898134Y30675857D01*
X25901624Y30672367D01*
X25918264Y30634681D01*
X25941890Y30586354D01*
X25943016Y30578624D01*
X25946899Y30569830D01*
X25955000Y30500000D01*
X25955000Y30050000D01*
X25946899Y29980170D01*
X25943015Y29971376D01*
X25941890Y29963648D01*
X25918271Y29915336D01*
X25901624Y29877633D01*
X25898133Y29874143D01*
X25897660Y29873174D01*
X25826826Y29802340D01*
X25825857Y29801867D01*
X25822367Y29798376D01*
X25784669Y29781731D01*
X25736353Y29758110D01*
X25728623Y29756984D01*
X25719830Y29753101D01*
X25650000Y29745000D01*
X25150000Y29745000D01*
X25080170Y29753101D01*
X25071376Y29756984D01*
X25063647Y29758110D01*
X25015324Y29781734D01*
X24977633Y29798376D01*
X24974143Y29801866D01*
X24973173Y29802340D01*
X24902339Y29873174D01*
X24901864Y29874145D01*
X24898376Y29877633D01*
X24881740Y29915310D01*
X24858109Y29963647D01*
X24856982Y29971380D01*
X24853101Y29980170D01*
X24845000Y30050000D01*
X24845000Y30500000D01*
X24853101Y30569830D01*
X24856982Y30578621D01*
X24858109Y30586353D01*
X24881742Y30634697D01*
X24898376Y30672367D01*
X24901863Y30675855D01*
X24902339Y30676827D01*
X24973173Y30747661D01*
X24974145Y30748137D01*
X24977633Y30751624D01*
X25015298Y30768256D01*
X25063646Y30791891D01*
X25071379Y30793018D01*
X25080170Y30796899D01*
X25150000Y30805000D01*
X25650000Y30805000D01*
X25719830Y30796899D01*
G37*
G36*
X62957277Y30633634D02*
G01*
X63027028Y30587028D01*
X63073634Y30517277D01*
X63090000Y30435000D01*
X63090000Y30065000D01*
X63073634Y29982723D01*
X63027028Y29912972D01*
X62957277Y29866366D01*
X62875000Y29850000D01*
X62605000Y29850000D01*
X62522723Y29866366D01*
X62452972Y29912972D01*
X62406366Y29982723D01*
X62390000Y30065000D01*
X62390000Y30435000D01*
X62406366Y30517277D01*
X62452972Y30587028D01*
X62522723Y30633634D01*
X62605000Y30650000D01*
X62875000Y30650000D01*
X62957277Y30633634D01*
G37*
G36*
X63977277Y30633634D02*
G01*
X64047028Y30587028D01*
X64093634Y30517277D01*
X64110000Y30435000D01*
X64110000Y30065000D01*
X64093634Y29982723D01*
X64047028Y29912972D01*
X63977277Y29866366D01*
X63895000Y29850000D01*
X63625000Y29850000D01*
X63542723Y29866366D01*
X63472972Y29912972D01*
X63426366Y29982723D01*
X63410000Y30065000D01*
X63410000Y30435000D01*
X63426366Y30517277D01*
X63472972Y30587028D01*
X63542723Y30633634D01*
X63625000Y30650000D01*
X63895000Y30650000D01*
X63977277Y30633634D01*
G37*
G36*
X38365984Y31539141D02*
G01*
X38521016Y31474925D01*
X38660541Y31381697D01*
X38779197Y31263041D01*
X38872425Y31123516D01*
X38936641Y30968484D01*
X38969378Y30803903D01*
X38969378Y30636097D01*
X38936641Y30471516D01*
X38872425Y30316484D01*
X38779197Y30176959D01*
X38660541Y30058303D01*
X38521016Y29965075D01*
X38365984Y29900859D01*
X38201403Y29868122D01*
X38033597Y29868122D01*
X37869016Y29900859D01*
X37713984Y29965075D01*
X37574459Y30058303D01*
X37455803Y30176959D01*
X37362575Y30316484D01*
X37298359Y30471516D01*
X37265622Y30636097D01*
X37265622Y30803903D01*
X37298359Y30968484D01*
X37362575Y31123516D01*
X37455803Y31263041D01*
X37574459Y31381697D01*
X37713984Y31474925D01*
X37869016Y31539141D01*
X38033597Y31571878D01*
X38201403Y31571878D01*
X38365984Y31539141D01*
G37*
G36*
X53605984Y31539141D02*
G01*
X53761016Y31474925D01*
X53900541Y31381697D01*
X54019197Y31263041D01*
X54112425Y31123516D01*
X54176641Y30968484D01*
X54209378Y30803903D01*
X54209378Y30636097D01*
X54176641Y30471516D01*
X54112425Y30316484D01*
X54019197Y30176959D01*
X53900541Y30058303D01*
X53761016Y29965075D01*
X53605984Y29900859D01*
X53441403Y29868122D01*
X53273597Y29868122D01*
X53109016Y29900859D01*
X52953984Y29965075D01*
X52814459Y30058303D01*
X52695803Y30176959D01*
X52602575Y30316484D01*
X52538359Y30471516D01*
X52505622Y30636097D01*
X52505622Y30803903D01*
X52538359Y30968484D01*
X52602575Y31123516D01*
X52695803Y31263041D01*
X52814459Y31381697D01*
X52953984Y31474925D01*
X53109016Y31539141D01*
X53273597Y31571878D01*
X53441403Y31571878D01*
X53605984Y31539141D01*
G37*
G36*
X69629046Y30679196D02*
G01*
X69675829Y30673768D01*
X69691815Y30666710D01*
X69713017Y30662492D01*
X69735717Y30647325D01*
X69754491Y30639035D01*
X69767311Y30626215D01*
X69787635Y30612635D01*
X69801214Y30592312D01*
X69814034Y30579492D01*
X69822322Y30560720D01*
X69837492Y30538017D01*
X69841709Y30516813D01*
X69848767Y30500830D01*
X69854192Y30454058D01*
X69855000Y30450000D01*
X69855000Y30150000D01*
X69854192Y30145942D01*
X69848767Y30099171D01*
X69841710Y30083190D01*
X69837492Y30061983D01*
X69822321Y30039279D01*
X69814034Y30020509D01*
X69801216Y30007692D01*
X69787635Y29987365D01*
X69767308Y29973784D01*
X69754491Y29960966D01*
X69735721Y29952679D01*
X69713017Y29937508D01*
X69691810Y29933290D01*
X69675829Y29926233D01*
X69629058Y29920808D01*
X69625000Y29920000D01*
X68600000Y29920000D01*
X68595942Y29920808D01*
X68549170Y29926233D01*
X68533187Y29933291D01*
X68511983Y29937508D01*
X68489280Y29952678D01*
X68470508Y29960966D01*
X68457688Y29973786D01*
X68437365Y29987365D01*
X68423785Y30007689D01*
X68410965Y30020509D01*
X68402675Y30039283D01*
X68387508Y30061983D01*
X68383290Y30083185D01*
X68376232Y30099171D01*
X68370804Y30145954D01*
X68370000Y30150000D01*
X68370000Y30450000D01*
X68370804Y30454046D01*
X68376232Y30500830D01*
X68383290Y30516817D01*
X68387508Y30538017D01*
X68402674Y30560716D01*
X68410965Y30579492D01*
X68423787Y30592315D01*
X68437365Y30612635D01*
X68457685Y30626213D01*
X68470508Y30639035D01*
X68489284Y30647326D01*
X68511983Y30662492D01*
X68533183Y30666710D01*
X68549170Y30673768D01*
X68595954Y30679196D01*
X68600000Y30680000D01*
X69625000Y30680000D01*
X69629046Y30679196D01*
G37*
G36*
X17019830Y31046899D02*
G01*
X17028621Y31043018D01*
X17036352Y31041891D01*
X17084686Y31018262D01*
X17122367Y31001624D01*
X17125855Y30998136D01*
X17126826Y30997661D01*
X17197660Y30926827D01*
X17198134Y30925857D01*
X17201624Y30922367D01*
X17218264Y30884681D01*
X17241890Y30836354D01*
X17243016Y30828624D01*
X17246899Y30819830D01*
X17255000Y30750000D01*
X17255000Y30250000D01*
X17246899Y30180170D01*
X17243015Y30171376D01*
X17241890Y30163648D01*
X17218271Y30115336D01*
X17201624Y30077633D01*
X17198133Y30074143D01*
X17197660Y30073174D01*
X17126826Y30002340D01*
X17125857Y30001867D01*
X17122367Y29998376D01*
X17084669Y29981731D01*
X17036353Y29958110D01*
X17028623Y29956984D01*
X17019830Y29953101D01*
X16950000Y29945000D01*
X16500000Y29945000D01*
X16430170Y29953101D01*
X16421376Y29956984D01*
X16413647Y29958110D01*
X16365324Y29981734D01*
X16327633Y29998376D01*
X16324143Y30001866D01*
X16323173Y30002340D01*
X16252339Y30073174D01*
X16251864Y30074145D01*
X16248376Y30077633D01*
X16231740Y30115310D01*
X16208109Y30163647D01*
X16206982Y30171380D01*
X16203101Y30180170D01*
X16195000Y30250000D01*
X16195000Y30750000D01*
X16203101Y30819830D01*
X16206982Y30828621D01*
X16208109Y30836353D01*
X16231742Y30884697D01*
X16248376Y30922367D01*
X16251863Y30925855D01*
X16252339Y30926827D01*
X16323173Y30997661D01*
X16324145Y30998137D01*
X16327633Y31001624D01*
X16365298Y31018256D01*
X16413646Y31041891D01*
X16421379Y31043018D01*
X16430170Y31046899D01*
X16500000Y31055000D01*
X16950000Y31055000D01*
X17019830Y31046899D01*
G37*
G36*
X18569830Y31046899D02*
G01*
X18578621Y31043018D01*
X18586352Y31041891D01*
X18634686Y31018262D01*
X18672367Y31001624D01*
X18675855Y30998136D01*
X18676826Y30997661D01*
X18747660Y30926827D01*
X18748134Y30925857D01*
X18751624Y30922367D01*
X18768264Y30884681D01*
X18791890Y30836354D01*
X18793016Y30828624D01*
X18796899Y30819830D01*
X18805000Y30750000D01*
X18805000Y30250000D01*
X18796899Y30180170D01*
X18793015Y30171376D01*
X18791890Y30163648D01*
X18768271Y30115336D01*
X18751624Y30077633D01*
X18748133Y30074143D01*
X18747660Y30073174D01*
X18676826Y30002340D01*
X18675857Y30001867D01*
X18672367Y29998376D01*
X18634669Y29981731D01*
X18586353Y29958110D01*
X18578623Y29956984D01*
X18569830Y29953101D01*
X18500000Y29945000D01*
X18050000Y29945000D01*
X17980170Y29953101D01*
X17971376Y29956984D01*
X17963647Y29958110D01*
X17915324Y29981734D01*
X17877633Y29998376D01*
X17874143Y30001866D01*
X17873173Y30002340D01*
X17802339Y30073174D01*
X17801864Y30074145D01*
X17798376Y30077633D01*
X17781740Y30115310D01*
X17758109Y30163647D01*
X17756982Y30171380D01*
X17753101Y30180170D01*
X17745000Y30250000D01*
X17745000Y30750000D01*
X17753101Y30819830D01*
X17756982Y30828621D01*
X17758109Y30836353D01*
X17781742Y30884697D01*
X17798376Y30922367D01*
X17801863Y30925855D01*
X17802339Y30926827D01*
X17873173Y30997661D01*
X17874145Y30998137D01*
X17877633Y31001624D01*
X17915298Y31018256D01*
X17963646Y31041891D01*
X17971379Y31043018D01*
X17980170Y31046899D01*
X18050000Y31055000D01*
X18500000Y31055000D01*
X18569830Y31046899D01*
G37*
G36*
X6424106Y31967563D02*
G01*
X6428730Y31965522D01*
X6431253Y31965189D01*
X6462824Y31950467D01*
X6518238Y31925999D01*
X6590999Y31853238D01*
X6615476Y31797803D01*
X6630188Y31766254D01*
X6630519Y31763734D01*
X6632563Y31759106D01*
X6640000Y31695000D01*
X6640000Y31145000D01*
X6632563Y31080894D01*
X6630519Y31076267D01*
X6630188Y31073747D01*
X6615484Y31042217D01*
X6590999Y30986762D01*
X6518238Y30914001D01*
X6462783Y30889516D01*
X6431253Y30874812D01*
X6428733Y30874481D01*
X6424106Y30872437D01*
X6360000Y30865000D01*
X5960000Y30865000D01*
X5895894Y30872437D01*
X5891266Y30874481D01*
X5888746Y30874812D01*
X5857197Y30889524D01*
X5801762Y30914001D01*
X5729001Y30986762D01*
X5704533Y31042176D01*
X5689811Y31073747D01*
X5689478Y31076270D01*
X5687437Y31080894D01*
X5680000Y31145000D01*
X5680000Y31695000D01*
X5687437Y31759106D01*
X5689478Y31763731D01*
X5689811Y31766254D01*
X5704541Y31797843D01*
X5729001Y31853238D01*
X5801762Y31925999D01*
X5857157Y31950459D01*
X5888746Y31965189D01*
X5891269Y31965522D01*
X5895894Y31967563D01*
X5960000Y31975000D01*
X6360000Y31975000D01*
X6424106Y31967563D01*
G37*
G36*
X8074106Y31967563D02*
G01*
X8078730Y31965522D01*
X8081253Y31965189D01*
X8112824Y31950467D01*
X8168238Y31925999D01*
X8240999Y31853238D01*
X8265476Y31797803D01*
X8280188Y31766254D01*
X8280519Y31763734D01*
X8282563Y31759106D01*
X8290000Y31695000D01*
X8290000Y31145000D01*
X8282563Y31080894D01*
X8280519Y31076267D01*
X8280188Y31073747D01*
X8265484Y31042217D01*
X8240999Y30986762D01*
X8168238Y30914001D01*
X8112783Y30889516D01*
X8081253Y30874812D01*
X8078733Y30874481D01*
X8074106Y30872437D01*
X8010000Y30865000D01*
X7610000Y30865000D01*
X7545894Y30872437D01*
X7541266Y30874481D01*
X7538746Y30874812D01*
X7507197Y30889524D01*
X7451762Y30914001D01*
X7379001Y30986762D01*
X7354533Y31042176D01*
X7339811Y31073747D01*
X7339478Y31076270D01*
X7337437Y31080894D01*
X7330000Y31145000D01*
X7330000Y31695000D01*
X7337437Y31759106D01*
X7339478Y31763731D01*
X7339811Y31766254D01*
X7354541Y31797843D01*
X7379001Y31853238D01*
X7451762Y31925999D01*
X7507157Y31950459D01*
X7538746Y31965189D01*
X7541269Y31965522D01*
X7545894Y31967563D01*
X7610000Y31975000D01*
X8010000Y31975000D01*
X8074106Y31967563D01*
G37*
G36*
X71904046Y31629196D02*
G01*
X71950829Y31623768D01*
X71966815Y31616710D01*
X71988017Y31612492D01*
X72010717Y31597325D01*
X72029491Y31589035D01*
X72042311Y31576215D01*
X72062635Y31562635D01*
X72076214Y31542312D01*
X72089034Y31529492D01*
X72097322Y31510720D01*
X72112492Y31488017D01*
X72116709Y31466813D01*
X72123767Y31450830D01*
X72129192Y31404058D01*
X72130000Y31400000D01*
X72130000Y31100000D01*
X72129192Y31095942D01*
X72123767Y31049171D01*
X72116710Y31033190D01*
X72112492Y31011983D01*
X72097321Y30989279D01*
X72089034Y30970509D01*
X72076216Y30957692D01*
X72062635Y30937365D01*
X72042308Y30923784D01*
X72029491Y30910966D01*
X72010721Y30902679D01*
X71988017Y30887508D01*
X71966810Y30883290D01*
X71950829Y30876233D01*
X71904058Y30870808D01*
X71900000Y30870000D01*
X70875000Y30870000D01*
X70870942Y30870808D01*
X70824170Y30876233D01*
X70808187Y30883291D01*
X70786983Y30887508D01*
X70764280Y30902678D01*
X70745508Y30910966D01*
X70732688Y30923786D01*
X70712365Y30937365D01*
X70698785Y30957689D01*
X70685965Y30970509D01*
X70677675Y30989283D01*
X70662508Y31011983D01*
X70658290Y31033185D01*
X70651232Y31049171D01*
X70645804Y31095954D01*
X70645000Y31100000D01*
X70645000Y31400000D01*
X70645804Y31404046D01*
X70651232Y31450830D01*
X70658290Y31466817D01*
X70662508Y31488017D01*
X70677674Y31510716D01*
X70685965Y31529492D01*
X70698787Y31542315D01*
X70712365Y31562635D01*
X70732685Y31576213D01*
X70745508Y31589035D01*
X70764284Y31597326D01*
X70786983Y31612492D01*
X70808183Y31616710D01*
X70824170Y31623768D01*
X70870954Y31629196D01*
X70875000Y31630000D01*
X71900000Y31630000D01*
X71904046Y31629196D01*
G37*
G36*
X63017277Y32223634D02*
G01*
X63087028Y32177028D01*
X63133634Y32107277D01*
X63150000Y32025000D01*
X63150000Y31755000D01*
X63133634Y31672723D01*
X63087028Y31602972D01*
X63017277Y31556366D01*
X62935000Y31540000D01*
X62565000Y31540000D01*
X62482723Y31556366D01*
X62412972Y31602972D01*
X62366366Y31672723D01*
X62350000Y31755000D01*
X62350000Y32025000D01*
X62366366Y32107277D01*
X62412972Y32177028D01*
X62482723Y32223634D01*
X62565000Y32240000D01*
X62935000Y32240000D01*
X63017277Y32223634D01*
G37*
G36*
X69629046Y32579196D02*
G01*
X69675829Y32573768D01*
X69691815Y32566710D01*
X69713017Y32562492D01*
X69735717Y32547325D01*
X69754491Y32539035D01*
X69767311Y32526215D01*
X69787635Y32512635D01*
X69801214Y32492312D01*
X69814034Y32479492D01*
X69822322Y32460720D01*
X69837492Y32438017D01*
X69841709Y32416813D01*
X69848767Y32400830D01*
X69854192Y32354058D01*
X69855000Y32350000D01*
X69855000Y32050000D01*
X69854192Y32045942D01*
X69848767Y31999171D01*
X69841710Y31983190D01*
X69837492Y31961983D01*
X69822321Y31939279D01*
X69814034Y31920509D01*
X69801216Y31907692D01*
X69787635Y31887365D01*
X69767308Y31873784D01*
X69754491Y31860966D01*
X69735721Y31852679D01*
X69713017Y31837508D01*
X69691810Y31833290D01*
X69675829Y31826233D01*
X69629058Y31820808D01*
X69625000Y31820000D01*
X68600000Y31820000D01*
X68595942Y31820808D01*
X68549170Y31826233D01*
X68533187Y31833291D01*
X68511983Y31837508D01*
X68489280Y31852678D01*
X68470508Y31860966D01*
X68457688Y31873786D01*
X68437365Y31887365D01*
X68423785Y31907689D01*
X68410965Y31920509D01*
X68402675Y31939283D01*
X68387508Y31961983D01*
X68383290Y31983185D01*
X68376232Y31999171D01*
X68370804Y32045954D01*
X68370000Y32050000D01*
X68370000Y32350000D01*
X68370804Y32354046D01*
X68376232Y32400830D01*
X68383290Y32416817D01*
X68387508Y32438017D01*
X68402674Y32460716D01*
X68410965Y32479492D01*
X68423787Y32492315D01*
X68437365Y32512635D01*
X68457685Y32526213D01*
X68470508Y32539035D01*
X68489284Y32547326D01*
X68511983Y32562492D01*
X68533183Y32566710D01*
X68549170Y32573768D01*
X68595954Y32579196D01*
X68600000Y32580000D01*
X69625000Y32580000D01*
X69629046Y32579196D01*
G37*
G36*
X66194830Y33171899D02*
G01*
X66203621Y33168018D01*
X66211352Y33166891D01*
X66259686Y33143262D01*
X66297367Y33126624D01*
X66300855Y33123136D01*
X66301826Y33122661D01*
X66372660Y33051827D01*
X66373134Y33050857D01*
X66376624Y33047367D01*
X66393264Y33009681D01*
X66416890Y32961354D01*
X66418016Y32953624D01*
X66421899Y32944830D01*
X66430000Y32875000D01*
X66430000Y32425000D01*
X66421899Y32355170D01*
X66418015Y32346376D01*
X66416890Y32338648D01*
X66393271Y32290336D01*
X66376624Y32252633D01*
X66373133Y32249143D01*
X66372660Y32248174D01*
X66301826Y32177340D01*
X66300857Y32176867D01*
X66297367Y32173376D01*
X66259669Y32156731D01*
X66211353Y32133110D01*
X66203623Y32131984D01*
X66194830Y32128101D01*
X66125000Y32120000D01*
X65375000Y32120000D01*
X65305170Y32128101D01*
X65296376Y32131984D01*
X65288647Y32133110D01*
X65240324Y32156734D01*
X65202633Y32173376D01*
X65199143Y32176866D01*
X65198173Y32177340D01*
X65127339Y32248174D01*
X65126864Y32249145D01*
X65123376Y32252633D01*
X65106740Y32290310D01*
X65083109Y32338647D01*
X65081982Y32346380D01*
X65078101Y32355170D01*
X65070000Y32425000D01*
X65070000Y32875000D01*
X65078101Y32944830D01*
X65081982Y32953621D01*
X65083109Y32961353D01*
X65106742Y33009697D01*
X65123376Y33047367D01*
X65126863Y33050855D01*
X65127339Y33051827D01*
X65198173Y33122661D01*
X65199145Y33123137D01*
X65202633Y33126624D01*
X65240298Y33143256D01*
X65288646Y33166891D01*
X65296379Y33168018D01*
X65305170Y33171899D01*
X65375000Y33180000D01*
X66125000Y33180000D01*
X66194830Y33171899D01*
G37*
G36*
X38365984Y34079141D02*
G01*
X38521016Y34014925D01*
X38660541Y33921697D01*
X38779197Y33803041D01*
X38872425Y33663516D01*
X38936641Y33508484D01*
X38969378Y33343903D01*
X38969378Y33176097D01*
X38936641Y33011516D01*
X38872425Y32856484D01*
X38779197Y32716959D01*
X38660541Y32598303D01*
X38521016Y32505075D01*
X38365984Y32440859D01*
X38201403Y32408122D01*
X38033597Y32408122D01*
X37869016Y32440859D01*
X37713984Y32505075D01*
X37574459Y32598303D01*
X37455803Y32716959D01*
X37362575Y32856484D01*
X37298359Y33011516D01*
X37265622Y33176097D01*
X37265622Y33343903D01*
X37298359Y33508484D01*
X37362575Y33663516D01*
X37455803Y33803041D01*
X37574459Y33921697D01*
X37713984Y34014925D01*
X37869016Y34079141D01*
X38033597Y34111878D01*
X38201403Y34111878D01*
X38365984Y34079141D01*
G37*
G36*
X53605984Y34079141D02*
G01*
X53761016Y34014925D01*
X53900541Y33921697D01*
X54019197Y33803041D01*
X54112425Y33663516D01*
X54176641Y33508484D01*
X54209378Y33343903D01*
X54209378Y33176097D01*
X54176641Y33011516D01*
X54112425Y32856484D01*
X54019197Y32716959D01*
X53900541Y32598303D01*
X53761016Y32505075D01*
X53605984Y32440859D01*
X53441403Y32408122D01*
X53273597Y32408122D01*
X53109016Y32440859D01*
X52953984Y32505075D01*
X52814459Y32598303D01*
X52695803Y32716959D01*
X52602575Y32856484D01*
X52538359Y33011516D01*
X52505622Y33176097D01*
X52505622Y33343903D01*
X52538359Y33508484D01*
X52602575Y33663516D01*
X52695803Y33803041D01*
X52814459Y33921697D01*
X52953984Y34014925D01*
X53109016Y34079141D01*
X53273597Y34111878D01*
X53441403Y34111878D01*
X53605984Y34079141D01*
G37*
G36*
X63017277Y33243634D02*
G01*
X63087028Y33197028D01*
X63133634Y33127277D01*
X63150000Y33045000D01*
X63150000Y32775000D01*
X63133634Y32692723D01*
X63087028Y32622972D01*
X63017277Y32576366D01*
X62935000Y32560000D01*
X62565000Y32560000D01*
X62482723Y32576366D01*
X62412972Y32622972D01*
X62366366Y32692723D01*
X62350000Y32775000D01*
X62350000Y33045000D01*
X62366366Y33127277D01*
X62412972Y33197028D01*
X62482723Y33243634D01*
X62565000Y33260000D01*
X62935000Y33260000D01*
X63017277Y33243634D01*
G37*
G36*
X77031354Y34526003D02*
G01*
X77190936Y34494260D01*
X77341259Y34431995D01*
X77476546Y34341599D01*
X77591599Y34226546D01*
X77681995Y34091259D01*
X77744260Y33940936D01*
X77776003Y33781354D01*
X77776003Y33618646D01*
X77744260Y33459064D01*
X77681995Y33308741D01*
X77591599Y33173454D01*
X77476546Y33058401D01*
X77341259Y32968005D01*
X77190936Y32905740D01*
X77031354Y32873997D01*
X76950000Y32870000D01*
X76948768Y32870000D01*
X76151232Y32870000D01*
X76150000Y32870000D01*
X76068646Y32873997D01*
X75909064Y32905740D01*
X75758741Y32968005D01*
X75623454Y33058401D01*
X75508401Y33173454D01*
X75418005Y33308741D01*
X75355740Y33459064D01*
X75323997Y33618646D01*
X75323997Y33781354D01*
X75355740Y33940936D01*
X75418005Y34091259D01*
X75508401Y34226546D01*
X75623454Y34341599D01*
X75758741Y34431995D01*
X75909064Y34494260D01*
X76068646Y34526003D01*
X76150000Y34530000D01*
X76950000Y34530000D01*
X77031354Y34526003D01*
G37*
G36*
X57485410Y35568756D02*
G01*
X57490800Y35566243D01*
X57493487Y35565851D01*
X57531689Y35547176D01*
X57589280Y35520320D01*
X57670320Y35439280D01*
X57697185Y35381667D01*
X57715850Y35343488D01*
X57716241Y35340803D01*
X57718756Y35335410D01*
X57730000Y35250000D01*
X57730000Y33250000D01*
X57718756Y33164590D01*
X57716240Y33159197D01*
X57715850Y33156513D01*
X57697195Y33118355D01*
X57670320Y33060720D01*
X57589280Y32979680D01*
X57531645Y32952805D01*
X57493487Y32934150D01*
X57490803Y32933760D01*
X57485410Y32931244D01*
X57400000Y32920000D01*
X56100000Y32920000D01*
X56014590Y32931244D01*
X56009197Y32933759D01*
X56006512Y32934150D01*
X55968333Y32952815D01*
X55910720Y32979680D01*
X55829680Y33060720D01*
X55802824Y33118311D01*
X55784149Y33156513D01*
X55783757Y33159200D01*
X55781244Y33164590D01*
X55770000Y33250000D01*
X55770000Y35250000D01*
X55781244Y35335410D01*
X55783757Y35340800D01*
X55784149Y35343488D01*
X55802834Y35381712D01*
X55829680Y35439280D01*
X55910720Y35520320D01*
X55968288Y35547166D01*
X56006512Y35565851D01*
X56009200Y35566243D01*
X56014590Y35568756D01*
X56100000Y35580000D01*
X57400000Y35580000D01*
X57485410Y35568756D01*
G37*
G36*
X61035410Y35568756D02*
G01*
X61040800Y35566243D01*
X61043487Y35565851D01*
X61081689Y35547176D01*
X61139280Y35520320D01*
X61220320Y35439280D01*
X61247185Y35381667D01*
X61265850Y35343488D01*
X61266241Y35340803D01*
X61268756Y35335410D01*
X61280000Y35250000D01*
X61280000Y33250000D01*
X61268756Y33164590D01*
X61266240Y33159197D01*
X61265850Y33156513D01*
X61247195Y33118355D01*
X61220320Y33060720D01*
X61139280Y32979680D01*
X61081645Y32952805D01*
X61043487Y32934150D01*
X61040803Y32933760D01*
X61035410Y32931244D01*
X60950000Y32920000D01*
X59650000Y32920000D01*
X59564590Y32931244D01*
X59559197Y32933759D01*
X59556512Y32934150D01*
X59518333Y32952815D01*
X59460720Y32979680D01*
X59379680Y33060720D01*
X59352824Y33118311D01*
X59334149Y33156513D01*
X59333757Y33159200D01*
X59331244Y33164590D01*
X59320000Y33250000D01*
X59320000Y35250000D01*
X59331244Y35335410D01*
X59333757Y35340800D01*
X59334149Y35343488D01*
X59352834Y35381712D01*
X59379680Y35439280D01*
X59460720Y35520320D01*
X59518288Y35547166D01*
X59556512Y35565851D01*
X59559200Y35566243D01*
X59564590Y35568756D01*
X59650000Y35580000D01*
X60950000Y35580000D01*
X61035410Y35568756D01*
G37*
G36*
X72107807Y38560315D02*
G01*
X72153562Y38507511D01*
X72164768Y38456000D01*
X72164768Y33704000D01*
X72145083Y33636961D01*
X72092279Y33591206D01*
X72040768Y33580000D01*
X72040764Y33580000D01*
X62849003Y33580000D01*
X62849000Y33580000D01*
X62781961Y33599685D01*
X62736206Y33652489D01*
X62736205Y33652490D01*
X62725001Y33703995D01*
X62725000Y33704004D01*
X62725000Y38455998D01*
X62725000Y38456000D01*
X62744685Y38523039D01*
X62797489Y38568794D01*
X62797489Y38568795D01*
X62848994Y38579999D01*
X62848996Y38580000D01*
X62849000Y38580000D01*
X72040768Y38580000D01*
X72107807Y38560315D01*
G37*
G36*
X38365984Y36619141D02*
G01*
X38521016Y36554925D01*
X38660541Y36461697D01*
X38779197Y36343041D01*
X38872425Y36203516D01*
X38936641Y36048484D01*
X38969378Y35883903D01*
X38969378Y35716097D01*
X38936641Y35551516D01*
X38872425Y35396484D01*
X38779197Y35256959D01*
X38660541Y35138303D01*
X38521016Y35045075D01*
X38365984Y34980859D01*
X38201403Y34948122D01*
X38033597Y34948122D01*
X37869016Y34980859D01*
X37713984Y35045075D01*
X37574459Y35138303D01*
X37455803Y35256959D01*
X37362575Y35396484D01*
X37298359Y35551516D01*
X37265622Y35716097D01*
X37265622Y35883903D01*
X37298359Y36048484D01*
X37362575Y36203516D01*
X37455803Y36343041D01*
X37574459Y36461697D01*
X37713984Y36554925D01*
X37869016Y36619141D01*
X38033597Y36651878D01*
X38201403Y36651878D01*
X38365984Y36619141D01*
G37*
G36*
X53605984Y36619141D02*
G01*
X53761016Y36554925D01*
X53900541Y36461697D01*
X54019197Y36343041D01*
X54112425Y36203516D01*
X54176641Y36048484D01*
X54209378Y35883903D01*
X54209378Y35716097D01*
X54176641Y35551516D01*
X54112425Y35396484D01*
X54019197Y35256959D01*
X53900541Y35138303D01*
X53761016Y35045075D01*
X53605984Y34980859D01*
X53441403Y34948122D01*
X53273597Y34948122D01*
X53109016Y34980859D01*
X52953984Y35045075D01*
X52814459Y35138303D01*
X52695803Y35256959D01*
X52602575Y35396484D01*
X52538359Y35551516D01*
X52505622Y35716097D01*
X52505622Y35883903D01*
X52538359Y36048484D01*
X52602575Y36203516D01*
X52695803Y36343041D01*
X52814459Y36461697D01*
X52953984Y36554925D01*
X53109016Y36619141D01*
X53273597Y36651878D01*
X53441403Y36651878D01*
X53605984Y36619141D01*
G37*
G36*
X24685410Y38468756D02*
G01*
X24690800Y38466243D01*
X24693487Y38465851D01*
X24731689Y38447176D01*
X24789280Y38420320D01*
X24870320Y38339280D01*
X24897185Y38281667D01*
X24915850Y38243488D01*
X24916241Y38240803D01*
X24918756Y38235410D01*
X24930000Y38150000D01*
X24930000Y36850000D01*
X24918756Y36764590D01*
X24916240Y36759197D01*
X24915850Y36756513D01*
X24897195Y36718355D01*
X24870320Y36660720D01*
X24789280Y36579680D01*
X24731645Y36552805D01*
X24693487Y36534150D01*
X24690803Y36533760D01*
X24685410Y36531244D01*
X24600000Y36520000D01*
X22600000Y36520000D01*
X22514590Y36531244D01*
X22509197Y36533759D01*
X22506512Y36534150D01*
X22468333Y36552815D01*
X22410720Y36579680D01*
X22329680Y36660720D01*
X22302824Y36718311D01*
X22284149Y36756513D01*
X22283757Y36759200D01*
X22281244Y36764590D01*
X22270000Y36850000D01*
X22270000Y38150000D01*
X22281244Y38235410D01*
X22283757Y38240800D01*
X22284149Y38243488D01*
X22302834Y38281712D01*
X22329680Y38339280D01*
X22410720Y38420320D01*
X22468288Y38447166D01*
X22506512Y38465851D01*
X22509200Y38466243D01*
X22514590Y38468756D01*
X22600000Y38480000D01*
X24600000Y38480000D01*
X24685410Y38468756D01*
G37*
G36*
X28685410Y38468756D02*
G01*
X28690800Y38466243D01*
X28693487Y38465851D01*
X28731689Y38447176D01*
X28789280Y38420320D01*
X28870320Y38339280D01*
X28897185Y38281667D01*
X28915850Y38243488D01*
X28916241Y38240803D01*
X28918756Y38235410D01*
X28930000Y38150000D01*
X28930000Y36850000D01*
X28918756Y36764590D01*
X28916240Y36759197D01*
X28915850Y36756513D01*
X28897195Y36718355D01*
X28870320Y36660720D01*
X28789280Y36579680D01*
X28731645Y36552805D01*
X28693487Y36534150D01*
X28690803Y36533760D01*
X28685410Y36531244D01*
X28600000Y36520000D01*
X26600000Y36520000D01*
X26514590Y36531244D01*
X26509197Y36533759D01*
X26506512Y36534150D01*
X26468333Y36552815D01*
X26410720Y36579680D01*
X26329680Y36660720D01*
X26302824Y36718311D01*
X26284149Y36756513D01*
X26283757Y36759200D01*
X26281244Y36764590D01*
X26270000Y36850000D01*
X26270000Y38150000D01*
X26281244Y38235410D01*
X26283757Y38240800D01*
X26284149Y38243488D01*
X26302834Y38281712D01*
X26329680Y38339280D01*
X26410720Y38420320D01*
X26468288Y38447166D01*
X26506512Y38465851D01*
X26509200Y38466243D01*
X26514590Y38468756D01*
X26600000Y38480000D01*
X28600000Y38480000D01*
X28685410Y38468756D01*
G37*
G36*
X12435410Y39258756D02*
G01*
X12440800Y39256243D01*
X12443487Y39255851D01*
X12481689Y39237176D01*
X12539280Y39210320D01*
X12620320Y39129280D01*
X12647185Y39071667D01*
X12665850Y39033488D01*
X12666241Y39030803D01*
X12668756Y39025410D01*
X12680000Y38940000D01*
X12680000Y37640000D01*
X12668756Y37554590D01*
X12666240Y37549197D01*
X12665850Y37546513D01*
X12647195Y37508355D01*
X12620320Y37450720D01*
X12539280Y37369680D01*
X12481645Y37342805D01*
X12443487Y37324150D01*
X12440803Y37323760D01*
X12435410Y37321244D01*
X12350000Y37310000D01*
X11700000Y37310000D01*
X11614590Y37321244D01*
X11609197Y37323759D01*
X11606512Y37324150D01*
X11568333Y37342815D01*
X11510720Y37369680D01*
X11429680Y37450720D01*
X11402824Y37508311D01*
X11384149Y37546513D01*
X11383757Y37549200D01*
X11381244Y37554590D01*
X11370000Y37640000D01*
X11370000Y38940000D01*
X11381244Y39025410D01*
X11383757Y39030800D01*
X11384149Y39033488D01*
X11402834Y39071712D01*
X11429680Y39129280D01*
X11510720Y39210320D01*
X11568288Y39237166D01*
X11606512Y39255851D01*
X11609200Y39256243D01*
X11614590Y39258756D01*
X11700000Y39270000D01*
X12350000Y39270000D01*
X12435410Y39258756D01*
G37*
G36*
X15385410Y39258756D02*
G01*
X15390800Y39256243D01*
X15393487Y39255851D01*
X15431689Y39237176D01*
X15489280Y39210320D01*
X15570320Y39129280D01*
X15597185Y39071667D01*
X15615850Y39033488D01*
X15616241Y39030803D01*
X15618756Y39025410D01*
X15630000Y38940000D01*
X15630000Y37640000D01*
X15618756Y37554590D01*
X15616240Y37549197D01*
X15615850Y37546513D01*
X15597195Y37508355D01*
X15570320Y37450720D01*
X15489280Y37369680D01*
X15431645Y37342805D01*
X15393487Y37324150D01*
X15390803Y37323760D01*
X15385410Y37321244D01*
X15300000Y37310000D01*
X14650000Y37310000D01*
X14564590Y37321244D01*
X14559197Y37323759D01*
X14556512Y37324150D01*
X14518333Y37342815D01*
X14460720Y37369680D01*
X14379680Y37450720D01*
X14352824Y37508311D01*
X14334149Y37546513D01*
X14333757Y37549200D01*
X14331244Y37554590D01*
X14320000Y37640000D01*
X14320000Y38940000D01*
X14331244Y39025410D01*
X14333757Y39030800D01*
X14334149Y39033488D01*
X14352834Y39071712D01*
X14379680Y39129280D01*
X14460720Y39210320D01*
X14518288Y39237166D01*
X14556512Y39255851D01*
X14559200Y39256243D01*
X14564590Y39258756D01*
X14650000Y39270000D01*
X15300000Y39270000D01*
X15385410Y39258756D01*
G37*
G36*
X32735410Y39368756D02*
G01*
X32740800Y39366243D01*
X32743487Y39365851D01*
X32781689Y39347176D01*
X32839280Y39320320D01*
X32920320Y39239280D01*
X32947185Y39181667D01*
X32965850Y39143488D01*
X32966241Y39140803D01*
X32968756Y39135410D01*
X32980000Y39050000D01*
X32980000Y37750000D01*
X32968756Y37664590D01*
X32966240Y37659197D01*
X32965850Y37656513D01*
X32947195Y37618355D01*
X32920320Y37560720D01*
X32839280Y37479680D01*
X32781645Y37452805D01*
X32743487Y37434150D01*
X32740803Y37433760D01*
X32735410Y37431244D01*
X32650000Y37420000D01*
X32000000Y37420000D01*
X31914590Y37431244D01*
X31909197Y37433759D01*
X31906512Y37434150D01*
X31868333Y37452815D01*
X31810720Y37479680D01*
X31729680Y37560720D01*
X31702824Y37618311D01*
X31684149Y37656513D01*
X31683757Y37659200D01*
X31681244Y37664590D01*
X31670000Y37750000D01*
X31670000Y39050000D01*
X31681244Y39135410D01*
X31683757Y39140800D01*
X31684149Y39143488D01*
X31702834Y39181712D01*
X31729680Y39239280D01*
X31810720Y39320320D01*
X31868288Y39347166D01*
X31906512Y39365851D01*
X31909200Y39366243D01*
X31914590Y39368756D01*
X32000000Y39380000D01*
X32650000Y39380000D01*
X32735410Y39368756D01*
G37*
G36*
X35685410Y39368756D02*
G01*
X35690800Y39366243D01*
X35693487Y39365851D01*
X35731689Y39347176D01*
X35789280Y39320320D01*
X35870320Y39239280D01*
X35897185Y39181667D01*
X35915850Y39143488D01*
X35916241Y39140803D01*
X35918756Y39135410D01*
X35930000Y39050000D01*
X35930000Y37750000D01*
X35918756Y37664590D01*
X35916240Y37659197D01*
X35915850Y37656513D01*
X35897195Y37618355D01*
X35870320Y37560720D01*
X35789280Y37479680D01*
X35731645Y37452805D01*
X35693487Y37434150D01*
X35690803Y37433760D01*
X35685410Y37431244D01*
X35600000Y37420000D01*
X34950000Y37420000D01*
X34864590Y37431244D01*
X34859197Y37433759D01*
X34856512Y37434150D01*
X34818333Y37452815D01*
X34760720Y37479680D01*
X34679680Y37560720D01*
X34652824Y37618311D01*
X34634149Y37656513D01*
X34633757Y37659200D01*
X34631244Y37664590D01*
X34620000Y37750000D01*
X34620000Y39050000D01*
X34631244Y39135410D01*
X34633757Y39140800D01*
X34634149Y39143488D01*
X34652834Y39181712D01*
X34679680Y39239280D01*
X34760720Y39320320D01*
X34818288Y39347166D01*
X34856512Y39365851D01*
X34859200Y39366243D01*
X34864590Y39368756D01*
X34950000Y39380000D01*
X35600000Y39380000D01*
X35685410Y39368756D01*
G37*
G36*
X38365984Y39159141D02*
G01*
X38521016Y39094925D01*
X38660541Y39001697D01*
X38779197Y38883041D01*
X38872425Y38743516D01*
X38936641Y38588484D01*
X38969378Y38423903D01*
X38969378Y38256097D01*
X38936641Y38091516D01*
X38872425Y37936484D01*
X38779197Y37796959D01*
X38660541Y37678303D01*
X38521016Y37585075D01*
X38365984Y37520859D01*
X38201403Y37488122D01*
X38033597Y37488122D01*
X37869016Y37520859D01*
X37713984Y37585075D01*
X37574459Y37678303D01*
X37455803Y37796959D01*
X37362575Y37936484D01*
X37298359Y38091516D01*
X37265622Y38256097D01*
X37265622Y38423903D01*
X37298359Y38588484D01*
X37362575Y38743516D01*
X37455803Y38883041D01*
X37574459Y39001697D01*
X37713984Y39094925D01*
X37869016Y39159141D01*
X38033597Y39191878D01*
X38201403Y39191878D01*
X38365984Y39159141D01*
G37*
G36*
X53605984Y39159141D02*
G01*
X53761016Y39094925D01*
X53900541Y39001697D01*
X54019197Y38883041D01*
X54112425Y38743516D01*
X54176641Y38588484D01*
X54209378Y38423903D01*
X54209378Y38256097D01*
X54176641Y38091516D01*
X54112425Y37936484D01*
X54019197Y37796959D01*
X53900541Y37678303D01*
X53761016Y37585075D01*
X53605984Y37520859D01*
X53441403Y37488122D01*
X53273597Y37488122D01*
X53109016Y37520859D01*
X52953984Y37585075D01*
X52814459Y37678303D01*
X52695803Y37796959D01*
X52602575Y37936484D01*
X52538359Y38091516D01*
X52505622Y38256097D01*
X52505622Y38423903D01*
X52538359Y38588484D01*
X52602575Y38743516D01*
X52695803Y38883041D01*
X52814459Y39001697D01*
X52953984Y39094925D01*
X53109016Y39159141D01*
X53273597Y39191878D01*
X53441403Y39191878D01*
X53605984Y39159141D01*
G37*
G36*
X24019830Y40546899D02*
G01*
X24028621Y40543018D01*
X24036352Y40541891D01*
X24084686Y40518262D01*
X24122367Y40501624D01*
X24125855Y40498136D01*
X24126826Y40497661D01*
X24197660Y40426827D01*
X24198134Y40425857D01*
X24201624Y40422367D01*
X24218264Y40384681D01*
X24241890Y40336354D01*
X24243016Y40328624D01*
X24246899Y40319830D01*
X24255000Y40250000D01*
X24255000Y39750000D01*
X24246899Y39680170D01*
X24243015Y39671376D01*
X24241890Y39663648D01*
X24218271Y39615336D01*
X24201624Y39577633D01*
X24198133Y39574143D01*
X24197660Y39573174D01*
X24126826Y39502340D01*
X24125857Y39501867D01*
X24122367Y39498376D01*
X24084669Y39481731D01*
X24036353Y39458110D01*
X24028623Y39456984D01*
X24019830Y39453101D01*
X23950000Y39445000D01*
X23500000Y39445000D01*
X23430170Y39453101D01*
X23421376Y39456984D01*
X23413647Y39458110D01*
X23365324Y39481734D01*
X23327633Y39498376D01*
X23324143Y39501866D01*
X23323173Y39502340D01*
X23252339Y39573174D01*
X23251864Y39574145D01*
X23248376Y39577633D01*
X23231740Y39615310D01*
X23208109Y39663647D01*
X23206982Y39671380D01*
X23203101Y39680170D01*
X23195000Y39750000D01*
X23195000Y40250000D01*
X23203101Y40319830D01*
X23206982Y40328621D01*
X23208109Y40336353D01*
X23231742Y40384697D01*
X23248376Y40422367D01*
X23251863Y40425855D01*
X23252339Y40426827D01*
X23323173Y40497661D01*
X23324145Y40498137D01*
X23327633Y40501624D01*
X23365298Y40518256D01*
X23413646Y40541891D01*
X23421379Y40543018D01*
X23430170Y40546899D01*
X23500000Y40555000D01*
X23950000Y40555000D01*
X24019830Y40546899D01*
G37*
G36*
X25569830Y40546899D02*
G01*
X25578621Y40543018D01*
X25586352Y40541891D01*
X25634686Y40518262D01*
X25672367Y40501624D01*
X25675855Y40498136D01*
X25676826Y40497661D01*
X25747660Y40426827D01*
X25748134Y40425857D01*
X25751624Y40422367D01*
X25768264Y40384681D01*
X25791890Y40336354D01*
X25793016Y40328624D01*
X25796899Y40319830D01*
X25805000Y40250000D01*
X25805000Y39750000D01*
X25796899Y39680170D01*
X25793015Y39671376D01*
X25791890Y39663648D01*
X25768271Y39615336D01*
X25751624Y39577633D01*
X25748133Y39574143D01*
X25747660Y39573174D01*
X25676826Y39502340D01*
X25675857Y39501867D01*
X25672367Y39498376D01*
X25634669Y39481731D01*
X25586353Y39458110D01*
X25578623Y39456984D01*
X25569830Y39453101D01*
X25500000Y39445000D01*
X25050000Y39445000D01*
X24980170Y39453101D01*
X24971376Y39456984D01*
X24963647Y39458110D01*
X24915324Y39481734D01*
X24877633Y39498376D01*
X24874143Y39501866D01*
X24873173Y39502340D01*
X24802339Y39573174D01*
X24801864Y39574145D01*
X24798376Y39577633D01*
X24781740Y39615310D01*
X24758109Y39663647D01*
X24756982Y39671380D01*
X24753101Y39680170D01*
X24745000Y39750000D01*
X24745000Y40250000D01*
X24753101Y40319830D01*
X24756982Y40328621D01*
X24758109Y40336353D01*
X24781742Y40384697D01*
X24798376Y40422367D01*
X24801863Y40425855D01*
X24802339Y40426827D01*
X24873173Y40497661D01*
X24874145Y40498137D01*
X24877633Y40501624D01*
X24915298Y40518256D01*
X24963646Y40541891D01*
X24971379Y40543018D01*
X24980170Y40546899D01*
X25050000Y40555000D01*
X25500000Y40555000D01*
X25569830Y40546899D01*
G37*
G36*
X13719830Y40796899D02*
G01*
X13728621Y40793018D01*
X13736352Y40791891D01*
X13784686Y40768262D01*
X13822367Y40751624D01*
X13825855Y40748136D01*
X13826826Y40747661D01*
X13897660Y40676827D01*
X13898134Y40675857D01*
X13901624Y40672367D01*
X13918264Y40634681D01*
X13941890Y40586354D01*
X13943016Y40578624D01*
X13946899Y40569830D01*
X13955000Y40500000D01*
X13955000Y40000000D01*
X13946899Y39930170D01*
X13943015Y39921376D01*
X13941890Y39913648D01*
X13918271Y39865336D01*
X13901624Y39827633D01*
X13898133Y39824143D01*
X13897660Y39823174D01*
X13826826Y39752340D01*
X13825857Y39751867D01*
X13822367Y39748376D01*
X13784669Y39731731D01*
X13736353Y39708110D01*
X13728623Y39706984D01*
X13719830Y39703101D01*
X13650000Y39695000D01*
X13200000Y39695000D01*
X13130170Y39703101D01*
X13121376Y39706984D01*
X13113647Y39708110D01*
X13065324Y39731734D01*
X13027633Y39748376D01*
X13024143Y39751866D01*
X13023173Y39752340D01*
X12952339Y39823174D01*
X12951864Y39824145D01*
X12948376Y39827633D01*
X12931740Y39865310D01*
X12908109Y39913647D01*
X12906982Y39921380D01*
X12903101Y39930170D01*
X12895000Y40000000D01*
X12895000Y40500000D01*
X12903101Y40569830D01*
X12906982Y40578621D01*
X12908109Y40586353D01*
X12931742Y40634697D01*
X12948376Y40672367D01*
X12951863Y40675855D01*
X12952339Y40676827D01*
X13023173Y40747661D01*
X13024145Y40748137D01*
X13027633Y40751624D01*
X13065298Y40768256D01*
X13113646Y40791891D01*
X13121379Y40793018D01*
X13130170Y40796899D01*
X13200000Y40805000D01*
X13650000Y40805000D01*
X13719830Y40796899D01*
G37*
G36*
X15269830Y40796899D02*
G01*
X15278621Y40793018D01*
X15286352Y40791891D01*
X15334686Y40768262D01*
X15372367Y40751624D01*
X15375855Y40748136D01*
X15376826Y40747661D01*
X15447660Y40676827D01*
X15448134Y40675857D01*
X15451624Y40672367D01*
X15468264Y40634681D01*
X15491890Y40586354D01*
X15493016Y40578624D01*
X15496899Y40569830D01*
X15505000Y40500000D01*
X15505000Y40000000D01*
X15496899Y39930170D01*
X15493015Y39921376D01*
X15491890Y39913648D01*
X15468271Y39865336D01*
X15451624Y39827633D01*
X15448133Y39824143D01*
X15447660Y39823174D01*
X15376826Y39752340D01*
X15375857Y39751867D01*
X15372367Y39748376D01*
X15334669Y39731731D01*
X15286353Y39708110D01*
X15278623Y39706984D01*
X15269830Y39703101D01*
X15200000Y39695000D01*
X14750000Y39695000D01*
X14680170Y39703101D01*
X14671376Y39706984D01*
X14663647Y39708110D01*
X14615324Y39731734D01*
X14577633Y39748376D01*
X14574143Y39751866D01*
X14573173Y39752340D01*
X14502339Y39823174D01*
X14501864Y39824145D01*
X14498376Y39827633D01*
X14481740Y39865310D01*
X14458109Y39913647D01*
X14456982Y39921380D01*
X14453101Y39930170D01*
X14445000Y40000000D01*
X14445000Y40500000D01*
X14453101Y40569830D01*
X14456982Y40578621D01*
X14458109Y40586353D01*
X14481742Y40634697D01*
X14498376Y40672367D01*
X14501863Y40675855D01*
X14502339Y40676827D01*
X14573173Y40747661D01*
X14574145Y40748137D01*
X14577633Y40751624D01*
X14615298Y40768256D01*
X14663646Y40791891D01*
X14671379Y40793018D01*
X14680170Y40796899D01*
X14750000Y40805000D01*
X15200000Y40805000D01*
X15269830Y40796899D01*
G37*
G36*
X32735410Y41660423D02*
G01*
X32740800Y41657910D01*
X32743487Y41657518D01*
X32781689Y41638843D01*
X32839280Y41611987D01*
X32920320Y41530947D01*
X32947185Y41473334D01*
X32965850Y41435155D01*
X32966241Y41432470D01*
X32968756Y41427077D01*
X32980000Y41341667D01*
X32980000Y40041667D01*
X32968756Y39956257D01*
X32966240Y39950864D01*
X32965850Y39948180D01*
X32947195Y39910022D01*
X32920320Y39852387D01*
X32839280Y39771347D01*
X32781645Y39744472D01*
X32743487Y39725817D01*
X32740803Y39725427D01*
X32735410Y39722911D01*
X32650000Y39711667D01*
X32000000Y39711667D01*
X31914590Y39722911D01*
X31909197Y39725426D01*
X31906512Y39725817D01*
X31868333Y39744482D01*
X31810720Y39771347D01*
X31729680Y39852387D01*
X31702824Y39909978D01*
X31684149Y39948180D01*
X31683757Y39950867D01*
X31681244Y39956257D01*
X31670000Y40041667D01*
X31670000Y41341667D01*
X31681244Y41427077D01*
X31683757Y41432467D01*
X31684149Y41435155D01*
X31702834Y41473379D01*
X31729680Y41530947D01*
X31810720Y41611987D01*
X31868288Y41638833D01*
X31906512Y41657518D01*
X31909200Y41657910D01*
X31914590Y41660423D01*
X32000000Y41671667D01*
X32650000Y41671667D01*
X32735410Y41660423D01*
G37*
G36*
X35685410Y41660423D02*
G01*
X35690800Y41657910D01*
X35693487Y41657518D01*
X35731689Y41638843D01*
X35789280Y41611987D01*
X35870320Y41530947D01*
X35897185Y41473334D01*
X35915850Y41435155D01*
X35916241Y41432470D01*
X35918756Y41427077D01*
X35930000Y41341667D01*
X35930000Y40041667D01*
X35918756Y39956257D01*
X35916240Y39950864D01*
X35915850Y39948180D01*
X35897195Y39910022D01*
X35870320Y39852387D01*
X35789280Y39771347D01*
X35731645Y39744472D01*
X35693487Y39725817D01*
X35690803Y39725427D01*
X35685410Y39722911D01*
X35600000Y39711667D01*
X34950000Y39711667D01*
X34864590Y39722911D01*
X34859197Y39725426D01*
X34856512Y39725817D01*
X34818333Y39744482D01*
X34760720Y39771347D01*
X34679680Y39852387D01*
X34652824Y39909978D01*
X34634149Y39948180D01*
X34633757Y39950867D01*
X34631244Y39956257D01*
X34620000Y40041667D01*
X34620000Y41341667D01*
X34631244Y41427077D01*
X34633757Y41432467D01*
X34634149Y41435155D01*
X34652834Y41473379D01*
X34679680Y41530947D01*
X34760720Y41611987D01*
X34818288Y41638833D01*
X34856512Y41657518D01*
X34859200Y41657910D01*
X34864590Y41660423D01*
X34950000Y41671667D01*
X35600000Y41671667D01*
X35685410Y41660423D01*
G37*
G36*
X38365984Y41699141D02*
G01*
X38521016Y41634925D01*
X38660541Y41541697D01*
X38779197Y41423041D01*
X38872425Y41283516D01*
X38936641Y41128484D01*
X38969378Y40963903D01*
X38969378Y40796097D01*
X38936641Y40631516D01*
X38872425Y40476484D01*
X38779197Y40336959D01*
X38660541Y40218303D01*
X38521016Y40125075D01*
X38365984Y40060859D01*
X38201403Y40028122D01*
X38033597Y40028122D01*
X37869016Y40060859D01*
X37713984Y40125075D01*
X37574459Y40218303D01*
X37455803Y40336959D01*
X37362575Y40476484D01*
X37298359Y40631516D01*
X37265622Y40796097D01*
X37265622Y40963903D01*
X37298359Y41128484D01*
X37362575Y41283516D01*
X37455803Y41423041D01*
X37574459Y41541697D01*
X37713984Y41634925D01*
X37869016Y41699141D01*
X38033597Y41731878D01*
X38201403Y41731878D01*
X38365984Y41699141D01*
G37*
G36*
X53605984Y41699141D02*
G01*
X53761016Y41634925D01*
X53900541Y41541697D01*
X54019197Y41423041D01*
X54112425Y41283516D01*
X54176641Y41128484D01*
X54209378Y40963903D01*
X54209378Y40796097D01*
X54176641Y40631516D01*
X54112425Y40476484D01*
X54019197Y40336959D01*
X53900541Y40218303D01*
X53761016Y40125075D01*
X53605984Y40060859D01*
X53441403Y40028122D01*
X53273597Y40028122D01*
X53109016Y40060859D01*
X52953984Y40125075D01*
X52814459Y40218303D01*
X52695803Y40336959D01*
X52602575Y40476484D01*
X52538359Y40631516D01*
X52505622Y40796097D01*
X52505622Y40963903D01*
X52538359Y41128484D01*
X52602575Y41283516D01*
X52695803Y41423041D01*
X52814459Y41541697D01*
X52953984Y41634925D01*
X53109016Y41699141D01*
X53273597Y41731878D01*
X53441403Y41731878D01*
X53605984Y41699141D01*
G37*
G36*
X59516933Y49461231D02*
G01*
X59524706Y49460000D01*
X59651000Y49460000D01*
X72076000Y49460000D01*
X72076003Y49460000D01*
X72134190Y49441094D01*
X72134189Y49441094D01*
X72134191Y49441093D01*
X72170155Y49391593D01*
X72175000Y49361000D01*
X72175000Y45564645D01*
X72156093Y45506454D01*
X72106593Y45470490D01*
X72076000Y45465645D01*
X72075998Y45465645D01*
X59579289Y45465645D01*
X59550000Y45436356D01*
X59550000Y44529289D01*
X59579289Y44500000D01*
X59651000Y44500000D01*
X72076000Y44500000D01*
X72076003Y44500000D01*
X72134190Y44481094D01*
X72134189Y44481094D01*
X72134191Y44481093D01*
X72170155Y44431593D01*
X72175000Y44401000D01*
X72175000Y40569000D01*
X72156093Y40510809D01*
X72106593Y40474845D01*
X72076000Y40470000D01*
X72075998Y40470000D01*
X59534718Y40470000D01*
X59527900Y40469057D01*
X59520128Y40466866D01*
X59520125Y40466864D01*
X59504638Y40465645D01*
X59504627Y40465645D01*
X55789003Y40465645D01*
X55789000Y40465645D01*
X55788997Y40465646D01*
X55788996Y40465646D01*
X55730809Y40484552D01*
X55694845Y40534052D01*
X55690000Y40564645D01*
X55690000Y49366645D01*
X55690000Y49366649D01*
X55708906Y49424835D01*
X55758407Y49460800D01*
X55789000Y49465645D01*
X59503348Y49465645D01*
X59503351Y49465645D01*
X59516933Y49461231D01*
G37*
G36*
X32735410Y44102089D02*
G01*
X32740800Y44099576D01*
X32743487Y44099184D01*
X32781689Y44080509D01*
X32839280Y44053653D01*
X32920320Y43972613D01*
X32947185Y43915000D01*
X32965850Y43876821D01*
X32966241Y43874136D01*
X32968756Y43868743D01*
X32980000Y43783333D01*
X32980000Y42483333D01*
X32968756Y42397923D01*
X32966240Y42392530D01*
X32965850Y42389846D01*
X32947195Y42351688D01*
X32920320Y42294053D01*
X32839280Y42213013D01*
X32781645Y42186138D01*
X32743487Y42167483D01*
X32740803Y42167093D01*
X32735410Y42164577D01*
X32650000Y42153333D01*
X32000000Y42153333D01*
X31914590Y42164577D01*
X31909197Y42167092D01*
X31906512Y42167483D01*
X31868333Y42186148D01*
X31810720Y42213013D01*
X31729680Y42294053D01*
X31702824Y42351644D01*
X31684149Y42389846D01*
X31683757Y42392533D01*
X31681244Y42397923D01*
X31670000Y42483333D01*
X31670000Y43783333D01*
X31681244Y43868743D01*
X31683757Y43874133D01*
X31684149Y43876821D01*
X31702834Y43915045D01*
X31729680Y43972613D01*
X31810720Y44053653D01*
X31868288Y44080499D01*
X31906512Y44099184D01*
X31909200Y44099576D01*
X31914590Y44102089D01*
X32000000Y44113333D01*
X32650000Y44113333D01*
X32735410Y44102089D01*
G37*
G36*
X35685410Y44102089D02*
G01*
X35690800Y44099576D01*
X35693487Y44099184D01*
X35731689Y44080509D01*
X35789280Y44053653D01*
X35870320Y43972613D01*
X35897185Y43915000D01*
X35915850Y43876821D01*
X35916241Y43874136D01*
X35918756Y43868743D01*
X35930000Y43783333D01*
X35930000Y42483333D01*
X35918756Y42397923D01*
X35916240Y42392530D01*
X35915850Y42389846D01*
X35897195Y42351688D01*
X35870320Y42294053D01*
X35789280Y42213013D01*
X35731645Y42186138D01*
X35693487Y42167483D01*
X35690803Y42167093D01*
X35685410Y42164577D01*
X35600000Y42153333D01*
X34950000Y42153333D01*
X34864590Y42164577D01*
X34859197Y42167092D01*
X34856512Y42167483D01*
X34818333Y42186148D01*
X34760720Y42213013D01*
X34679680Y42294053D01*
X34652824Y42351644D01*
X34634149Y42389846D01*
X34633757Y42392533D01*
X34631244Y42397923D01*
X34620000Y42483333D01*
X34620000Y43783333D01*
X34631244Y43868743D01*
X34633757Y43874133D01*
X34634149Y43876821D01*
X34652834Y43915045D01*
X34679680Y43972613D01*
X34760720Y44053653D01*
X34818288Y44080499D01*
X34856512Y44099184D01*
X34859200Y44099576D01*
X34864590Y44102089D01*
X34950000Y44113333D01*
X35600000Y44113333D01*
X35685410Y44102089D01*
G37*
G36*
X38365984Y44239141D02*
G01*
X38521016Y44174925D01*
X38660541Y44081697D01*
X38779197Y43963041D01*
X38872425Y43823516D01*
X38936641Y43668484D01*
X38969378Y43503903D01*
X38969378Y43336097D01*
X38936641Y43171516D01*
X38872425Y43016484D01*
X38779197Y42876959D01*
X38660541Y42758303D01*
X38521016Y42665075D01*
X38365984Y42600859D01*
X38201403Y42568122D01*
X38033597Y42568122D01*
X37869016Y42600859D01*
X37713984Y42665075D01*
X37574459Y42758303D01*
X37455803Y42876959D01*
X37362575Y43016484D01*
X37298359Y43171516D01*
X37265622Y43336097D01*
X37265622Y43503903D01*
X37298359Y43668484D01*
X37362575Y43823516D01*
X37455803Y43963041D01*
X37574459Y44081697D01*
X37713984Y44174925D01*
X37869016Y44239141D01*
X38033597Y44271878D01*
X38201403Y44271878D01*
X38365984Y44239141D01*
G37*
G36*
X53605984Y44239141D02*
G01*
X53761016Y44174925D01*
X53900541Y44081697D01*
X54019197Y43963041D01*
X54112425Y43823516D01*
X54176641Y43668484D01*
X54209378Y43503903D01*
X54209378Y43336097D01*
X54176641Y43171516D01*
X54112425Y43016484D01*
X54019197Y42876959D01*
X53900541Y42758303D01*
X53761016Y42665075D01*
X53605984Y42600859D01*
X53441403Y42568122D01*
X53273597Y42568122D01*
X53109016Y42600859D01*
X52953984Y42665075D01*
X52814459Y42758303D01*
X52695803Y42876959D01*
X52602575Y43016484D01*
X52538359Y43171516D01*
X52505622Y43336097D01*
X52505622Y43503903D01*
X52538359Y43668484D01*
X52602575Y43823516D01*
X52695803Y43963041D01*
X52814459Y44081697D01*
X52953984Y44174925D01*
X53109016Y44239141D01*
X53273597Y44271878D01*
X53441403Y44271878D01*
X53605984Y44239141D01*
G37*
G36*
X4465667Y48700721D02*
G01*
X4769603Y48631350D01*
X5063860Y48528385D01*
X5344739Y48393121D01*
X5608706Y48227259D01*
X5852443Y48032885D01*
X6072885Y47812443D01*
X6267259Y47568706D01*
X6433121Y47304739D01*
X6568385Y47023860D01*
X6671350Y46729603D01*
X6740721Y46425667D01*
X6775627Y46115876D01*
X6775627Y45804124D01*
X6740721Y45494333D01*
X6671350Y45190397D01*
X6568385Y44896140D01*
X6433121Y44615261D01*
X6267259Y44351294D01*
X6072885Y44107557D01*
X5852443Y43887115D01*
X5608706Y43692741D01*
X5344739Y43526879D01*
X5063860Y43391615D01*
X4769603Y43288650D01*
X4465667Y43219279D01*
X4155876Y43184373D01*
X3844124Y43184373D01*
X3534333Y43219279D01*
X3230397Y43288650D01*
X2936140Y43391615D01*
X2655261Y43526879D01*
X2391294Y43692741D01*
X2147557Y43887115D01*
X1927115Y44107557D01*
X1732741Y44351294D01*
X1566879Y44615261D01*
X1431615Y44896140D01*
X1328650Y45190397D01*
X1259279Y45494333D01*
X1224373Y45804124D01*
X1224373Y46115876D01*
X1259279Y46425667D01*
X1328650Y46729603D01*
X1431615Y47023860D01*
X1566879Y47304739D01*
X1732741Y47568706D01*
X1927115Y47812443D01*
X2147557Y48032885D01*
X2391294Y48227259D01*
X2655261Y48393121D01*
X2936140Y48528385D01*
X3230397Y48631350D01*
X3534333Y48700721D01*
X3844124Y48735627D01*
X4155876Y48735627D01*
X4465667Y48700721D01*
G37*
G36*
X76465667Y48700721D02*
G01*
X76769603Y48631350D01*
X77063860Y48528385D01*
X77344739Y48393121D01*
X77608706Y48227259D01*
X77852443Y48032885D01*
X78072885Y47812443D01*
X78267259Y47568706D01*
X78433121Y47304739D01*
X78568385Y47023860D01*
X78671350Y46729603D01*
X78740721Y46425667D01*
X78775627Y46115876D01*
X78775627Y45804124D01*
X78740721Y45494333D01*
X78671350Y45190397D01*
X78568385Y44896140D01*
X78433121Y44615261D01*
X78267259Y44351294D01*
X78072885Y44107557D01*
X77852443Y43887115D01*
X77608706Y43692741D01*
X77344739Y43526879D01*
X77063860Y43391615D01*
X76769603Y43288650D01*
X76465667Y43219279D01*
X76155876Y43184373D01*
X75844124Y43184373D01*
X75534333Y43219279D01*
X75230397Y43288650D01*
X74936140Y43391615D01*
X74655261Y43526879D01*
X74391294Y43692741D01*
X74147557Y43887115D01*
X73927115Y44107557D01*
X73732741Y44351294D01*
X73566879Y44615261D01*
X73431615Y44896140D01*
X73328650Y45190397D01*
X73259279Y45494333D01*
X73224373Y45804124D01*
X73224373Y46115876D01*
X73259279Y46425667D01*
X73328650Y46729603D01*
X73431615Y47023860D01*
X73566879Y47304739D01*
X73732741Y47568706D01*
X73927115Y47812443D01*
X74147557Y48032885D01*
X74391294Y48227259D01*
X74655261Y48393121D01*
X74936140Y48528385D01*
X75230397Y48631350D01*
X75534333Y48700721D01*
X75844124Y48735627D01*
X76155876Y48735627D01*
X76465667Y48700721D01*
G37*
G36*
X32735410Y46543756D02*
G01*
X32740800Y46541243D01*
X32743487Y46540851D01*
X32781689Y46522176D01*
X32839280Y46495320D01*
X32920320Y46414280D01*
X32947185Y46356667D01*
X32965850Y46318488D01*
X32966241Y46315803D01*
X32968756Y46310410D01*
X32980000Y46225000D01*
X32980000Y44925000D01*
X32968756Y44839590D01*
X32966240Y44834197D01*
X32965850Y44831513D01*
X32947195Y44793355D01*
X32920320Y44735720D01*
X32839280Y44654680D01*
X32781645Y44627805D01*
X32743487Y44609150D01*
X32740803Y44608760D01*
X32735410Y44606244D01*
X32650000Y44595000D01*
X32000000Y44595000D01*
X31914590Y44606244D01*
X31909197Y44608759D01*
X31906512Y44609150D01*
X31868333Y44627815D01*
X31810720Y44654680D01*
X31729680Y44735720D01*
X31702824Y44793311D01*
X31684149Y44831513D01*
X31683757Y44834200D01*
X31681244Y44839590D01*
X31670000Y44925000D01*
X31670000Y46225000D01*
X31681244Y46310410D01*
X31683757Y46315800D01*
X31684149Y46318488D01*
X31702834Y46356712D01*
X31729680Y46414280D01*
X31810720Y46495320D01*
X31868288Y46522166D01*
X31906512Y46540851D01*
X31909200Y46541243D01*
X31914590Y46543756D01*
X32000000Y46555000D01*
X32650000Y46555000D01*
X32735410Y46543756D01*
G37*
G36*
X35685410Y46543756D02*
G01*
X35690800Y46541243D01*
X35693487Y46540851D01*
X35731689Y46522176D01*
X35789280Y46495320D01*
X35870320Y46414280D01*
X35897185Y46356667D01*
X35915850Y46318488D01*
X35916241Y46315803D01*
X35918756Y46310410D01*
X35930000Y46225000D01*
X35930000Y44925000D01*
X35918756Y44839590D01*
X35916240Y44834197D01*
X35915850Y44831513D01*
X35897195Y44793355D01*
X35870320Y44735720D01*
X35789280Y44654680D01*
X35731645Y44627805D01*
X35693487Y44609150D01*
X35690803Y44608760D01*
X35685410Y44606244D01*
X35600000Y44595000D01*
X34950000Y44595000D01*
X34864590Y44606244D01*
X34859197Y44608759D01*
X34856512Y44609150D01*
X34818333Y44627815D01*
X34760720Y44654680D01*
X34679680Y44735720D01*
X34652824Y44793311D01*
X34634149Y44831513D01*
X34633757Y44834200D01*
X34631244Y44839590D01*
X34620000Y44925000D01*
X34620000Y46225000D01*
X34631244Y46310410D01*
X34633757Y46315800D01*
X34634149Y46318488D01*
X34652834Y46356712D01*
X34679680Y46414280D01*
X34760720Y46495320D01*
X34818288Y46522166D01*
X34856512Y46540851D01*
X34859200Y46541243D01*
X34864590Y46543756D01*
X34950000Y46555000D01*
X35600000Y46555000D01*
X35685410Y46543756D01*
G37*
G36*
X8790285Y46916940D02*
G01*
X8971397Y46841921D01*
X9134393Y46733010D01*
X9273010Y46594393D01*
X9381921Y46431397D01*
X9456940Y46250285D01*
X9495185Y46058017D01*
X9495185Y45861983D01*
X9456940Y45669715D01*
X9381921Y45488603D01*
X9273010Y45325607D01*
X9134393Y45186990D01*
X8971397Y45078079D01*
X8790285Y45003060D01*
X8598017Y44964815D01*
X8401983Y44964815D01*
X8209715Y45003060D01*
X8028603Y45078079D01*
X7865607Y45186990D01*
X7726990Y45325607D01*
X7618079Y45488603D01*
X7543060Y45669715D01*
X7504815Y45861983D01*
X7504815Y46058017D01*
X7543060Y46250285D01*
X7618079Y46431397D01*
X7726990Y46594393D01*
X7865607Y46733010D01*
X8028603Y46841921D01*
X8209715Y46916940D01*
X8401983Y46955185D01*
X8598017Y46955185D01*
X8790285Y46916940D01*
G37*
G36*
X38910534Y46808236D02*
G01*
X38943625Y46786125D01*
X38965736Y46753034D01*
X38973500Y46714000D01*
X38973500Y45206000D01*
X38965736Y45166966D01*
X38943625Y45133875D01*
X38910534Y45111764D01*
X38871500Y45104000D01*
X37363500Y45104000D01*
X37324466Y45111764D01*
X37291375Y45133875D01*
X37269264Y45166966D01*
X37261500Y45206000D01*
X37261500Y46714000D01*
X37269264Y46753034D01*
X37291375Y46786125D01*
X37324466Y46808236D01*
X37363500Y46816000D01*
X38871500Y46816000D01*
X38910534Y46808236D01*
G37*
G36*
X53605984Y46779141D02*
G01*
X53761016Y46714925D01*
X53900541Y46621697D01*
X54019197Y46503041D01*
X54112425Y46363516D01*
X54176641Y46208484D01*
X54209378Y46043903D01*
X54209378Y45876097D01*
X54176641Y45711516D01*
X54112425Y45556484D01*
X54019197Y45416959D01*
X53900541Y45298303D01*
X53761016Y45205075D01*
X53605984Y45140859D01*
X53441403Y45108122D01*
X53273597Y45108122D01*
X53109016Y45140859D01*
X52953984Y45205075D01*
X52814459Y45298303D01*
X52695803Y45416959D01*
X52602575Y45556484D01*
X52538359Y45711516D01*
X52505622Y45876097D01*
X52505622Y46043903D01*
X52538359Y46208484D01*
X52602575Y46363516D01*
X52695803Y46503041D01*
X52814459Y46621697D01*
X52953984Y46714925D01*
X53109016Y46779141D01*
X53273597Y46811878D01*
X53441403Y46811878D01*
X53605984Y46779141D01*
G37*
G36*
X15170733Y48235191D02*
G01*
X15320929Y48172977D01*
X15456102Y48082658D01*
X15571058Y47967702D01*
X15661377Y47832529D01*
X15723591Y47682333D01*
X15755307Y47522886D01*
X15755307Y47360314D01*
X15723591Y47200867D01*
X15661377Y47050671D01*
X15571058Y46915498D01*
X15456102Y46800542D01*
X15320929Y46710223D01*
X15170733Y46648009D01*
X15011286Y46616293D01*
X14848714Y46616293D01*
X14689267Y46648009D01*
X14539071Y46710223D01*
X14403898Y46800542D01*
X14288942Y46915498D01*
X14198623Y47050671D01*
X14136409Y47200867D01*
X14104693Y47360314D01*
X14104693Y47522886D01*
X14136409Y47682333D01*
X14198623Y47832529D01*
X14288942Y47967702D01*
X14403898Y48082658D01*
X14539071Y48172977D01*
X14689267Y48235191D01*
X14848714Y48266907D01*
X15011286Y48266907D01*
X15170733Y48235191D01*
G37*
G36*
X17710733Y48235191D02*
G01*
X17860929Y48172977D01*
X17996102Y48082658D01*
X18111058Y47967702D01*
X18201377Y47832529D01*
X18263591Y47682333D01*
X18295307Y47522886D01*
X18295307Y47360314D01*
X18263591Y47200867D01*
X18201377Y47050671D01*
X18111058Y46915498D01*
X17996102Y46800542D01*
X17860929Y46710223D01*
X17710733Y46648009D01*
X17551286Y46616293D01*
X17388714Y46616293D01*
X17229267Y46648009D01*
X17079071Y46710223D01*
X16943898Y46800542D01*
X16828942Y46915498D01*
X16738623Y47050671D01*
X16676409Y47200867D01*
X16644693Y47360314D01*
X16644693Y47522886D01*
X16676409Y47682333D01*
X16738623Y47832529D01*
X16828942Y47967702D01*
X16943898Y48082658D01*
X17079071Y48172977D01*
X17229267Y48235191D01*
X17388714Y48266907D01*
X17551286Y48266907D01*
X17710733Y48235191D01*
G37*
G36*
X22790733Y48235191D02*
G01*
X22940929Y48172977D01*
X23076102Y48082658D01*
X23191058Y47967702D01*
X23281377Y47832529D01*
X23343591Y47682333D01*
X23375307Y47522886D01*
X23375307Y47360314D01*
X23343591Y47200867D01*
X23281377Y47050671D01*
X23191058Y46915498D01*
X23076102Y46800542D01*
X22940929Y46710223D01*
X22790733Y46648009D01*
X22631286Y46616293D01*
X22468714Y46616293D01*
X22309267Y46648009D01*
X22159071Y46710223D01*
X22023898Y46800542D01*
X21908942Y46915498D01*
X21818623Y47050671D01*
X21756409Y47200867D01*
X21724693Y47360314D01*
X21724693Y47522886D01*
X21756409Y47682333D01*
X21818623Y47832529D01*
X21908942Y47967702D01*
X22023898Y48082658D01*
X22159071Y48172977D01*
X22309267Y48235191D01*
X22468714Y48266907D01*
X22631286Y48266907D01*
X22790733Y48235191D01*
G37*
G36*
X27870733Y48235191D02*
G01*
X28020929Y48172977D01*
X28156102Y48082658D01*
X28271058Y47967702D01*
X28361377Y47832529D01*
X28423591Y47682333D01*
X28455307Y47522886D01*
X28455307Y47360314D01*
X28423591Y47200867D01*
X28361377Y47050671D01*
X28271058Y46915498D01*
X28156102Y46800542D01*
X28020929Y46710223D01*
X27870733Y46648009D01*
X27711286Y46616293D01*
X27548714Y46616293D01*
X27389267Y46648009D01*
X27239071Y46710223D01*
X27103898Y46800542D01*
X26988942Y46915498D01*
X26898623Y47050671D01*
X26836409Y47200867D01*
X26804693Y47360314D01*
X26804693Y47522886D01*
X26836409Y47682333D01*
X26898623Y47832529D01*
X26988942Y47967702D01*
X27103898Y48082658D01*
X27239071Y48172977D01*
X27389267Y48235191D01*
X27548714Y48266907D01*
X27711286Y48266907D01*
X27870733Y48235191D01*
G37*
M02*
