%TF.GenerationSoftware,KiCad,Pcbnew,10.0.1*%
%TF.CreationDate,2026-05-27T15:10:58+02:00*%
%TF.ProjectId,Open_PSU_Meter_ESP32,4f70656e-5f50-4535-955f-4d657465725f,rev?*%
%TF.SameCoordinates,Original*%
%TF.FileFunction,Soldermask,Bot*%
%TF.FilePolarity,Negative*%
%FSLAX46Y46*%
G04 Gerber Fmt 4.6, Leading zero omitted, Abs format (unit mm)*
G04 Created by KiCad (PCBNEW 10.0.1) date 2026-05-27 15:10:58*
%MOMM*%
%LPD*%
G01*
G04 APERTURE LIST*
G04 APERTURE END LIST*
G36*
X4465667Y6700721D02*
G01*
X4769603Y6631350D01*
X5063860Y6528385D01*
X5344739Y6393121D01*
X5608706Y6227259D01*
X5852443Y6032885D01*
X6072885Y5812443D01*
X6267259Y5568706D01*
X6433121Y5304739D01*
X6568385Y5023860D01*
X6671350Y4729603D01*
X6740721Y4425667D01*
X6775627Y4115876D01*
X6775627Y3804124D01*
X6740721Y3494333D01*
X6671350Y3190397D01*
X6568385Y2896140D01*
X6433121Y2615261D01*
X6267259Y2351294D01*
X6072885Y2107557D01*
X5852443Y1887115D01*
X5608706Y1692741D01*
X5344739Y1526879D01*
X5063860Y1391615D01*
X4769603Y1288650D01*
X4465667Y1219279D01*
X4155876Y1184373D01*
X3844124Y1184373D01*
X3534333Y1219279D01*
X3230397Y1288650D01*
X2936140Y1391615D01*
X2655261Y1526879D01*
X2391294Y1692741D01*
X2147557Y1887115D01*
X1927115Y2107557D01*
X1732741Y2351294D01*
X1566879Y2615261D01*
X1431615Y2896140D01*
X1328650Y3190397D01*
X1259279Y3494333D01*
X1224373Y3804124D01*
X1224373Y4115876D01*
X1259279Y4425667D01*
X1328650Y4729603D01*
X1431615Y5023860D01*
X1566879Y5304739D01*
X1732741Y5568706D01*
X1927115Y5812443D01*
X2147557Y6032885D01*
X2391294Y6227259D01*
X2655261Y6393121D01*
X2936140Y6528385D01*
X3230397Y6631350D01*
X3534333Y6700721D01*
X3844124Y6735627D01*
X4155876Y6735627D01*
X4465667Y6700721D01*
G37*
G36*
X76465667Y6700721D02*
G01*
X76769603Y6631350D01*
X77063860Y6528385D01*
X77344739Y6393121D01*
X77608706Y6227259D01*
X77852443Y6032885D01*
X78072885Y5812443D01*
X78267259Y5568706D01*
X78433121Y5304739D01*
X78568385Y5023860D01*
X78671350Y4729603D01*
X78740721Y4425667D01*
X78775627Y4115876D01*
X78775627Y3804124D01*
X78740721Y3494333D01*
X78671350Y3190397D01*
X78568385Y2896140D01*
X78433121Y2615261D01*
X78267259Y2351294D01*
X78072885Y2107557D01*
X77852443Y1887115D01*
X77608706Y1692741D01*
X77344739Y1526879D01*
X77063860Y1391615D01*
X76769603Y1288650D01*
X76465667Y1219279D01*
X76155876Y1184373D01*
X75844124Y1184373D01*
X75534333Y1219279D01*
X75230397Y1288650D01*
X74936140Y1391615D01*
X74655261Y1526879D01*
X74391294Y1692741D01*
X74147557Y1887115D01*
X73927115Y2107557D01*
X73732741Y2351294D01*
X73566879Y2615261D01*
X73431615Y2896140D01*
X73328650Y3190397D01*
X73259279Y3494333D01*
X73224373Y3804124D01*
X73224373Y4115876D01*
X73259279Y4425667D01*
X73328650Y4729603D01*
X73431615Y5023860D01*
X73566879Y5304739D01*
X73732741Y5568706D01*
X73927115Y5812443D01*
X74147557Y6032885D01*
X74391294Y6227259D01*
X74655261Y6393121D01*
X74936140Y6528385D01*
X75230397Y6631350D01*
X75534333Y6700721D01*
X75844124Y6735627D01*
X76155876Y6735627D01*
X76465667Y6700721D01*
G37*
G36*
X3161457Y21303981D02*
G01*
X3282008Y21280002D01*
X3395566Y21232965D01*
X3497765Y21164678D01*
X3584678Y21077765D01*
X3652965Y20975566D01*
X3700002Y20862008D01*
X3723981Y20741457D01*
X3723981Y20618543D01*
X3700002Y20497992D01*
X3652965Y20384434D01*
X3584678Y20282235D01*
X3497765Y20195322D01*
X3395566Y20127035D01*
X3282008Y20079998D01*
X3161457Y20056019D01*
X3100000Y20053000D01*
X3098768Y20053000D01*
X2301232Y20053000D01*
X2300000Y20053000D01*
X2238543Y20056019D01*
X2117992Y20079998D01*
X2004434Y20127035D01*
X1902235Y20195322D01*
X1815322Y20282235D01*
X1747035Y20384434D01*
X1699998Y20497992D01*
X1676019Y20618543D01*
X1676019Y20741457D01*
X1699998Y20862008D01*
X1747035Y20975566D01*
X1815322Y21077765D01*
X1902235Y21164678D01*
X2004434Y21232965D01*
X2117992Y21280002D01*
X2238543Y21303981D01*
X2300000Y21307000D01*
X3100000Y21307000D01*
X3161457Y21303981D01*
G37*
G36*
X7461457Y21303981D02*
G01*
X7582008Y21280002D01*
X7695566Y21232965D01*
X7797765Y21164678D01*
X7884678Y21077765D01*
X7952965Y20975566D01*
X8000002Y20862008D01*
X8023981Y20741457D01*
X8023981Y20618543D01*
X8000002Y20497992D01*
X7952965Y20384434D01*
X7884678Y20282235D01*
X7797765Y20195322D01*
X7695566Y20127035D01*
X7582008Y20079998D01*
X7461457Y20056019D01*
X7400000Y20053000D01*
X7398768Y20053000D01*
X6301232Y20053000D01*
X6300000Y20053000D01*
X6238543Y20056019D01*
X6117992Y20079998D01*
X6004434Y20127035D01*
X5902235Y20195322D01*
X5815322Y20282235D01*
X5747035Y20384434D01*
X5699998Y20497992D01*
X5676019Y20618543D01*
X5676019Y20741457D01*
X5699998Y20862008D01*
X5747035Y20975566D01*
X5815322Y21077765D01*
X5902235Y21164678D01*
X6004434Y21232965D01*
X6117992Y21280002D01*
X6238543Y21303981D01*
X6300000Y21307000D01*
X7400000Y21307000D01*
X7461457Y21303981D01*
G37*
G36*
X30070615Y22698910D02*
G01*
X30096569Y22681569D01*
X30113910Y22655615D01*
X30120000Y22625000D01*
X30120000Y20925000D01*
X30113910Y20894385D01*
X30096569Y20868431D01*
X30070615Y20851090D01*
X30040000Y20845000D01*
X28340000Y20845000D01*
X28309385Y20851090D01*
X28283431Y20868431D01*
X28266090Y20894385D01*
X28260000Y20925000D01*
X28260000Y22625000D01*
X28266090Y22655615D01*
X28283431Y22681569D01*
X28309385Y22698910D01*
X28340000Y22705000D01*
X30040000Y22705000D01*
X30070615Y22698910D01*
G37*
G36*
X31999965Y22664955D02*
G01*
X32168399Y22595187D01*
X32319986Y22493900D01*
X32448900Y22364986D01*
X32550187Y22213399D01*
X32619955Y22044965D01*
X32655522Y21866156D01*
X32655522Y21683844D01*
X32619955Y21505035D01*
X32550187Y21336601D01*
X32448900Y21185014D01*
X32319986Y21056100D01*
X32168399Y20954813D01*
X31999965Y20885045D01*
X31821156Y20849478D01*
X31638844Y20849478D01*
X31460035Y20885045D01*
X31291601Y20954813D01*
X31140014Y21056100D01*
X31011100Y21185014D01*
X30909813Y21336601D01*
X30840045Y21505035D01*
X30804478Y21683844D01*
X30804478Y21866156D01*
X30840045Y22044965D01*
X30909813Y22213399D01*
X31011100Y22364986D01*
X31140014Y22493900D01*
X31291601Y22595187D01*
X31460035Y22664955D01*
X31638844Y22700522D01*
X31821156Y22700522D01*
X31999965Y22664955D01*
G37*
G36*
X34539965Y22664955D02*
G01*
X34708399Y22595187D01*
X34859986Y22493900D01*
X34988900Y22364986D01*
X35090187Y22213399D01*
X35159955Y22044965D01*
X35195522Y21866156D01*
X35195522Y21683844D01*
X35159955Y21505035D01*
X35090187Y21336601D01*
X34988900Y21185014D01*
X34859986Y21056100D01*
X34708399Y20954813D01*
X34539965Y20885045D01*
X34361156Y20849478D01*
X34178844Y20849478D01*
X34000035Y20885045D01*
X33831601Y20954813D01*
X33680014Y21056100D01*
X33551100Y21185014D01*
X33449813Y21336601D01*
X33380045Y21505035D01*
X33344478Y21683844D01*
X33344478Y21866156D01*
X33380045Y22044965D01*
X33449813Y22213399D01*
X33551100Y22364986D01*
X33680014Y22493900D01*
X33831601Y22595187D01*
X34000035Y22664955D01*
X34178844Y22700522D01*
X34361156Y22700522D01*
X34539965Y22664955D01*
G37*
G36*
X37079965Y22664955D02*
G01*
X37248399Y22595187D01*
X37399986Y22493900D01*
X37528900Y22364986D01*
X37630187Y22213399D01*
X37699955Y22044965D01*
X37735522Y21866156D01*
X37735522Y21683844D01*
X37699955Y21505035D01*
X37630187Y21336601D01*
X37528900Y21185014D01*
X37399986Y21056100D01*
X37248399Y20954813D01*
X37079965Y20885045D01*
X36901156Y20849478D01*
X36718844Y20849478D01*
X36540035Y20885045D01*
X36371601Y20954813D01*
X36220014Y21056100D01*
X36091100Y21185014D01*
X35989813Y21336601D01*
X35920045Y21505035D01*
X35884478Y21683844D01*
X35884478Y21866156D01*
X35920045Y22044965D01*
X35989813Y22213399D01*
X36091100Y22364986D01*
X36220014Y22493900D01*
X36371601Y22595187D01*
X36540035Y22664955D01*
X36718844Y22700522D01*
X36901156Y22700522D01*
X37079965Y22664955D01*
G37*
G36*
X6514554Y22507268D02*
G01*
X6611767Y22451142D01*
X6691142Y22371767D01*
X6747268Y22274554D01*
X6776321Y22166126D01*
X6776321Y22053874D01*
X6747268Y21945446D01*
X6691142Y21848233D01*
X6611767Y21768858D01*
X6514554Y21712732D01*
X6406126Y21683679D01*
X6293874Y21683679D01*
X6185446Y21712732D01*
X6088233Y21768858D01*
X6008858Y21848233D01*
X5952732Y21945446D01*
X5923679Y22053874D01*
X5923679Y22166126D01*
X5952732Y22274554D01*
X6008858Y22371767D01*
X6088233Y22451142D01*
X6185446Y22507268D01*
X6293874Y22536321D01*
X6406126Y22536321D01*
X6514554Y22507268D01*
G37*
G36*
X77031354Y24126003D02*
G01*
X77190936Y24094260D01*
X77341259Y24031995D01*
X77476546Y23941599D01*
X77591599Y23826546D01*
X77681995Y23691259D01*
X77744260Y23540936D01*
X77776003Y23381354D01*
X77776003Y23218646D01*
X77744260Y23059064D01*
X77681995Y22908741D01*
X77591599Y22773454D01*
X77476546Y22658401D01*
X77341259Y22568005D01*
X77190936Y22505740D01*
X77031354Y22473997D01*
X76950000Y22470000D01*
X76948768Y22470000D01*
X76151232Y22470000D01*
X76150000Y22470000D01*
X76068646Y22473997D01*
X75909064Y22505740D01*
X75758741Y22568005D01*
X75623454Y22658401D01*
X75508401Y22773454D01*
X75418005Y22908741D01*
X75355740Y23059064D01*
X75323997Y23218646D01*
X75323997Y23381354D01*
X75355740Y23540936D01*
X75418005Y23691259D01*
X75508401Y23826546D01*
X75623454Y23941599D01*
X75758741Y24031995D01*
X75909064Y24094260D01*
X76068646Y24126003D01*
X76150000Y24130000D01*
X76950000Y24130000D01*
X77031354Y24126003D01*
G37*
G36*
X38365984Y26459141D02*
G01*
X38521016Y26394925D01*
X38660541Y26301697D01*
X38779197Y26183041D01*
X38872425Y26043516D01*
X38936641Y25888484D01*
X38969378Y25723903D01*
X38969378Y25556097D01*
X38936641Y25391516D01*
X38872425Y25236484D01*
X38779197Y25096959D01*
X38660541Y24978303D01*
X38521016Y24885075D01*
X38365984Y24820859D01*
X38201403Y24788122D01*
X38033597Y24788122D01*
X37869016Y24820859D01*
X37713984Y24885075D01*
X37574459Y24978303D01*
X37455803Y25096959D01*
X37362575Y25236484D01*
X37298359Y25391516D01*
X37265622Y25556097D01*
X37265622Y25723903D01*
X37298359Y25888484D01*
X37362575Y26043516D01*
X37455803Y26183041D01*
X37574459Y26301697D01*
X37713984Y26394925D01*
X37869016Y26459141D01*
X38033597Y26491878D01*
X38201403Y26491878D01*
X38365984Y26459141D01*
G37*
G36*
X53605984Y26459141D02*
G01*
X53761016Y26394925D01*
X53900541Y26301697D01*
X54019197Y26183041D01*
X54112425Y26043516D01*
X54176641Y25888484D01*
X54209378Y25723903D01*
X54209378Y25556097D01*
X54176641Y25391516D01*
X54112425Y25236484D01*
X54019197Y25096959D01*
X53900541Y24978303D01*
X53761016Y24885075D01*
X53605984Y24820859D01*
X53441403Y24788122D01*
X53273597Y24788122D01*
X53109016Y24820859D01*
X52953984Y24885075D01*
X52814459Y24978303D01*
X52695803Y25096959D01*
X52602575Y25236484D01*
X52538359Y25391516D01*
X52505622Y25556097D01*
X52505622Y25723903D01*
X52538359Y25888484D01*
X52602575Y26043516D01*
X52695803Y26183041D01*
X52814459Y26301697D01*
X52953984Y26394925D01*
X53109016Y26459141D01*
X53273597Y26491878D01*
X53441403Y26491878D01*
X53605984Y26459141D01*
G37*
G36*
X75594420Y27305744D02*
G01*
X75746916Y27242578D01*
X75884159Y27150875D01*
X76000875Y27034159D01*
X76092578Y26896916D01*
X76155744Y26744420D01*
X76187946Y26582530D01*
X76187946Y26417470D01*
X76155744Y26255580D01*
X76092578Y26103084D01*
X76000875Y25965841D01*
X75884159Y25849125D01*
X75746916Y25757422D01*
X75594420Y25694256D01*
X75432530Y25662054D01*
X75267470Y25662054D01*
X75105580Y25694256D01*
X74953084Y25757422D01*
X74815841Y25849125D01*
X74699125Y25965841D01*
X74607422Y26103084D01*
X74544256Y26255580D01*
X74512054Y26417470D01*
X74512054Y26582530D01*
X74544256Y26744420D01*
X74607422Y26896916D01*
X74699125Y27034159D01*
X74815841Y27150875D01*
X74953084Y27242578D01*
X75105580Y27305744D01*
X75267470Y27337946D01*
X75432530Y27337946D01*
X75594420Y27305744D01*
G37*
G36*
X77994420Y27305744D02*
G01*
X78146916Y27242578D01*
X78284159Y27150875D01*
X78400875Y27034159D01*
X78492578Y26896916D01*
X78555744Y26744420D01*
X78587946Y26582530D01*
X78587946Y26417470D01*
X78555744Y26255580D01*
X78492578Y26103084D01*
X78400875Y25965841D01*
X78284159Y25849125D01*
X78146916Y25757422D01*
X77994420Y25694256D01*
X77832530Y25662054D01*
X77667470Y25662054D01*
X77505580Y25694256D01*
X77353084Y25757422D01*
X77215841Y25849125D01*
X77099125Y25965841D01*
X77007422Y26103084D01*
X76944256Y26255580D01*
X76912054Y26417470D01*
X76912054Y26582530D01*
X76944256Y26744420D01*
X77007422Y26896916D01*
X77099125Y27034159D01*
X77215841Y27150875D01*
X77353084Y27242578D01*
X77505580Y27305744D01*
X77667470Y27337946D01*
X77832530Y27337946D01*
X77994420Y27305744D01*
G37*
G36*
X38365984Y28999141D02*
G01*
X38521016Y28934925D01*
X38660541Y28841697D01*
X38779197Y28723041D01*
X38872425Y28583516D01*
X38936641Y28428484D01*
X38969378Y28263903D01*
X38969378Y28096097D01*
X38936641Y27931516D01*
X38872425Y27776484D01*
X38779197Y27636959D01*
X38660541Y27518303D01*
X38521016Y27425075D01*
X38365984Y27360859D01*
X38201403Y27328122D01*
X38033597Y27328122D01*
X37869016Y27360859D01*
X37713984Y27425075D01*
X37574459Y27518303D01*
X37455803Y27636959D01*
X37362575Y27776484D01*
X37298359Y27931516D01*
X37265622Y28096097D01*
X37265622Y28263903D01*
X37298359Y28428484D01*
X37362575Y28583516D01*
X37455803Y28723041D01*
X37574459Y28841697D01*
X37713984Y28934925D01*
X37869016Y28999141D01*
X38033597Y29031878D01*
X38201403Y29031878D01*
X38365984Y28999141D01*
G37*
G36*
X53605984Y28999141D02*
G01*
X53761016Y28934925D01*
X53900541Y28841697D01*
X54019197Y28723041D01*
X54112425Y28583516D01*
X54176641Y28428484D01*
X54209378Y28263903D01*
X54209378Y28096097D01*
X54176641Y27931516D01*
X54112425Y27776484D01*
X54019197Y27636959D01*
X53900541Y27518303D01*
X53761016Y27425075D01*
X53605984Y27360859D01*
X53441403Y27328122D01*
X53273597Y27328122D01*
X53109016Y27360859D01*
X52953984Y27425075D01*
X52814459Y27518303D01*
X52695803Y27636959D01*
X52602575Y27776484D01*
X52538359Y27931516D01*
X52505622Y28096097D01*
X52505622Y28263903D01*
X52538359Y28428484D01*
X52602575Y28583516D01*
X52695803Y28723041D01*
X52814459Y28841697D01*
X52953984Y28934925D01*
X53109016Y28999141D01*
X53273597Y29031878D01*
X53441403Y29031878D01*
X53605984Y28999141D01*
G37*
G36*
X6514554Y28287268D02*
G01*
X6611767Y28231142D01*
X6691142Y28151767D01*
X6747268Y28054554D01*
X6776321Y27946126D01*
X6776321Y27833874D01*
X6747268Y27725446D01*
X6691142Y27628233D01*
X6611767Y27548858D01*
X6514554Y27492732D01*
X6406126Y27463679D01*
X6293874Y27463679D01*
X6185446Y27492732D01*
X6088233Y27548858D01*
X6008858Y27628233D01*
X5952732Y27725446D01*
X5923679Y27833874D01*
X5923679Y27946126D01*
X5952732Y28054554D01*
X6008858Y28151767D01*
X6088233Y28231142D01*
X6185446Y28287268D01*
X6293874Y28316321D01*
X6406126Y28316321D01*
X6514554Y28287268D01*
G37*
G36*
X75594420Y29305744D02*
G01*
X75746916Y29242578D01*
X75884159Y29150875D01*
X76000875Y29034159D01*
X76092578Y28896916D01*
X76155744Y28744420D01*
X76187946Y28582530D01*
X76187946Y28417470D01*
X76155744Y28255580D01*
X76092578Y28103084D01*
X76000875Y27965841D01*
X75884159Y27849125D01*
X75746916Y27757422D01*
X75594420Y27694256D01*
X75432530Y27662054D01*
X75267470Y27662054D01*
X75105580Y27694256D01*
X74953084Y27757422D01*
X74815841Y27849125D01*
X74699125Y27965841D01*
X74607422Y28103084D01*
X74544256Y28255580D01*
X74512054Y28417470D01*
X74512054Y28582530D01*
X74544256Y28744420D01*
X74607422Y28896916D01*
X74699125Y29034159D01*
X74815841Y29150875D01*
X74953084Y29242578D01*
X75105580Y29305744D01*
X75267470Y29337946D01*
X75432530Y29337946D01*
X75594420Y29305744D01*
G37*
G36*
X77994420Y29305744D02*
G01*
X78146916Y29242578D01*
X78284159Y29150875D01*
X78400875Y29034159D01*
X78492578Y28896916D01*
X78555744Y28744420D01*
X78587946Y28582530D01*
X78587946Y28417470D01*
X78555744Y28255580D01*
X78492578Y28103084D01*
X78400875Y27965841D01*
X78284159Y27849125D01*
X78146916Y27757422D01*
X77994420Y27694256D01*
X77832530Y27662054D01*
X77667470Y27662054D01*
X77505580Y27694256D01*
X77353084Y27757422D01*
X77215841Y27849125D01*
X77099125Y27965841D01*
X77007422Y28103084D01*
X76944256Y28255580D01*
X76912054Y28417470D01*
X76912054Y28582530D01*
X76944256Y28744420D01*
X77007422Y28896916D01*
X77099125Y29034159D01*
X77215841Y29150875D01*
X77353084Y29242578D01*
X77505580Y29305744D01*
X77667470Y29337946D01*
X77832530Y29337946D01*
X77994420Y29305744D01*
G37*
G36*
X3161457Y29943981D02*
G01*
X3282008Y29920002D01*
X3395566Y29872965D01*
X3497765Y29804678D01*
X3584678Y29717765D01*
X3652965Y29615566D01*
X3700002Y29502008D01*
X3723981Y29381457D01*
X3723981Y29258543D01*
X3700002Y29137992D01*
X3652965Y29024434D01*
X3584678Y28922235D01*
X3497765Y28835322D01*
X3395566Y28767035D01*
X3282008Y28719998D01*
X3161457Y28696019D01*
X3100000Y28693000D01*
X3098768Y28693000D01*
X2301232Y28693000D01*
X2300000Y28693000D01*
X2238543Y28696019D01*
X2117992Y28719998D01*
X2004434Y28767035D01*
X1902235Y28835322D01*
X1815322Y28922235D01*
X1747035Y29024434D01*
X1699998Y29137992D01*
X1676019Y29258543D01*
X1676019Y29381457D01*
X1699998Y29502008D01*
X1747035Y29615566D01*
X1815322Y29717765D01*
X1902235Y29804678D01*
X2004434Y29872965D01*
X2117992Y29920002D01*
X2238543Y29943981D01*
X2300000Y29947000D01*
X3100000Y29947000D01*
X3161457Y29943981D01*
G37*
G36*
X7461457Y29943981D02*
G01*
X7582008Y29920002D01*
X7695566Y29872965D01*
X7797765Y29804678D01*
X7884678Y29717765D01*
X7952965Y29615566D01*
X8000002Y29502008D01*
X8023981Y29381457D01*
X8023981Y29258543D01*
X8000002Y29137992D01*
X7952965Y29024434D01*
X7884678Y28922235D01*
X7797765Y28835322D01*
X7695566Y28767035D01*
X7582008Y28719998D01*
X7461457Y28696019D01*
X7400000Y28693000D01*
X7398768Y28693000D01*
X6301232Y28693000D01*
X6300000Y28693000D01*
X6238543Y28696019D01*
X6117992Y28719998D01*
X6004434Y28767035D01*
X5902235Y28835322D01*
X5815322Y28922235D01*
X5747035Y29024434D01*
X5699998Y29137992D01*
X5676019Y29258543D01*
X5676019Y29381457D01*
X5699998Y29502008D01*
X5747035Y29615566D01*
X5815322Y29717765D01*
X5902235Y29804678D01*
X6004434Y29872965D01*
X6117992Y29920002D01*
X6238543Y29943981D01*
X6300000Y29947000D01*
X7400000Y29947000D01*
X7461457Y29943981D01*
G37*
G36*
X75594420Y31305744D02*
G01*
X75746916Y31242578D01*
X75884159Y31150875D01*
X76000875Y31034159D01*
X76092578Y30896916D01*
X76155744Y30744420D01*
X76187946Y30582530D01*
X76187946Y30417470D01*
X76155744Y30255580D01*
X76092578Y30103084D01*
X76000875Y29965841D01*
X75884159Y29849125D01*
X75746916Y29757422D01*
X75594420Y29694256D01*
X75432530Y29662054D01*
X75267470Y29662054D01*
X75105580Y29694256D01*
X74953084Y29757422D01*
X74815841Y29849125D01*
X74699125Y29965841D01*
X74607422Y30103084D01*
X74544256Y30255580D01*
X74512054Y30417470D01*
X74512054Y30582530D01*
X74544256Y30744420D01*
X74607422Y30896916D01*
X74699125Y31034159D01*
X74815841Y31150875D01*
X74953084Y31242578D01*
X75105580Y31305744D01*
X75267470Y31337946D01*
X75432530Y31337946D01*
X75594420Y31305744D01*
G37*
G36*
X77994420Y31305744D02*
G01*
X78146916Y31242578D01*
X78284159Y31150875D01*
X78400875Y31034159D01*
X78492578Y30896916D01*
X78555744Y30744420D01*
X78587946Y30582530D01*
X78587946Y30417470D01*
X78555744Y30255580D01*
X78492578Y30103084D01*
X78400875Y29965841D01*
X78284159Y29849125D01*
X78146916Y29757422D01*
X77994420Y29694256D01*
X77832530Y29662054D01*
X77667470Y29662054D01*
X77505580Y29694256D01*
X77353084Y29757422D01*
X77215841Y29849125D01*
X77099125Y29965841D01*
X77007422Y30103084D01*
X76944256Y30255580D01*
X76912054Y30417470D01*
X76912054Y30582530D01*
X76944256Y30744420D01*
X77007422Y30896916D01*
X77099125Y31034159D01*
X77215841Y31150875D01*
X77353084Y31242578D01*
X77505580Y31305744D01*
X77667470Y31337946D01*
X77832530Y31337946D01*
X77994420Y31305744D01*
G37*
G36*
X38365984Y31539141D02*
G01*
X38521016Y31474925D01*
X38660541Y31381697D01*
X38779197Y31263041D01*
X38872425Y31123516D01*
X38936641Y30968484D01*
X38969378Y30803903D01*
X38969378Y30636097D01*
X38936641Y30471516D01*
X38872425Y30316484D01*
X38779197Y30176959D01*
X38660541Y30058303D01*
X38521016Y29965075D01*
X38365984Y29900859D01*
X38201403Y29868122D01*
X38033597Y29868122D01*
X37869016Y29900859D01*
X37713984Y29965075D01*
X37574459Y30058303D01*
X37455803Y30176959D01*
X37362575Y30316484D01*
X37298359Y30471516D01*
X37265622Y30636097D01*
X37265622Y30803903D01*
X37298359Y30968484D01*
X37362575Y31123516D01*
X37455803Y31263041D01*
X37574459Y31381697D01*
X37713984Y31474925D01*
X37869016Y31539141D01*
X38033597Y31571878D01*
X38201403Y31571878D01*
X38365984Y31539141D01*
G37*
G36*
X53605984Y31539141D02*
G01*
X53761016Y31474925D01*
X53900541Y31381697D01*
X54019197Y31263041D01*
X54112425Y31123516D01*
X54176641Y30968484D01*
X54209378Y30803903D01*
X54209378Y30636097D01*
X54176641Y30471516D01*
X54112425Y30316484D01*
X54019197Y30176959D01*
X53900541Y30058303D01*
X53761016Y29965075D01*
X53605984Y29900859D01*
X53441403Y29868122D01*
X53273597Y29868122D01*
X53109016Y29900859D01*
X52953984Y29965075D01*
X52814459Y30058303D01*
X52695803Y30176959D01*
X52602575Y30316484D01*
X52538359Y30471516D01*
X52505622Y30636097D01*
X52505622Y30803903D01*
X52538359Y30968484D01*
X52602575Y31123516D01*
X52695803Y31263041D01*
X52814459Y31381697D01*
X52953984Y31474925D01*
X53109016Y31539141D01*
X53273597Y31571878D01*
X53441403Y31571878D01*
X53605984Y31539141D01*
G37*
G36*
X38365984Y34079141D02*
G01*
X38521016Y34014925D01*
X38660541Y33921697D01*
X38779197Y33803041D01*
X38872425Y33663516D01*
X38936641Y33508484D01*
X38969378Y33343903D01*
X38969378Y33176097D01*
X38936641Y33011516D01*
X38872425Y32856484D01*
X38779197Y32716959D01*
X38660541Y32598303D01*
X38521016Y32505075D01*
X38365984Y32440859D01*
X38201403Y32408122D01*
X38033597Y32408122D01*
X37869016Y32440859D01*
X37713984Y32505075D01*
X37574459Y32598303D01*
X37455803Y32716959D01*
X37362575Y32856484D01*
X37298359Y33011516D01*
X37265622Y33176097D01*
X37265622Y33343903D01*
X37298359Y33508484D01*
X37362575Y33663516D01*
X37455803Y33803041D01*
X37574459Y33921697D01*
X37713984Y34014925D01*
X37869016Y34079141D01*
X38033597Y34111878D01*
X38201403Y34111878D01*
X38365984Y34079141D01*
G37*
G36*
X53605984Y34079141D02*
G01*
X53761016Y34014925D01*
X53900541Y33921697D01*
X54019197Y33803041D01*
X54112425Y33663516D01*
X54176641Y33508484D01*
X54209378Y33343903D01*
X54209378Y33176097D01*
X54176641Y33011516D01*
X54112425Y32856484D01*
X54019197Y32716959D01*
X53900541Y32598303D01*
X53761016Y32505075D01*
X53605984Y32440859D01*
X53441403Y32408122D01*
X53273597Y32408122D01*
X53109016Y32440859D01*
X52953984Y32505075D01*
X52814459Y32598303D01*
X52695803Y32716959D01*
X52602575Y32856484D01*
X52538359Y33011516D01*
X52505622Y33176097D01*
X52505622Y33343903D01*
X52538359Y33508484D01*
X52602575Y33663516D01*
X52695803Y33803041D01*
X52814459Y33921697D01*
X52953984Y34014925D01*
X53109016Y34079141D01*
X53273597Y34111878D01*
X53441403Y34111878D01*
X53605984Y34079141D01*
G37*
G36*
X77031354Y34526003D02*
G01*
X77190936Y34494260D01*
X77341259Y34431995D01*
X77476546Y34341599D01*
X77591599Y34226546D01*
X77681995Y34091259D01*
X77744260Y33940936D01*
X77776003Y33781354D01*
X77776003Y33618646D01*
X77744260Y33459064D01*
X77681995Y33308741D01*
X77591599Y33173454D01*
X77476546Y33058401D01*
X77341259Y32968005D01*
X77190936Y32905740D01*
X77031354Y32873997D01*
X76950000Y32870000D01*
X76948768Y32870000D01*
X76151232Y32870000D01*
X76150000Y32870000D01*
X76068646Y32873997D01*
X75909064Y32905740D01*
X75758741Y32968005D01*
X75623454Y33058401D01*
X75508401Y33173454D01*
X75418005Y33308741D01*
X75355740Y33459064D01*
X75323997Y33618646D01*
X75323997Y33781354D01*
X75355740Y33940936D01*
X75418005Y34091259D01*
X75508401Y34226546D01*
X75623454Y34341599D01*
X75758741Y34431995D01*
X75909064Y34494260D01*
X76068646Y34526003D01*
X76150000Y34530000D01*
X76950000Y34530000D01*
X77031354Y34526003D01*
G37*
G36*
X38365984Y36619141D02*
G01*
X38521016Y36554925D01*
X38660541Y36461697D01*
X38779197Y36343041D01*
X38872425Y36203516D01*
X38936641Y36048484D01*
X38969378Y35883903D01*
X38969378Y35716097D01*
X38936641Y35551516D01*
X38872425Y35396484D01*
X38779197Y35256959D01*
X38660541Y35138303D01*
X38521016Y35045075D01*
X38365984Y34980859D01*
X38201403Y34948122D01*
X38033597Y34948122D01*
X37869016Y34980859D01*
X37713984Y35045075D01*
X37574459Y35138303D01*
X37455803Y35256959D01*
X37362575Y35396484D01*
X37298359Y35551516D01*
X37265622Y35716097D01*
X37265622Y35883903D01*
X37298359Y36048484D01*
X37362575Y36203516D01*
X37455803Y36343041D01*
X37574459Y36461697D01*
X37713984Y36554925D01*
X37869016Y36619141D01*
X38033597Y36651878D01*
X38201403Y36651878D01*
X38365984Y36619141D01*
G37*
G36*
X53605984Y36619141D02*
G01*
X53761016Y36554925D01*
X53900541Y36461697D01*
X54019197Y36343041D01*
X54112425Y36203516D01*
X54176641Y36048484D01*
X54209378Y35883903D01*
X54209378Y35716097D01*
X54176641Y35551516D01*
X54112425Y35396484D01*
X54019197Y35256959D01*
X53900541Y35138303D01*
X53761016Y35045075D01*
X53605984Y34980859D01*
X53441403Y34948122D01*
X53273597Y34948122D01*
X53109016Y34980859D01*
X52953984Y35045075D01*
X52814459Y35138303D01*
X52695803Y35256959D01*
X52602575Y35396484D01*
X52538359Y35551516D01*
X52505622Y35716097D01*
X52505622Y35883903D01*
X52538359Y36048484D01*
X52602575Y36203516D01*
X52695803Y36343041D01*
X52814459Y36461697D01*
X52953984Y36554925D01*
X53109016Y36619141D01*
X53273597Y36651878D01*
X53441403Y36651878D01*
X53605984Y36619141D01*
G37*
G36*
X38365984Y39159141D02*
G01*
X38521016Y39094925D01*
X38660541Y39001697D01*
X38779197Y38883041D01*
X38872425Y38743516D01*
X38936641Y38588484D01*
X38969378Y38423903D01*
X38969378Y38256097D01*
X38936641Y38091516D01*
X38872425Y37936484D01*
X38779197Y37796959D01*
X38660541Y37678303D01*
X38521016Y37585075D01*
X38365984Y37520859D01*
X38201403Y37488122D01*
X38033597Y37488122D01*
X37869016Y37520859D01*
X37713984Y37585075D01*
X37574459Y37678303D01*
X37455803Y37796959D01*
X37362575Y37936484D01*
X37298359Y38091516D01*
X37265622Y38256097D01*
X37265622Y38423903D01*
X37298359Y38588484D01*
X37362575Y38743516D01*
X37455803Y38883041D01*
X37574459Y39001697D01*
X37713984Y39094925D01*
X37869016Y39159141D01*
X38033597Y39191878D01*
X38201403Y39191878D01*
X38365984Y39159141D01*
G37*
G36*
X53605984Y39159141D02*
G01*
X53761016Y39094925D01*
X53900541Y39001697D01*
X54019197Y38883041D01*
X54112425Y38743516D01*
X54176641Y38588484D01*
X54209378Y38423903D01*
X54209378Y38256097D01*
X54176641Y38091516D01*
X54112425Y37936484D01*
X54019197Y37796959D01*
X53900541Y37678303D01*
X53761016Y37585075D01*
X53605984Y37520859D01*
X53441403Y37488122D01*
X53273597Y37488122D01*
X53109016Y37520859D01*
X52953984Y37585075D01*
X52814459Y37678303D01*
X52695803Y37796959D01*
X52602575Y37936484D01*
X52538359Y38091516D01*
X52505622Y38256097D01*
X52505622Y38423903D01*
X52538359Y38588484D01*
X52602575Y38743516D01*
X52695803Y38883041D01*
X52814459Y39001697D01*
X52953984Y39094925D01*
X53109016Y39159141D01*
X53273597Y39191878D01*
X53441403Y39191878D01*
X53605984Y39159141D01*
G37*
G36*
X38365984Y41699141D02*
G01*
X38521016Y41634925D01*
X38660541Y41541697D01*
X38779197Y41423041D01*
X38872425Y41283516D01*
X38936641Y41128484D01*
X38969378Y40963903D01*
X38969378Y40796097D01*
X38936641Y40631516D01*
X38872425Y40476484D01*
X38779197Y40336959D01*
X38660541Y40218303D01*
X38521016Y40125075D01*
X38365984Y40060859D01*
X38201403Y40028122D01*
X38033597Y40028122D01*
X37869016Y40060859D01*
X37713984Y40125075D01*
X37574459Y40218303D01*
X37455803Y40336959D01*
X37362575Y40476484D01*
X37298359Y40631516D01*
X37265622Y40796097D01*
X37265622Y40963903D01*
X37298359Y41128484D01*
X37362575Y41283516D01*
X37455803Y41423041D01*
X37574459Y41541697D01*
X37713984Y41634925D01*
X37869016Y41699141D01*
X38033597Y41731878D01*
X38201403Y41731878D01*
X38365984Y41699141D01*
G37*
G36*
X53605984Y41699141D02*
G01*
X53761016Y41634925D01*
X53900541Y41541697D01*
X54019197Y41423041D01*
X54112425Y41283516D01*
X54176641Y41128484D01*
X54209378Y40963903D01*
X54209378Y40796097D01*
X54176641Y40631516D01*
X54112425Y40476484D01*
X54019197Y40336959D01*
X53900541Y40218303D01*
X53761016Y40125075D01*
X53605984Y40060859D01*
X53441403Y40028122D01*
X53273597Y40028122D01*
X53109016Y40060859D01*
X52953984Y40125075D01*
X52814459Y40218303D01*
X52695803Y40336959D01*
X52602575Y40476484D01*
X52538359Y40631516D01*
X52505622Y40796097D01*
X52505622Y40963903D01*
X52538359Y41128484D01*
X52602575Y41283516D01*
X52695803Y41423041D01*
X52814459Y41541697D01*
X52953984Y41634925D01*
X53109016Y41699141D01*
X53273597Y41731878D01*
X53441403Y41731878D01*
X53605984Y41699141D01*
G37*
G36*
X38365984Y44239141D02*
G01*
X38521016Y44174925D01*
X38660541Y44081697D01*
X38779197Y43963041D01*
X38872425Y43823516D01*
X38936641Y43668484D01*
X38969378Y43503903D01*
X38969378Y43336097D01*
X38936641Y43171516D01*
X38872425Y43016484D01*
X38779197Y42876959D01*
X38660541Y42758303D01*
X38521016Y42665075D01*
X38365984Y42600859D01*
X38201403Y42568122D01*
X38033597Y42568122D01*
X37869016Y42600859D01*
X37713984Y42665075D01*
X37574459Y42758303D01*
X37455803Y42876959D01*
X37362575Y43016484D01*
X37298359Y43171516D01*
X37265622Y43336097D01*
X37265622Y43503903D01*
X37298359Y43668484D01*
X37362575Y43823516D01*
X37455803Y43963041D01*
X37574459Y44081697D01*
X37713984Y44174925D01*
X37869016Y44239141D01*
X38033597Y44271878D01*
X38201403Y44271878D01*
X38365984Y44239141D01*
G37*
G36*
X53605984Y44239141D02*
G01*
X53761016Y44174925D01*
X53900541Y44081697D01*
X54019197Y43963041D01*
X54112425Y43823516D01*
X54176641Y43668484D01*
X54209378Y43503903D01*
X54209378Y43336097D01*
X54176641Y43171516D01*
X54112425Y43016484D01*
X54019197Y42876959D01*
X53900541Y42758303D01*
X53761016Y42665075D01*
X53605984Y42600859D01*
X53441403Y42568122D01*
X53273597Y42568122D01*
X53109016Y42600859D01*
X52953984Y42665075D01*
X52814459Y42758303D01*
X52695803Y42876959D01*
X52602575Y43016484D01*
X52538359Y43171516D01*
X52505622Y43336097D01*
X52505622Y43503903D01*
X52538359Y43668484D01*
X52602575Y43823516D01*
X52695803Y43963041D01*
X52814459Y44081697D01*
X52953984Y44174925D01*
X53109016Y44239141D01*
X53273597Y44271878D01*
X53441403Y44271878D01*
X53605984Y44239141D01*
G37*
G36*
X4465667Y48700721D02*
G01*
X4769603Y48631350D01*
X5063860Y48528385D01*
X5344739Y48393121D01*
X5608706Y48227259D01*
X5852443Y48032885D01*
X6072885Y47812443D01*
X6267259Y47568706D01*
X6433121Y47304739D01*
X6568385Y47023860D01*
X6671350Y46729603D01*
X6740721Y46425667D01*
X6775627Y46115876D01*
X6775627Y45804124D01*
X6740721Y45494333D01*
X6671350Y45190397D01*
X6568385Y44896140D01*
X6433121Y44615261D01*
X6267259Y44351294D01*
X6072885Y44107557D01*
X5852443Y43887115D01*
X5608706Y43692741D01*
X5344739Y43526879D01*
X5063860Y43391615D01*
X4769603Y43288650D01*
X4465667Y43219279D01*
X4155876Y43184373D01*
X3844124Y43184373D01*
X3534333Y43219279D01*
X3230397Y43288650D01*
X2936140Y43391615D01*
X2655261Y43526879D01*
X2391294Y43692741D01*
X2147557Y43887115D01*
X1927115Y44107557D01*
X1732741Y44351294D01*
X1566879Y44615261D01*
X1431615Y44896140D01*
X1328650Y45190397D01*
X1259279Y45494333D01*
X1224373Y45804124D01*
X1224373Y46115876D01*
X1259279Y46425667D01*
X1328650Y46729603D01*
X1431615Y47023860D01*
X1566879Y47304739D01*
X1732741Y47568706D01*
X1927115Y47812443D01*
X2147557Y48032885D01*
X2391294Y48227259D01*
X2655261Y48393121D01*
X2936140Y48528385D01*
X3230397Y48631350D01*
X3534333Y48700721D01*
X3844124Y48735627D01*
X4155876Y48735627D01*
X4465667Y48700721D01*
G37*
G36*
X76465667Y48700721D02*
G01*
X76769603Y48631350D01*
X77063860Y48528385D01*
X77344739Y48393121D01*
X77608706Y48227259D01*
X77852443Y48032885D01*
X78072885Y47812443D01*
X78267259Y47568706D01*
X78433121Y47304739D01*
X78568385Y47023860D01*
X78671350Y46729603D01*
X78740721Y46425667D01*
X78775627Y46115876D01*
X78775627Y45804124D01*
X78740721Y45494333D01*
X78671350Y45190397D01*
X78568385Y44896140D01*
X78433121Y44615261D01*
X78267259Y44351294D01*
X78072885Y44107557D01*
X77852443Y43887115D01*
X77608706Y43692741D01*
X77344739Y43526879D01*
X77063860Y43391615D01*
X76769603Y43288650D01*
X76465667Y43219279D01*
X76155876Y43184373D01*
X75844124Y43184373D01*
X75534333Y43219279D01*
X75230397Y43288650D01*
X74936140Y43391615D01*
X74655261Y43526879D01*
X74391294Y43692741D01*
X74147557Y43887115D01*
X73927115Y44107557D01*
X73732741Y44351294D01*
X73566879Y44615261D01*
X73431615Y44896140D01*
X73328650Y45190397D01*
X73259279Y45494333D01*
X73224373Y45804124D01*
X73224373Y46115876D01*
X73259279Y46425667D01*
X73328650Y46729603D01*
X73431615Y47023860D01*
X73566879Y47304739D01*
X73732741Y47568706D01*
X73927115Y47812443D01*
X74147557Y48032885D01*
X74391294Y48227259D01*
X74655261Y48393121D01*
X74936140Y48528385D01*
X75230397Y48631350D01*
X75534333Y48700721D01*
X75844124Y48735627D01*
X76155876Y48735627D01*
X76465667Y48700721D01*
G37*
G36*
X38910534Y46808236D02*
G01*
X38943625Y46786125D01*
X38965736Y46753034D01*
X38973500Y46714000D01*
X38973500Y45206000D01*
X38965736Y45166966D01*
X38943625Y45133875D01*
X38910534Y45111764D01*
X38871500Y45104000D01*
X37363500Y45104000D01*
X37324466Y45111764D01*
X37291375Y45133875D01*
X37269264Y45166966D01*
X37261500Y45206000D01*
X37261500Y46714000D01*
X37269264Y46753034D01*
X37291375Y46786125D01*
X37324466Y46808236D01*
X37363500Y46816000D01*
X38871500Y46816000D01*
X38910534Y46808236D01*
G37*
G36*
X53605984Y46779141D02*
G01*
X53761016Y46714925D01*
X53900541Y46621697D01*
X54019197Y46503041D01*
X54112425Y46363516D01*
X54176641Y46208484D01*
X54209378Y46043903D01*
X54209378Y45876097D01*
X54176641Y45711516D01*
X54112425Y45556484D01*
X54019197Y45416959D01*
X53900541Y45298303D01*
X53761016Y45205075D01*
X53605984Y45140859D01*
X53441403Y45108122D01*
X53273597Y45108122D01*
X53109016Y45140859D01*
X52953984Y45205075D01*
X52814459Y45298303D01*
X52695803Y45416959D01*
X52602575Y45556484D01*
X52538359Y45711516D01*
X52505622Y45876097D01*
X52505622Y46043903D01*
X52538359Y46208484D01*
X52602575Y46363516D01*
X52695803Y46503041D01*
X52814459Y46621697D01*
X52953984Y46714925D01*
X53109016Y46779141D01*
X53273597Y46811878D01*
X53441403Y46811878D01*
X53605984Y46779141D01*
G37*
G36*
X15170733Y48235191D02*
G01*
X15320929Y48172977D01*
X15456102Y48082658D01*
X15571058Y47967702D01*
X15661377Y47832529D01*
X15723591Y47682333D01*
X15755307Y47522886D01*
X15755307Y47360314D01*
X15723591Y47200867D01*
X15661377Y47050671D01*
X15571058Y46915498D01*
X15456102Y46800542D01*
X15320929Y46710223D01*
X15170733Y46648009D01*
X15011286Y46616293D01*
X14848714Y46616293D01*
X14689267Y46648009D01*
X14539071Y46710223D01*
X14403898Y46800542D01*
X14288942Y46915498D01*
X14198623Y47050671D01*
X14136409Y47200867D01*
X14104693Y47360314D01*
X14104693Y47522886D01*
X14136409Y47682333D01*
X14198623Y47832529D01*
X14288942Y47967702D01*
X14403898Y48082658D01*
X14539071Y48172977D01*
X14689267Y48235191D01*
X14848714Y48266907D01*
X15011286Y48266907D01*
X15170733Y48235191D01*
G37*
G36*
X17710733Y48235191D02*
G01*
X17860929Y48172977D01*
X17996102Y48082658D01*
X18111058Y47967702D01*
X18201377Y47832529D01*
X18263591Y47682333D01*
X18295307Y47522886D01*
X18295307Y47360314D01*
X18263591Y47200867D01*
X18201377Y47050671D01*
X18111058Y46915498D01*
X17996102Y46800542D01*
X17860929Y46710223D01*
X17710733Y46648009D01*
X17551286Y46616293D01*
X17388714Y46616293D01*
X17229267Y46648009D01*
X17079071Y46710223D01*
X16943898Y46800542D01*
X16828942Y46915498D01*
X16738623Y47050671D01*
X16676409Y47200867D01*
X16644693Y47360314D01*
X16644693Y47522886D01*
X16676409Y47682333D01*
X16738623Y47832529D01*
X16828942Y47967702D01*
X16943898Y48082658D01*
X17079071Y48172977D01*
X17229267Y48235191D01*
X17388714Y48266907D01*
X17551286Y48266907D01*
X17710733Y48235191D01*
G37*
G36*
X22790733Y48235191D02*
G01*
X22940929Y48172977D01*
X23076102Y48082658D01*
X23191058Y47967702D01*
X23281377Y47832529D01*
X23343591Y47682333D01*
X23375307Y47522886D01*
X23375307Y47360314D01*
X23343591Y47200867D01*
X23281377Y47050671D01*
X23191058Y46915498D01*
X23076102Y46800542D01*
X22940929Y46710223D01*
X22790733Y46648009D01*
X22631286Y46616293D01*
X22468714Y46616293D01*
X22309267Y46648009D01*
X22159071Y46710223D01*
X22023898Y46800542D01*
X21908942Y46915498D01*
X21818623Y47050671D01*
X21756409Y47200867D01*
X21724693Y47360314D01*
X21724693Y47522886D01*
X21756409Y47682333D01*
X21818623Y47832529D01*
X21908942Y47967702D01*
X22023898Y48082658D01*
X22159071Y48172977D01*
X22309267Y48235191D01*
X22468714Y48266907D01*
X22631286Y48266907D01*
X22790733Y48235191D01*
G37*
G36*
X27870733Y48235191D02*
G01*
X28020929Y48172977D01*
X28156102Y48082658D01*
X28271058Y47967702D01*
X28361377Y47832529D01*
X28423591Y47682333D01*
X28455307Y47522886D01*
X28455307Y47360314D01*
X28423591Y47200867D01*
X28361377Y47050671D01*
X28271058Y46915498D01*
X28156102Y46800542D01*
X28020929Y46710223D01*
X27870733Y46648009D01*
X27711286Y46616293D01*
X27548714Y46616293D01*
X27389267Y46648009D01*
X27239071Y46710223D01*
X27103898Y46800542D01*
X26988942Y46915498D01*
X26898623Y47050671D01*
X26836409Y47200867D01*
X26804693Y47360314D01*
X26804693Y47522886D01*
X26836409Y47682333D01*
X26898623Y47832529D01*
X26988942Y47967702D01*
X27103898Y48082658D01*
X27239071Y48172977D01*
X27389267Y48235191D01*
X27548714Y48266907D01*
X27711286Y48266907D01*
X27870733Y48235191D01*
G37*
M02*
