M48
; DRILL file KiCad 10.0.1 date 2026-05-27T15:10:58
; FORMAT={-:-/ absolute / inch / decimal}
; #@! TF.CreationDate,2026-05-27T15:10:58+02:00
; #@! TF.GenerationSoftware,Kicad,Pcbnew,10.0.1
; #@! TF.FileFunction,Plated,1,2,PTH
FMAT,2
INCH
; #@! TA.AperFunction,Plated,PTH,ViaDrill
T1C0.0118
; #@! TA.AperFunction,Plated,PTH,ComponentDrill
T2C0.0197
; #@! TA.AperFunction,Plated,PTH,ComponentDrill
T3C0.0256
; #@! TA.AperFunction,Plated,PTH,ComponentDrill
T4C0.0276
; #@! TA.AperFunction,Plated,PTH,ComponentDrill
T5C0.0360
; #@! TA.AperFunction,Plated,PTH,ComponentDrill
T6C0.0390
; #@! TA.AperFunction,Plated,PTH,ComponentDrill
T7C0.0394
; #@! TA.AperFunction,Plated,PTH,ComponentDrill
T8C0.1063
%
G90
G05
T1
X0.0433Y1.1417
X0.0551Y0.6909
X0.0551Y0.4941
X0.0551Y0.3465
X0.0591Y1.6535
X0.0591Y1.5157
X0.0591Y1.3976
X0.0591Y1.2795
X0.0591Y1.0236
X0.0591Y0.9055
X0.0984Y0.9646
X0.1051Y0.8592
X0.106Y0.769
X0.1063Y1.2008
X0.1063Y1.1063
X0.1102Y0.5827
X0.1378Y1.3189
X0.1575Y1.5748
X0.1654Y1.3976
X0.1772Y0.4724
X0.1772Y0.3445
X0.2362Y1.5039
X0.2441Y1.2756
X0.2441Y0.6772
X0.2677Y1.6378
X0.2677Y0.5591
X0.2688Y1.1981
X0.2692Y0.7708
X0.2756Y1.3976
X0.2953Y0.3839
X0.3051Y0.0492
X0.3258Y1.185
X0.3268Y0.6772
X0.3303Y1.1324
X0.3307Y1.5591
X0.3346Y1.9094
X0.3346Y1.7126
X0.3386Y0.8569
X0.3386Y0.811
X0.3445Y0.4724
X0.374Y1.2795
X0.3937Y1.3976
X0.3937Y0.2165
X0.4035Y1.1024
X0.4094Y1.8425
X0.4094Y1.7638
X0.4094Y0.7874
X0.4094Y0.6772
X0.4173Y1.6614
X0.4232Y0.3839
X0.4252Y1.5118
X0.4252Y0.5591
X0.4724Y1.8819
X0.4724Y1.4488
X0.4724Y1.2303
X0.4823Y1.2795
X0.4823Y1.1024
X0.4882Y1.5827
X0.5118Y1.811
X0.5276Y1.6457
X0.5354Y1.7323
X0.5512Y0.6594
X0.5709Y0.2165
X0.5807Y1.2795
X0.5906Y0.5591
X0.5968Y0.1174
X0.6004Y0.3839
X0.622Y0.9213
X0.622Y0.7795
X0.6398Y1.25
X0.6457Y1.8189
X0.6457Y1.6457
X0.6457Y1.5669
X0.6457Y1.3937
X0.6535Y1.9291
X0.6594Y0.4724
X0.685Y1.7323
X0.685Y1.4803
X0.689Y0.6594
X0.7165Y0.9291
X0.7165Y0.7972
X0.7165Y0.5591
X0.7165Y0.3839
X0.7165Y0.2165
X0.7185Y0.1083
X0.7244Y1.9291
X0.7244Y1.8189
X0.7244Y1.6457
X0.7244Y1.5669
X0.7244Y1.3937
X0.8661Y1.9291
X0.8661Y1.811
X0.874Y1.7323
X0.874Y1.6457
X0.874Y1.4094
X0.874Y1.3465
X0.8789Y1.5695
X0.8898Y1.1811
X0.8957Y0.7776
X0.9055Y0.6004
X0.9055Y0.4134
X0.9055Y0.1575
X0.9055Y0.0492
X0.9154Y0.9449
X0.9213Y1.3858
X0.9252Y1.8307
X0.9252Y1.2205
X0.9449Y1.8898
X0.9528Y1.1811
X0.9685Y1.3465
X0.9744Y0.9941
X0.9744Y0.689
X0.9843Y1.9291
X0.9843Y0.5217
X0.9921Y1.2362
X0.9941Y0.876
X0.9941Y0.2756
X1.0Y1.6457
X1.0079Y1.4331
X1.0083Y1.5219
X1.0315Y1.7165
X1.0551Y1.6457
X1.0556Y0.8163
X1.0571Y0.9941
X1.063Y1.2126
X1.0709Y1.9291
X1.0827Y0.6102
X1.0827Y0.4134
X1.0866Y1.7874
X1.0945Y0.9055
X1.1181Y1.7165
X1.1181Y1.6457
X1.1181Y1.5748
X1.1339Y0.7717
X1.1417Y1.8346
X1.1417Y0.9941
X1.1564Y0.117
X1.1732Y1.9291
X1.1811Y1.6457
X1.1811Y0.8031
X1.1811Y0.2264
X1.2047Y1.8898
X1.2106Y1.7913
X1.2106Y1.7028
X1.2205Y1.5354
X1.2205Y1.4803
X1.2205Y0.6339
X1.2205Y0.5118
X1.2795Y0.4134
X1.2795Y0.1378
X1.378Y0.2264
X1.378Y0.0492
X1.4094Y1.9291
X1.4621Y1.7455
X1.463Y1.6693
X1.4704Y0.6594
X1.4705Y0.1378
X1.4958Y0.4134
X1.5221Y0.6599
X1.535Y1.7431
X1.5354Y0.7087
X1.5394Y1.6693
X1.5591Y1.189
X1.565Y0.7421
X1.5748Y0.2264
X1.5748Y0.0492
X1.5945Y1.9291
X1.5945Y1.752
X1.5945Y1.5748
X1.5945Y1.4173
X1.5945Y0.7657
X1.6063Y1.2913
X1.6122Y0.7283
X1.6457Y1.189
X1.6537Y0.561
X1.6831Y0.1378
X1.689Y0.5217
X1.6929Y1.9291
X1.6929Y1.8307
X1.6929Y1.6535
X1.6929Y1.5157
X1.6929Y1.3583
X1.6949Y0.4134
X1.6949Y0.3051
X1.7Y0.6173
X1.7126Y0.0492
X1.7402Y1.189
X1.7795Y1.9291
X1.7933Y0.2165
X1.811Y1.752
X1.811Y1.5748
X1.811Y1.4173
X1.8161Y1.298
X1.8701Y1.9291
X1.8701Y1.8307
X1.8898Y1.6732
X1.8898Y0.4134
X1.8898Y0.3051
X1.8898Y0.1378
X1.9094Y1.5157
X1.9094Y1.3583
X1.9488Y1.752
X1.9783Y1.9291
X1.9882Y0.2165
X2.0177Y1.6732
X2.0177Y1.5748
X2.0177Y1.4173
X2.0181Y1.2969
X2.0276Y1.8307
X2.0571Y0.4134
X2.0571Y0.3051
X2.0571Y0.1772
X2.0866Y1.9291
X2.1654Y1.9291
X2.1732Y1.8504
X2.1732Y1.752
X2.1732Y1.65
X2.1732Y1.5551
X2.1732Y1.4567
X2.1752Y1.378
X2.2288Y1.087
X2.2288Y1.0201
X2.2288Y0.9532
X2.2319Y1.9061
X2.2343Y1.8366
X2.2343Y1.7697
X2.2343Y1.5541
X2.2343Y1.4173
X2.2346Y1.7087
X2.2346Y1.6417
X2.2398Y0.4252
X2.2398Y0.3583
X2.2398Y0.2913
X2.2402Y1.4941
X2.3022Y1.5541
X2.3079Y1.087
X2.3079Y1.0201
X2.3079Y0.9532
X2.3185Y0.4252
X2.3185Y0.3583
X2.3185Y0.2913
X2.3228Y1.4567
X2.3642Y1.5531
X2.3681Y1.4173
X2.378Y1.498
X2.3866Y1.087
X2.3866Y1.0201
X2.3866Y0.9532
X2.3973Y0.4252
X2.3973Y0.3583
X2.3973Y0.2913
X2.4213Y1.5531
X2.4331Y1.4567
X2.4331Y1.2992
X2.4654Y1.087
X2.4654Y1.0201
X2.4654Y0.9532
X2.476Y0.4252
X2.476Y0.3583
X2.476Y0.2913
X2.7953Y1.8996
X2.7953Y1.8327
X2.7953Y1.6437
X2.7957Y1.7047
X2.8107Y1.3991
X2.811Y1.4857
X2.811Y1.4424
X2.811Y1.3558
T2
X0.0778Y1.8094
X0.0778Y0.1559
X0.1011Y1.8658
X0.1011Y1.7531
X0.1011Y0.2123
X0.1011Y0.0995
X0.1575Y1.8892
X0.1575Y1.7297
X0.1575Y0.2356
X0.1575Y0.0762
X0.2139Y1.8658
X0.2139Y1.7531
X0.2139Y0.2123
X0.2139Y0.0995
X0.2372Y1.8094
X0.2372Y0.1559
X2.9124Y1.8094
X2.9124Y0.1559
X2.9358Y1.8658
X2.9358Y1.7531
X2.9358Y0.2123
X2.9358Y0.0995
X2.9921Y1.8892
X2.9921Y1.7297
X2.9921Y0.2356
X2.9921Y0.0762
X3.0485Y1.8658
X3.0485Y1.7531
X3.0485Y0.2123
X3.0485Y0.0995
X3.0719Y1.8094
X3.0719Y0.1559
T5
X2.9665Y1.2008
X2.9665Y1.122
X2.9665Y1.0433
X3.061Y1.2008
X3.061Y1.122
X3.061Y1.0433
T6
X0.5878Y1.8678
X0.6878Y1.8678
X0.8878Y1.8678
X1.0878Y1.8678
T7
X1.1492Y0.8573
X1.2492Y0.8573
X1.3492Y0.8573
X1.4492Y0.8573
X1.5007Y1.8094
X1.5007Y1.7094
X1.5007Y1.6094
X1.5007Y1.5094
X1.5007Y1.4094
X1.5007Y1.3094
X1.5007Y1.2094
X1.5007Y1.1094
X1.5007Y1.0094
X2.1007Y1.8094
X2.1007Y1.7094
X2.1007Y1.6094
X2.1007Y1.5094
X2.1007Y1.4094
X2.1007Y1.3094
X2.1007Y1.2094
X2.1007Y1.1094
X2.1007Y1.0094
T8
X0.1575Y1.8094
X0.1575Y0.1559
X2.9921Y1.8094
X2.9921Y0.1559
T3
G00X0.122Y1.1543
M15
G01X0.0906Y1.1543
M16
G05
G00X0.122Y0.8142
M15
G01X0.0906Y0.8142
M16
G05
G00X0.2913Y1.1543
M15
G01X0.248Y1.1543
M16
G05
G00X0.2913Y0.8142
M15
G01X0.248Y0.8142
M16
G05
T4
G00X2.998Y1.3268
M15
G01X3.0295Y1.3268
M16
G05
G00X2.998Y0.9173
M15
G01X3.0295Y0.9173
M16
G05
M30
