%TF.GenerationSoftware,KiCad,Pcbnew,10.0.1*%
%TF.CreationDate,2026-05-27T15:10:58+02:00*%
%TF.ProjectId,Open_PSU_Meter_ESP32,4f70656e-5f50-4535-955f-4d657465725f,rev?*%
%TF.SameCoordinates,Original*%
%TF.FileFunction,Copper,L2,Bot*%
%TF.FilePolarity,Positive*%
%FSLAX46Y46*%
G04 Gerber Fmt 4.6, Leading zero omitted, Abs format (unit mm)*
G04 Created by KiCad (PCBNEW 10.0.1) date 2026-05-27 15:10:58*
%MOMM*%
%LPD*%
G01*
G04 APERTURE LIST*
%TA.AperFunction,ComponentPad*%
%ADD10O,1.850000X1.050000*%
%TD*%
%TA.AperFunction,ComponentPad*%
%ADD11O,2.150000X1.050000*%
%TD*%
%TA.AperFunction,ComponentPad*%
%ADD12R,1.700000X1.700000*%
%TD*%
%TA.AperFunction,ComponentPad*%
%ADD13C,1.700000*%
%TD*%
%TA.AperFunction,ComponentPad*%
%ADD14C,0.800000*%
%TD*%
%TA.AperFunction,ComponentPad*%
%ADD15C,5.400000*%
%TD*%
%TA.AperFunction,ComponentPad*%
%ADD16C,1.498600*%
%TD*%
%TA.AperFunction,ComponentPad*%
%ADD17C,1.508000*%
%TD*%
%TA.AperFunction,ComponentPad*%
%ADD18R,1.508000X1.508000*%
%TD*%
%TA.AperFunction,ComponentPad*%
%ADD19C,1.524000*%
%TD*%
%TA.AperFunction,ComponentPad*%
%ADD20O,2.300000X1.500000*%
%TD*%
%TA.AperFunction,ViaPad*%
%ADD21C,0.700000*%
%TD*%
%TA.AperFunction,Conductor*%
%ADD22C,0.300000*%
%TD*%
G04 APERTURE END LIST*
D10*
%TO.P,J1,SH1,SHIELD_SH1*%
%TO.N,HOST_GND*%
X2700000Y29320000D03*
%TO.P,J1,SH2,SHIELD_SH2*%
X2700000Y20680000D03*
D11*
%TO.P,J1,SH3,SHIELD_SH3*%
X6850000Y29320000D03*
%TO.P,J1,SH4,SHIELD_SH4*%
X6850000Y20680000D03*
%TD*%
D12*
%TO.P,J6,1,Pin_1_1*%
%TO.N,ISO_GND*%
X29190000Y21775000D03*
D13*
%TO.P,J6,2,Pin_2_2*%
%TO.N,+3V3_ISO*%
X31730000Y21775000D03*
%TO.P,J6,3,Pin_3_3*%
%TO.N,OLED_I2CSCL*%
X34270000Y21775000D03*
%TO.P,J6,4,Pin_4_4*%
%TO.N,OLED_I2CSDA*%
X36810000Y21775000D03*
%TD*%
D14*
%TO.P,MH1,1,1_1*%
%TO.N,unconnected-(MH1-Pad1)_4*%
X1975000Y45960000D03*
%TO.N,unconnected-(MH1-Pad1)_6*%
X2568109Y47391891D03*
%TO.N,unconnected-(MH1-Pad1)*%
X2568109Y44528109D03*
%TO.N,unconnected-(MH1-Pad1)_2*%
X4000000Y47985000D03*
D15*
%TO.N,unconnected-(MH1-Pad1)_8*%
X4000000Y45960000D03*
D14*
%TO.N,unconnected-(MH1-Pad1)_3*%
X4000000Y43935000D03*
%TO.N,unconnected-(MH1-Pad1)_1*%
X5431891Y47391891D03*
%TO.N,unconnected-(MH1-Pad1)_5*%
X5431891Y44528109D03*
%TO.N,unconnected-(MH1-Pad1)_7*%
X6025000Y45960000D03*
%TD*%
D16*
%TO.P,PS1,1,VIN_1*%
%TO.N,+VBUS_USB*%
X14930000Y47441600D03*
%TO.P,PS1,2,GND_2*%
%TO.N,HOST_GND*%
X17470000Y47441600D03*
%TO.P,PS1,4,0V_4*%
%TO.N,ISO_GND*%
X22550000Y47441600D03*
%TO.P,PS1,6,+VO_6*%
%TO.N,+VBUS_ISO*%
X27630000Y47441600D03*
%TD*%
D17*
%TO.P,U3,1,GP1_1*%
%TO.N,unconnected-(U3-GP1-Pad1)*%
X38117500Y38340000D03*
%TO.P,U3,2,GP2_2*%
%TO.N,unconnected-(U3-GP2-Pad2)*%
X38117500Y35800000D03*
%TO.P,U3,3,GP3_3*%
%TO.N,/ISO_UART_RX*%
X38117500Y33260000D03*
%TO.P,U3,3V3,3V3(OUT)_3V3*%
%TO.N,+3V3_ISO*%
X38117500Y40880000D03*
%TO.P,U3,4,GP4_4*%
%TO.N,/ISO_UART_TX*%
X38117500Y30720000D03*
%TO.P,U3,5,GP5_5*%
%TO.N,OLED_I2CSDA*%
X38117500Y28180000D03*
D18*
%TO.P,U3,5V,5V_5V*%
%TO.N,Net-(D1-K)*%
X38117500Y45960000D03*
D17*
%TO.P,U3,6,GP6_6*%
%TO.N,OLED_I2CSCL*%
X38117500Y25640000D03*
%TO.P,U3,7,GP7_7*%
%TO.N,unconnected-(U3-GP7-Pad7)*%
X53357500Y25640000D03*
%TO.P,U3,8,GP8_8*%
%TO.N,INA_I2CSDA*%
X53357500Y28180000D03*
%TO.P,U3,9,GP9_9*%
%TO.N,INA_I2CSCL*%
X53357500Y30720000D03*
%TO.P,U3,10,GP10_10*%
%TO.N,/MCU_GP10*%
X53357500Y33260000D03*
%TO.P,U3,11,GP11_11*%
%TO.N,unconnected-(U3-GP11-Pad11)*%
X53357500Y35800000D03*
%TO.P,U3,12,GP12_12*%
%TO.N,unconnected-(U3-GP12-Pad12)*%
X53357500Y38340000D03*
%TO.P,U3,13,GP13_13*%
%TO.N,unconnected-(U3-GP13-Pad13)*%
X53357500Y40880000D03*
%TO.P,U3,GND,GND_GND*%
%TO.N,ISO_GND*%
X38117500Y43420000D03*
%TO.P,U3,RX,RX_RX*%
%TO.N,unconnected-(U3-PadRX)*%
X53357500Y43420000D03*
%TO.P,U3,TX,TX_TX*%
%TO.N,unconnected-(U3-PadTX)*%
X53357500Y45960000D03*
%TD*%
D19*
%TO.P,SW1,1,1_1*%
%TO.N,unconnected-(SW1-Pad1)*%
X77750000Y26500000D03*
%TO.P,SW1,2,2_2*%
%TO.N,/MCU_GP10*%
X77750000Y28500000D03*
%TO.P,SW1,3,3_3*%
%TO.N,ISO_GND*%
X77750000Y30500000D03*
%TO.P,SW1,4,4_4*%
%TO.N,/PROBE+*%
X75350000Y30500000D03*
%TO.P,SW1,5,5_5*%
%TO.N,SW_COM_A*%
X75350000Y28500000D03*
%TO.P,SW1,6,6_6*%
%TO.N,/PSU_IN+*%
X75350000Y26500000D03*
D20*
%TO.P,SW1,7,7_7*%
%TO.N,unconnected-(SW1-Pad7)*%
X76550000Y23300000D03*
%TO.P,SW1,8,8_8*%
%TO.N,unconnected-(SW1-Pad8)*%
X76550000Y33700000D03*
%TD*%
D14*
%TO.P,MH3,1,1_1*%
%TO.N,unconnected-(MH3-Pad1)_4*%
X1975000Y3960000D03*
%TO.N,unconnected-(MH3-Pad1)_5*%
X2568109Y5391891D03*
%TO.N,unconnected-(MH3-Pad1)_3*%
X2568109Y2528109D03*
%TO.N,unconnected-(MH3-Pad1)_2*%
X4000000Y5985000D03*
D15*
%TO.N,unconnected-(MH3-Pad1)_6*%
X4000000Y3960000D03*
D14*
%TO.N,unconnected-(MH3-Pad1)*%
X4000000Y1935000D03*
%TO.N,unconnected-(MH3-Pad1)_1*%
X5431891Y5391891D03*
%TO.N,unconnected-(MH3-Pad1)_7*%
X5431891Y2528109D03*
%TO.N,unconnected-(MH3-Pad1)_8*%
X6025000Y3960000D03*
%TD*%
%TO.P,MH4,1,1_1*%
%TO.N,unconnected-(MH4-Pad1)_8*%
X73975000Y3960000D03*
%TO.N,unconnected-(MH4-Pad1)_5*%
X74568109Y5391891D03*
%TO.N,unconnected-(MH4-Pad1)_6*%
X74568109Y2528109D03*
%TO.N,unconnected-(MH4-Pad1)_2*%
X76000000Y5985000D03*
D15*
%TO.N,unconnected-(MH4-Pad1)_7*%
X76000000Y3960000D03*
D14*
%TO.N,unconnected-(MH4-Pad1)*%
X76000000Y1935000D03*
%TO.N,unconnected-(MH4-Pad1)_3*%
X77431891Y5391891D03*
%TO.N,unconnected-(MH4-Pad1)_4*%
X77431891Y2528109D03*
%TO.N,unconnected-(MH4-Pad1)_1*%
X78025000Y3960000D03*
%TD*%
%TO.P,MH2,1,1_1*%
%TO.N,unconnected-(MH2-Pad1)_4*%
X73975000Y45960000D03*
%TO.N,unconnected-(MH2-Pad1)*%
X74568109Y47391891D03*
%TO.N,unconnected-(MH2-Pad1)_5*%
X74568109Y44528109D03*
%TO.N,unconnected-(MH2-Pad1)_1*%
X76000000Y47985000D03*
D15*
%TO.N,unconnected-(MH2-Pad1)_8*%
X76000000Y45960000D03*
D14*
%TO.N,unconnected-(MH2-Pad1)_6*%
X76000000Y43935000D03*
%TO.N,unconnected-(MH2-Pad1)_7*%
X77431891Y47391891D03*
%TO.N,unconnected-(MH2-Pad1)_3*%
X77431891Y44528109D03*
%TO.N,unconnected-(MH2-Pad1)_2*%
X78025000Y45960000D03*
%TD*%
D21*
%TO.N,HOST_GND*%
X18200000Y9750000D03*
X15800000Y19800000D03*
X7500000Y9750000D03*
X13600000Y44000000D03*
X8275000Y30100000D03*
X4200000Y35500000D03*
X10800000Y38400000D03*
X10400000Y46800000D03*
X8750000Y12000000D03*
X12400000Y40200000D03*
X6200000Y32400000D03*
X12000000Y47800000D03*
X18200000Y20250000D03*
X6800000Y41600000D03*
X9500000Y32500000D03*
X3500000Y33500000D03*
X18400000Y46200000D03*
X8500000Y43500000D03*
X1500000Y23000000D03*
X1500000Y32500000D03*
X7000000Y35500000D03*
X10400000Y17200000D03*
X10000000Y5500000D03*
X14500000Y5500000D03*
X2693513Y19532332D03*
X8389779Y28763432D03*
X15000000Y14200000D03*
X1500000Y42000000D03*
X18200000Y5500000D03*
X8600000Y21765000D03*
X18400000Y39800000D03*
X4000000Y40000000D03*
X12250000Y28000000D03*
X6800000Y14200000D03*
X14000000Y16750000D03*
X10250000Y28000000D03*
X4500000Y12000000D03*
X8500000Y48500000D03*
X12250000Y32500000D03*
X18400000Y41800000D03*
X1500000Y38500000D03*
X10000000Y35500000D03*
X1100000Y29000000D03*
X6200000Y17200000D03*
X1400000Y8800000D03*
X10400000Y44800000D03*
X2700000Y28100000D03*
X8300000Y17200000D03*
X1500000Y26000000D03*
X8600000Y20600000D03*
X17400000Y44000000D03*
X16750000Y12000000D03*
X2800000Y14800000D03*
X12000000Y36800000D03*
X4500000Y8750000D03*
X18400000Y49000000D03*
X6000000Y38200000D03*
X15158831Y2982578D03*
X10400000Y20000000D03*
X2700000Y30500000D03*
X13000000Y46000000D03*
X2500000Y24500000D03*
X8400000Y39600000D03*
X16250000Y31750000D03*
X16400000Y41800000D03*
X18250000Y2750000D03*
X15800000Y23400000D03*
X10800000Y14200000D03*
X18200000Y23600000D03*
X17400000Y37600000D03*
X10600000Y42200000D03*
X1400000Y17550000D03*
X1400000Y12550000D03*
X18200000Y14200000D03*
X16400000Y46200000D03*
X13400000Y41800000D03*
X16400000Y39800000D03*
X7750000Y1250000D03*
X6828019Y30432697D03*
X16400000Y35400000D03*
X18400000Y35400000D03*
X12000000Y31250000D03*
X1500000Y35500000D03*
X2669320Y21822569D03*
X6838455Y19577636D03*
X16600000Y49000000D03*
X17500000Y16750000D03*
X15250000Y9750000D03*
X10750000Y9750000D03*
X14750000Y32500000D03*
%TO.N,ISO_GND*%
X30750000Y43250000D03*
X43000000Y38500000D03*
X25000000Y49000000D03*
X28800000Y19600000D03*
X49500000Y44500000D03*
X27500000Y10500000D03*
X43000000Y46500000D03*
X53000000Y49000000D03*
X43000000Y34500000D03*
X60150000Y36000000D03*
X55250000Y35000000D03*
X26200000Y43600000D03*
X22325200Y39865361D03*
X61800000Y37000000D03*
X22200000Y34200000D03*
X22200000Y41800000D03*
X46130000Y32970000D03*
X41800000Y30200000D03*
X27600000Y45400000D03*
X51250000Y40000000D03*
X46000000Y44500000D03*
X26850000Y25250000D03*
X40500000Y19450000D03*
X51500000Y46500000D03*
X23000000Y4000000D03*
X25200000Y31400000D03*
X25400000Y41800000D03*
X29800000Y49000000D03*
X37992215Y10500000D03*
X48500000Y34500000D03*
X44200000Y30200000D03*
X35000000Y1250000D03*
X46000000Y36000000D03*
X42750000Y3500000D03*
X26800000Y41800000D03*
X51250000Y36000000D03*
X42005000Y14250000D03*
X25000000Y13250000D03*
X48000000Y42500000D03*
X22200000Y35800000D03*
X23000000Y10500000D03*
X40950000Y18500000D03*
X43180000Y15680000D03*
X27000000Y30800000D03*
X48000000Y3500000D03*
X35800000Y49000000D03*
X32500000Y10500000D03*
X56759826Y41700000D03*
X30750000Y45500000D03*
X40500000Y36000000D03*
X29371505Y2971314D03*
X71000000Y46550000D03*
X50250000Y49000000D03*
X25250000Y22250000D03*
X39750000Y18850000D03*
X40000000Y5750000D03*
X30000000Y5750000D03*
X24600000Y34200000D03*
X37161275Y42400000D03*
X22750000Y19750000D03*
X24200000Y30000000D03*
X61800000Y33000000D03*
X48000000Y10500000D03*
X23500000Y31000000D03*
X24750000Y25250000D03*
X28400000Y40000000D03*
X71000000Y41750000D03*
X40500000Y44500000D03*
X23000000Y1250000D03*
X40000000Y1250000D03*
X61500000Y39450000D03*
X46000000Y40000000D03*
X56690174Y48415645D03*
X51250000Y42500000D03*
X28400000Y43600000D03*
X52250000Y4500000D03*
X56759826Y43400000D03*
X35000000Y5750000D03*
X32500000Y3500000D03*
X55200000Y44500000D03*
X71000000Y48250000D03*
X58475000Y39475000D03*
X55200000Y41910000D03*
X71009826Y43300000D03*
X23000000Y15250000D03*
X39600000Y30200000D03*
X47500000Y49000000D03*
X43050793Y10500000D03*
X26812500Y20733332D03*
X31000000Y37600000D03*
X51260000Y32940000D03*
X43500000Y1250000D03*
X37350000Y3500000D03*
X25250000Y7000000D03*
X27800000Y23000000D03*
X56750000Y36000000D03*
X39000000Y18000000D03*
X29000000Y25250000D03*
X55000000Y49000000D03*
X60400000Y38050000D03*
X30000000Y20400000D03*
X43000000Y42000000D03*
X30000000Y41800000D03*
X55200000Y37000000D03*
X50500000Y5500000D03*
X38987820Y44274110D03*
X48500000Y38500000D03*
X40500000Y49000005D03*
X52250000Y10500000D03*
X22600000Y30000000D03*
X48000000Y7750000D03*
X23250000Y24000000D03*
X47500000Y46500000D03*
X60050000Y39450000D03*
X42900000Y13250000D03*
X40500000Y40000000D03*
X31000000Y39000000D03*
X43000000Y49000005D03*
X39100000Y42400000D03*
X25600000Y36400000D03*
X56750000Y46650000D03*
X55200000Y47000000D03*
X24000000Y48000000D03*
X22000000Y46000000D03*
X52250000Y7750000D03*
X45550793Y5500000D03*
X56750000Y39475000D03*
X23400000Y35200000D03*
X37137082Y44334591D03*
X27500000Y15500000D03*
X23500000Y46500000D03*
X31000000Y16100000D03*
X29000000Y46600000D03*
X24750000Y17500000D03*
X43050793Y7750000D03*
X30600000Y48000000D03*
X22000000Y49000000D03*
X56900000Y37950000D03*
X31000000Y13000000D03*
X22200000Y44000000D03*
X25609632Y38655666D03*
X59000000Y37000000D03*
X55200000Y39500000D03*
X56750000Y44950000D03*
X45200000Y49000005D03*
X27200000Y49000000D03*
X28400000Y41800000D03*
X40800000Y32800000D03*
%TO.N,Net-(U4-~{Alert})*%
X38662356Y16760356D03*
X37348000Y16750000D03*
%TO.N,/PROBE+*%
X71398972Y34436646D03*
X71398972Y36636646D03*
X71398972Y37736646D03*
X71392997Y35536646D03*
%TO.N,/PSU_IN+*%
X58620521Y24210260D03*
X62620521Y24210260D03*
X58620521Y27610260D03*
X62620521Y25910260D03*
X62620521Y27610260D03*
X58620521Y25910260D03*
X60620521Y24210260D03*
X60620521Y27610260D03*
X60620521Y25910260D03*
X56610695Y27610260D03*
X56610695Y24210260D03*
X56610695Y25910260D03*
%TO.N,/DUT_OUT+*%
X60890174Y7400000D03*
X62890174Y10800000D03*
X56890174Y7400000D03*
X62890174Y7400000D03*
X58890174Y10800000D03*
X58890174Y7400000D03*
X62890174Y9100000D03*
X60890174Y10800000D03*
X60890174Y9100000D03*
X58890174Y9100000D03*
X56890174Y10800000D03*
X56890174Y9100000D03*
%TD*%
%TO.N,Net-(U4-~{Alert})*%
D22*
X37348000Y16750000D02*
X38652000Y16750000D01*
X38652000Y16750000D02*
X38662356Y16760356D01*
%TO.N,/MCU_GP10*%
X53357500Y33260000D02*
X55467500Y31150000D01*
X66800000Y32000000D02*
X76250000Y32000000D01*
X76250000Y32000000D02*
X76550000Y31700000D01*
X76550000Y31700000D02*
X76550000Y29700000D01*
X55467500Y31150000D02*
X65950000Y31150000D01*
X65950000Y31150000D02*
X66800000Y32000000D01*
X76550000Y29700000D02*
X77750000Y28500000D01*
%TD*%
%TA.AperFunction,Conductor*%
%TO.N,/PROBE+*%
G36*
X72057874Y38574977D02*
G01*
X72072872Y38570573D01*
X72087862Y38560943D01*
X72104943Y38555933D01*
X72131623Y38532828D01*
X72132810Y38531459D01*
X72160286Y38476598D01*
X72161931Y38469040D01*
X72164768Y38442669D01*
X72164768Y33721830D01*
X72159743Y33686886D01*
X72155338Y33671888D01*
X72145707Y33656899D01*
X72140700Y33639825D01*
X72117595Y33613145D01*
X72116226Y33611958D01*
X72061365Y33584482D01*
X72053807Y33582837D01*
X72027436Y33580000D01*
X62866830Y33580000D01*
X62831889Y33585025D01*
X62816890Y33589430D01*
X62801902Y33599060D01*
X62784824Y33604068D01*
X62758144Y33627173D01*
X62756957Y33628542D01*
X62729477Y33683417D01*
X62727832Y33690979D01*
X62725000Y33717332D01*
X62725000Y38438171D01*
X62730023Y38473107D01*
X62734427Y38488105D01*
X62744057Y38503096D01*
X62749067Y38520176D01*
X62772172Y38546856D01*
X62773541Y38548043D01*
X62828420Y38575523D01*
X62835979Y38577167D01*
X62862332Y38580000D01*
X72022938Y38580000D01*
X72057874Y38574977D01*
G37*
%TD.AperFunction*%
%TD*%
%TA.AperFunction,Conductor*%
%TO.N,HOST_GND*%
G36*
X18764253Y49440593D02*
G01*
X18800217Y49391093D01*
X18805062Y49360479D01*
X18803711Y42859501D01*
X18799566Y22910767D01*
X18794961Y745233D01*
X18794922Y559479D01*
X18776003Y501293D01*
X18726495Y465339D01*
X18695922Y460500D01*
X4002436Y460500D01*
X3997578Y460619D01*
X3661838Y477113D01*
X3652170Y478066D01*
X3322096Y527028D01*
X3312567Y528923D01*
X2988868Y610005D01*
X2979571Y612825D01*
X2665378Y725246D01*
X2656402Y728964D01*
X2354741Y871639D01*
X2346173Y876219D01*
X2059950Y1047774D01*
X2051872Y1053172D01*
X1783849Y1251952D01*
X1776339Y1258115D01*
X1667770Y1356516D01*
X1529078Y1482219D01*
X1522218Y1489079D01*
X1298114Y1736340D01*
X1291951Y1743850D01*
X1093171Y2011873D01*
X1087773Y2019951D01*
X958223Y2236092D01*
X916216Y2306177D01*
X911638Y2314742D01*
X768963Y2616403D01*
X765245Y2625379D01*
X652820Y2939585D01*
X650008Y2948856D01*
X568919Y3272579D01*
X567029Y3282085D01*
X518063Y3612185D01*
X517113Y3621827D01*
X500619Y3957579D01*
X500500Y3962436D01*
X500500Y4134137D01*
X899500Y4134137D01*
X899500Y3785864D01*
X938490Y3439833D01*
X938491Y3439827D01*
X1015982Y3100316D01*
X1130997Y2771623D01*
X1130998Y2771621D01*
X1282086Y2457882D01*
X1282092Y2457870D01*
X1467372Y2163000D01*
X1467374Y2162997D01*
X1684484Y1890748D01*
X1684490Y1890742D01*
X1684494Y1890737D01*
X1930737Y1644494D01*
X1930741Y1644491D01*
X1930747Y1644485D01*
X2202996Y1427375D01*
X2203000Y1427373D01*
X2203003Y1427370D01*
X2497867Y1242094D01*
X2497869Y1242093D01*
X2497881Y1242087D01*
X2548607Y1217659D01*
X2811621Y1090998D01*
X2919722Y1053172D01*
X3140315Y975983D01*
X3140318Y975983D01*
X3140319Y975982D01*
X3479829Y898491D01*
X3573144Y887977D01*
X3825863Y859501D01*
X3825879Y859501D01*
X3825880Y859500D01*
X3825881Y859500D01*
X4174119Y859500D01*
X4174120Y859500D01*
X4174121Y859501D01*
X4174136Y859501D01*
X4395749Y884472D01*
X4520171Y898491D01*
X4859681Y975982D01*
X5188379Y1090998D01*
X5502133Y1242094D01*
X5796997Y1427370D01*
X6069263Y1644494D01*
X6315506Y1890737D01*
X6532630Y2163003D01*
X6717906Y2457867D01*
X6869002Y2771621D01*
X6984018Y3100319D01*
X7061509Y3439829D01*
X7075528Y3564251D01*
X7100499Y3785864D01*
X7100500Y3785881D01*
X7100500Y4134120D01*
X7100499Y4134137D01*
X7061509Y4480168D01*
X7061508Y4480174D01*
X6984017Y4819685D01*
X6869002Y5148378D01*
X6869002Y5148379D01*
X6717906Y5462133D01*
X6532630Y5756997D01*
X6532627Y5757001D01*
X6532625Y5757004D01*
X6315515Y6029253D01*
X6315509Y6029259D01*
X6315506Y6029263D01*
X6069263Y6275506D01*
X6069258Y6275510D01*
X6069252Y6275516D01*
X5797003Y6492626D01*
X5797000Y6492628D01*
X5502130Y6677908D01*
X5502118Y6677914D01*
X5188379Y6829002D01*
X5188377Y6829003D01*
X4859684Y6944018D01*
X4520173Y7021509D01*
X4520167Y7021510D01*
X4174136Y7060500D01*
X4174120Y7060500D01*
X3825880Y7060500D01*
X3825863Y7060500D01*
X3479832Y7021510D01*
X3479826Y7021509D01*
X3140315Y6944018D01*
X2811622Y6829003D01*
X2811620Y6829002D01*
X2497881Y6677914D01*
X2497869Y6677908D01*
X2202999Y6492628D01*
X2202996Y6492626D01*
X1930747Y6275516D01*
X1684484Y6029253D01*
X1467374Y5757004D01*
X1467372Y5757001D01*
X1282092Y5462131D01*
X1282086Y5462119D01*
X1130998Y5148380D01*
X1130997Y5148378D01*
X1015982Y4819685D01*
X938491Y4480174D01*
X938490Y4480168D01*
X899500Y4134137D01*
X500500Y4134137D01*
X500500Y20830000D01*
X1539653Y20830000D01*
X2011326Y20830000D01*
X1997149Y20805445D01*
X1975000Y20722787D01*
X1975000Y20637213D01*
X1997149Y20554555D01*
X2011326Y20530000D01*
X1539654Y20530000D01*
X1554783Y20453942D01*
X1554783Y20453940D01*
X1613202Y20312903D01*
X1698015Y20185970D01*
X1805969Y20078016D01*
X1932902Y19993203D01*
X2073940Y19934784D01*
X2223666Y19905001D01*
X2223670Y19905000D01*
X2549999Y19905000D01*
X2550000Y19905001D01*
X2550000Y20355000D01*
X2850000Y20355000D01*
X2850000Y19905001D01*
X2850001Y19905000D01*
X3176330Y19905000D01*
X3176333Y19905001D01*
X3326058Y19934784D01*
X3326060Y19934784D01*
X3467097Y19993203D01*
X3594030Y20078016D01*
X3701984Y20185970D01*
X3786797Y20312903D01*
X3845216Y20453940D01*
X3845216Y20453942D01*
X3860346Y20530000D01*
X3388674Y20530000D01*
X3402851Y20554555D01*
X3425000Y20637213D01*
X3425000Y20722787D01*
X3402851Y20805445D01*
X3388674Y20830000D01*
X3860346Y20830000D01*
X5539653Y20830000D01*
X6011326Y20830000D01*
X5997149Y20805445D01*
X5975000Y20722787D01*
X5975000Y20637213D01*
X5997149Y20554555D01*
X6011326Y20530000D01*
X5539654Y20530000D01*
X5554783Y20453942D01*
X5554783Y20453940D01*
X5613202Y20312903D01*
X5698015Y20185970D01*
X5805969Y20078016D01*
X5932902Y19993203D01*
X6073940Y19934784D01*
X6223666Y19905001D01*
X6223670Y19905000D01*
X6699999Y19905000D01*
X6700000Y19905001D01*
X6700000Y20355000D01*
X7000000Y20355000D01*
X7000000Y19905001D01*
X7000001Y19905000D01*
X7476330Y19905000D01*
X7476333Y19905001D01*
X7626058Y19934784D01*
X7626060Y19934784D01*
X7767097Y19993203D01*
X7894030Y20078016D01*
X8001984Y20185970D01*
X8086797Y20312903D01*
X8145216Y20453940D01*
X8145216Y20453942D01*
X8160346Y20530000D01*
X7688674Y20530000D01*
X7702851Y20554555D01*
X7725000Y20637213D01*
X7725000Y20722787D01*
X7702851Y20805445D01*
X7688674Y20830000D01*
X8160346Y20830000D01*
X8145216Y20906059D01*
X8145216Y20906061D01*
X8086797Y21047098D01*
X8001984Y21174031D01*
X7894030Y21281985D01*
X7767097Y21366798D01*
X7626059Y21425217D01*
X7476333Y21455000D01*
X7000001Y21455000D01*
X7000000Y21454999D01*
X7000000Y21005000D01*
X6700000Y21005000D01*
X6700000Y21454999D01*
X6690391Y21464608D01*
X6662614Y21519125D01*
X6672185Y21579557D01*
X6710896Y21620348D01*
X6721172Y21626280D01*
X6833720Y21738828D01*
X6913304Y21876672D01*
X6954500Y22030416D01*
X6954500Y22189584D01*
X6913304Y22343328D01*
X6833720Y22481172D01*
X6721172Y22593720D01*
X6583328Y22673304D01*
X6429584Y22714500D01*
X6270416Y22714500D01*
X6116672Y22673304D01*
X5978828Y22593720D01*
X5866280Y22481172D01*
X5786696Y22343328D01*
X5745500Y22189584D01*
X5745500Y22030416D01*
X5786696Y21876672D01*
X5866280Y21738828D01*
X5978828Y21626280D01*
X6047479Y21586644D01*
X6088419Y21541176D01*
X6094815Y21480326D01*
X6064222Y21427338D01*
X6035864Y21409445D01*
X5932900Y21366797D01*
X5805969Y21281985D01*
X5698015Y21174031D01*
X5613202Y21047098D01*
X5554783Y20906061D01*
X5554783Y20906059D01*
X5539653Y20830000D01*
X3860346Y20830000D01*
X3845216Y20906059D01*
X3845216Y20906061D01*
X3786797Y21047098D01*
X3701984Y21174031D01*
X3594030Y21281985D01*
X3467097Y21366798D01*
X3326059Y21425217D01*
X3176333Y21455000D01*
X2850001Y21455000D01*
X2850000Y21454999D01*
X2850000Y21005000D01*
X2550000Y21005000D01*
X2550000Y21454999D01*
X2549999Y21455000D01*
X2223666Y21455000D01*
X2073941Y21425217D01*
X2073939Y21425217D01*
X1932902Y21366798D01*
X1805969Y21281985D01*
X1698015Y21174031D01*
X1613202Y21047098D01*
X1554783Y20906061D01*
X1554783Y20906059D01*
X1539653Y20830000D01*
X500500Y20830000D01*
X500500Y29470000D01*
X1539653Y29470000D01*
X2011326Y29470000D01*
X1997149Y29445445D01*
X1975000Y29362787D01*
X1975000Y29277213D01*
X1997149Y29194555D01*
X2011326Y29170000D01*
X1539654Y29170000D01*
X1554783Y29093942D01*
X1554783Y29093940D01*
X1613202Y28952903D01*
X1698015Y28825970D01*
X1805969Y28718016D01*
X1932902Y28633203D01*
X2073940Y28574784D01*
X2223666Y28545001D01*
X2223670Y28545000D01*
X2549999Y28545000D01*
X2550000Y28545001D01*
X2550000Y28995000D01*
X2850000Y28995000D01*
X2850000Y28545001D01*
X2850001Y28545000D01*
X3176330Y28545000D01*
X3176333Y28545001D01*
X3326058Y28574784D01*
X3326060Y28574784D01*
X3467097Y28633203D01*
X3594030Y28718016D01*
X3701984Y28825970D01*
X3786797Y28952903D01*
X3845216Y29093940D01*
X3845216Y29093942D01*
X3860346Y29170000D01*
X3388674Y29170000D01*
X3402851Y29194555D01*
X3425000Y29277213D01*
X3425000Y29362787D01*
X3402851Y29445445D01*
X3388674Y29470000D01*
X3860346Y29470000D01*
X5539653Y29470000D01*
X6011326Y29470000D01*
X5997149Y29445445D01*
X5975000Y29362787D01*
X5975000Y29277213D01*
X5997149Y29194555D01*
X6011326Y29170000D01*
X5539654Y29170000D01*
X5554783Y29093942D01*
X5554783Y29093940D01*
X5613202Y28952903D01*
X5698015Y28825970D01*
X5805969Y28718016D01*
X5932902Y28633203D01*
X6035863Y28590556D01*
X6082389Y28550820D01*
X6096673Y28491325D01*
X6073259Y28434797D01*
X6047479Y28413356D01*
X5978829Y28373721D01*
X5978828Y28373720D01*
X5866280Y28261172D01*
X5786696Y28123328D01*
X5745500Y27969584D01*
X5745500Y27810416D01*
X5786696Y27656672D01*
X5866280Y27518828D01*
X5978828Y27406280D01*
X6116672Y27326696D01*
X6270416Y27285500D01*
X6270417Y27285500D01*
X6429583Y27285500D01*
X6429584Y27285500D01*
X6583328Y27326696D01*
X6721172Y27406280D01*
X6833720Y27518828D01*
X6913304Y27656672D01*
X6954500Y27810416D01*
X6954500Y27969584D01*
X6913304Y28123328D01*
X6833720Y28261172D01*
X6721172Y28373720D01*
X6710894Y28379654D01*
X6669955Y28425120D01*
X6663558Y28485970D01*
X6690392Y28535393D01*
X6700000Y28545001D01*
X6700000Y28995000D01*
X7000000Y28995000D01*
X7000000Y28545001D01*
X7000001Y28545000D01*
X7476330Y28545000D01*
X7476333Y28545001D01*
X7626058Y28574784D01*
X7626060Y28574784D01*
X7767097Y28633203D01*
X7894030Y28718016D01*
X8001984Y28825970D01*
X8086797Y28952903D01*
X8145216Y29093940D01*
X8145216Y29093942D01*
X8160346Y29170000D01*
X7688674Y29170000D01*
X7702851Y29194555D01*
X7725000Y29277213D01*
X7725000Y29362787D01*
X7702851Y29445445D01*
X7688674Y29470000D01*
X8160346Y29470000D01*
X8145216Y29546059D01*
X8145216Y29546061D01*
X8086797Y29687098D01*
X8001984Y29814031D01*
X7894030Y29921985D01*
X7767097Y30006798D01*
X7626059Y30065217D01*
X7476333Y30095000D01*
X7000001Y30095000D01*
X7000000Y30094999D01*
X7000000Y29645000D01*
X6700000Y29645000D01*
X6700000Y30094999D01*
X6699999Y30095000D01*
X6223666Y30095000D01*
X6073941Y30065217D01*
X6073939Y30065217D01*
X5932902Y30006798D01*
X5805969Y29921985D01*
X5698015Y29814031D01*
X5613202Y29687098D01*
X5554783Y29546061D01*
X5554783Y29546059D01*
X5539653Y29470000D01*
X3860346Y29470000D01*
X3845216Y29546059D01*
X3845216Y29546061D01*
X3786797Y29687098D01*
X3701984Y29814031D01*
X3594030Y29921985D01*
X3467097Y30006798D01*
X3326059Y30065217D01*
X3176333Y30095000D01*
X2850001Y30095000D01*
X2850000Y30094999D01*
X2850000Y29645000D01*
X2550000Y29645000D01*
X2550000Y30094999D01*
X2549999Y30095000D01*
X2223666Y30095000D01*
X2073941Y30065217D01*
X2073939Y30065217D01*
X1932902Y30006798D01*
X1805969Y29921985D01*
X1698015Y29814031D01*
X1613202Y29687098D01*
X1554783Y29546061D01*
X1554783Y29546059D01*
X1539653Y29470000D01*
X500500Y29470000D01*
X500500Y45957565D01*
X500619Y45962423D01*
X509055Y46134137D01*
X899500Y46134137D01*
X899500Y45785864D01*
X938490Y45439833D01*
X938491Y45439827D01*
X1015982Y45100316D01*
X1130997Y44771623D01*
X1130998Y44771621D01*
X1282086Y44457882D01*
X1282092Y44457870D01*
X1467372Y44163000D01*
X1467374Y44162997D01*
X1684484Y43890748D01*
X1684490Y43890742D01*
X1684494Y43890737D01*
X1930737Y43644494D01*
X1930741Y43644491D01*
X1930747Y43644485D01*
X2202996Y43427375D01*
X2203000Y43427373D01*
X2203003Y43427370D01*
X2497867Y43242094D01*
X2497869Y43242093D01*
X2497881Y43242087D01*
X2602121Y43191888D01*
X2811621Y43090998D01*
X2965062Y43037307D01*
X3140315Y42975983D01*
X3140318Y42975983D01*
X3140319Y42975982D01*
X3479829Y42898491D01*
X3573144Y42887977D01*
X3825863Y42859501D01*
X3825879Y42859501D01*
X3825880Y42859500D01*
X3825881Y42859500D01*
X4174119Y42859500D01*
X4174120Y42859500D01*
X4174121Y42859501D01*
X4174136Y42859501D01*
X4395749Y42884472D01*
X4520171Y42898491D01*
X4859681Y42975982D01*
X5188379Y43090998D01*
X5502133Y43242094D01*
X5796997Y43427370D01*
X6069263Y43644494D01*
X6315506Y43890737D01*
X6532630Y44163003D01*
X6717906Y44457867D01*
X6869002Y44771621D01*
X6984018Y45100319D01*
X7061509Y45439829D01*
X7075528Y45564251D01*
X7100499Y45785864D01*
X7100500Y45785881D01*
X7100500Y46134120D01*
X7100499Y46134137D01*
X7061509Y46480168D01*
X7061508Y46480174D01*
X7042242Y46564582D01*
X6984018Y46819681D01*
X6974000Y46848310D01*
X6869002Y47148378D01*
X6869002Y47148379D01*
X6717906Y47462133D01*
X6673946Y47532095D01*
X13780200Y47532095D01*
X13780200Y47351106D01*
X13808510Y47172360D01*
X13864439Y47000230D01*
X13897667Y46935015D01*
X13946603Y46838974D01*
X14052982Y46692556D01*
X14180956Y46564582D01*
X14327374Y46458203D01*
X14488630Y46376039D01*
X14660755Y46320112D01*
X14660756Y46320112D01*
X14660759Y46320111D01*
X14839506Y46291800D01*
X14839509Y46291800D01*
X15020494Y46291800D01*
X15199240Y46320111D01*
X15199241Y46320112D01*
X15199245Y46320112D01*
X15371370Y46376039D01*
X15532626Y46458203D01*
X15679044Y46564582D01*
X15807018Y46692556D01*
X15913397Y46838974D01*
X15995561Y47000230D01*
X16051488Y47172355D01*
X16063853Y47250421D01*
X16079800Y47351106D01*
X16079800Y47532095D01*
X16078544Y47540025D01*
X16470700Y47540025D01*
X16470700Y47343176D01*
X16509103Y47150116D01*
X16509103Y47150114D01*
X16584430Y46968257D01*
X16664575Y46848310D01*
X17029768Y47213504D01*
X17073661Y47137479D01*
X17165879Y47045261D01*
X17241900Y47001370D01*
X16876708Y46636177D01*
X16996656Y46556031D01*
X17178514Y46480704D01*
X17371575Y46442301D01*
X17371579Y46442300D01*
X17568421Y46442300D01*
X17568424Y46442301D01*
X17761484Y46480704D01*
X17761486Y46480704D01*
X17943342Y46556031D01*
X18063290Y46636177D01*
X17698097Y47001370D01*
X17774121Y47045261D01*
X17866339Y47137479D01*
X17910230Y47213503D01*
X18275423Y46848310D01*
X18355569Y46968258D01*
X18430896Y47150114D01*
X18430896Y47150116D01*
X18469299Y47343176D01*
X18469300Y47343180D01*
X18469300Y47540021D01*
X18469299Y47540025D01*
X18430896Y47733085D01*
X18430896Y47733087D01*
X18355569Y47914944D01*
X18275423Y48034892D01*
X17910230Y47669700D01*
X17866339Y47745721D01*
X17774121Y47837939D01*
X17698096Y47881832D01*
X18063290Y48247025D01*
X17943343Y48327170D01*
X17761485Y48402497D01*
X17568424Y48440900D01*
X17371575Y48440900D01*
X17178515Y48402497D01*
X17178513Y48402497D01*
X16996656Y48327170D01*
X16876708Y48247025D01*
X17241902Y47881831D01*
X17165879Y47837939D01*
X17073661Y47745721D01*
X17029769Y47669698D01*
X16664575Y48034892D01*
X16584430Y47914944D01*
X16509103Y47733087D01*
X16509103Y47733085D01*
X16470700Y47540025D01*
X16078544Y47540025D01*
X16051489Y47710841D01*
X16051488Y47710845D01*
X15995561Y47882970D01*
X15913397Y48044226D01*
X15807018Y48190644D01*
X15679044Y48318618D01*
X15532626Y48424997D01*
X15532625Y48424998D01*
X15532623Y48424999D01*
X15371370Y48507161D01*
X15199240Y48563090D01*
X15020494Y48591400D01*
X15020491Y48591400D01*
X14839509Y48591400D01*
X14839506Y48591400D01*
X14660759Y48563090D01*
X14488629Y48507161D01*
X14327376Y48424999D01*
X14180957Y48318619D01*
X14052981Y48190643D01*
X13946601Y48044224D01*
X13864439Y47882971D01*
X13808510Y47710841D01*
X13780200Y47532095D01*
X6673946Y47532095D01*
X6532630Y47756997D01*
X6532627Y47757001D01*
X6532625Y47757004D01*
X6315515Y48029253D01*
X6315509Y48029259D01*
X6315506Y48029263D01*
X6069263Y48275506D01*
X6069258Y48275510D01*
X6069252Y48275516D01*
X5797003Y48492626D01*
X5797000Y48492628D01*
X5502130Y48677908D01*
X5502118Y48677914D01*
X5188379Y48829002D01*
X5188377Y48829003D01*
X4859684Y48944018D01*
X4520173Y49021509D01*
X4520167Y49021510D01*
X4174136Y49060500D01*
X4174120Y49060500D01*
X3825880Y49060500D01*
X3825863Y49060500D01*
X3479832Y49021510D01*
X3479826Y49021509D01*
X3140315Y48944018D01*
X2811622Y48829003D01*
X2811620Y48829002D01*
X2497881Y48677914D01*
X2497869Y48677908D01*
X2202999Y48492628D01*
X2202996Y48492626D01*
X1930747Y48275516D01*
X1684484Y48029253D01*
X1467374Y47757004D01*
X1467372Y47757001D01*
X1282092Y47462131D01*
X1282086Y47462119D01*
X1130998Y47148380D01*
X1130997Y47148378D01*
X1015982Y46819685D01*
X938491Y46480174D01*
X938490Y46480168D01*
X899500Y46134137D01*
X509055Y46134137D01*
X509429Y46141756D01*
X509429Y46141757D01*
X516800Y46291800D01*
X517113Y46298176D01*
X518063Y46307814D01*
X567029Y46637920D01*
X568918Y46647418D01*
X650009Y46971151D01*
X652818Y46980410D01*
X765249Y47294633D01*
X768958Y47303588D01*
X911644Y47605272D01*
X916211Y47613815D01*
X1087780Y47900062D01*
X1093163Y47908117D01*
X1291957Y48176159D01*
X1298107Y48183654D01*
X1522228Y48430933D01*
X1529067Y48437772D01*
X1776346Y48661893D01*
X1783841Y48668043D01*
X2051883Y48866837D01*
X2059938Y48872220D01*
X2346185Y49043789D01*
X2354728Y49048356D01*
X2656412Y49191042D01*
X2665367Y49194751D01*
X2979590Y49307182D01*
X2988849Y49309991D01*
X3312582Y49391082D01*
X3322080Y49392971D01*
X3652186Y49441937D01*
X3661824Y49442887D01*
X3970606Y49458056D01*
X3997579Y49459381D01*
X4002436Y49459500D01*
X18706062Y49459500D01*
X18764253Y49440593D01*
G37*
%TD.AperFunction*%
%TD*%
%TA.AperFunction,Conductor*%
%TO.N,ISO_GND*%
G36*
X55459191Y49440593D02*
G01*
X55495155Y49391093D01*
X55500000Y49360500D01*
X55500000Y32429000D01*
X55481093Y32370809D01*
X55431593Y32334845D01*
X55401000Y32330000D01*
X55122713Y32330000D01*
X55092120Y32334846D01*
X55068893Y32342393D01*
X55029482Y32366543D01*
X54894687Y32501338D01*
X54872180Y32536092D01*
X54561741Y33350869D01*
X54461837Y33613076D01*
X54461824Y33613109D01*
X54455581Y33628536D01*
X54455579Y33628540D01*
X54454078Y33630922D01*
X54443686Y33653102D01*
X54427418Y33703172D01*
X54344917Y33865090D01*
X54344913Y33865096D01*
X54238107Y34012101D01*
X54238105Y34012103D01*
X54238103Y34012106D01*
X54109606Y34140603D01*
X54109602Y34140606D01*
X54109600Y34140608D01*
X54109597Y34140611D01*
X53962603Y34247409D01*
X53962596Y34247414D01*
X53962591Y34247417D01*
X53962589Y34247418D01*
X53800674Y34329917D01*
X53627836Y34386076D01*
X53448367Y34414500D01*
X53448364Y34414500D01*
X53448361Y34414500D01*
X53266639Y34414500D01*
X53266636Y34414500D01*
X53266633Y34414500D01*
X53087162Y34386076D01*
X52914324Y34329917D01*
X52752402Y34247414D01*
X52752395Y34247409D01*
X52605404Y34140613D01*
X52476887Y34012096D01*
X52370091Y33865105D01*
X52370086Y33865098D01*
X52287583Y33703176D01*
X52231424Y33530338D01*
X52203000Y33350869D01*
X52203000Y33169133D01*
X52231424Y32989664D01*
X52287583Y32816826D01*
X52370086Y32654904D01*
X52370091Y32654897D01*
X52476886Y32507907D01*
X52477153Y32507595D01*
X52477163Y32507583D01*
X52479080Y32505338D01*
X52479569Y32504810D01*
X52479575Y32504803D01*
X52478938Y32504258D01*
X52492908Y32485030D01*
X52497872Y32475287D01*
X52502077Y32448731D01*
X52508357Y32422589D01*
X52506809Y32418852D01*
X52507442Y32414855D01*
X52495234Y32390899D01*
X52484949Y32366058D01*
X52481499Y32363944D01*
X52479663Y32360339D01*
X52432784Y32334082D01*
X52427189Y32332738D01*
X52404066Y32330000D01*
X44750000Y32330000D01*
X44750000Y11100000D01*
X52885320Y11100000D01*
X52915908Y11095157D01*
X52928595Y11091034D01*
X52978095Y11055073D01*
X52978096Y11055072D01*
X52981091Y11050950D01*
X53000000Y10992760D01*
X53000000Y575181D01*
X52995154Y544588D01*
X52991032Y531902D01*
X52955080Y482411D01*
X52950959Y479416D01*
X52892771Y460500D01*
X21714680Y460500D01*
X21684087Y465346D01*
X21671401Y469468D01*
X21621901Y505432D01*
X21621894Y505442D01*
X21618900Y509564D01*
X21600000Y567744D01*
X21600000Y16823922D01*
X36597500Y16823922D01*
X36597500Y16676080D01*
X36626341Y16531088D01*
X36626342Y16531086D01*
X36678626Y16404861D01*
X36682916Y16394505D01*
X36765049Y16271584D01*
X36869584Y16167049D01*
X36992505Y16084916D01*
X37129087Y16028342D01*
X37274082Y15999500D01*
X37274083Y15999500D01*
X37421917Y15999500D01*
X37421918Y15999500D01*
X37566913Y16028342D01*
X37703495Y16084916D01*
X37826416Y16167049D01*
X37826417Y16167051D01*
X37830462Y16169753D01*
X37830711Y16169381D01*
X37841430Y16176395D01*
X37849670Y16180593D01*
X37865607Y16188712D01*
X37910547Y16199500D01*
X38105915Y16199500D01*
X38136505Y16194655D01*
X38165561Y16185215D01*
X38189966Y16173378D01*
X38306861Y16095272D01*
X38443443Y16038698D01*
X38588438Y16009856D01*
X38588439Y16009856D01*
X38736273Y16009856D01*
X38736274Y16009856D01*
X38881269Y16038698D01*
X39017851Y16095272D01*
X39140772Y16177405D01*
X39245307Y16281940D01*
X39327440Y16404861D01*
X39384014Y16541443D01*
X39412856Y16686438D01*
X39412856Y16834274D01*
X39384014Y16979269D01*
X39327440Y17115851D01*
X39245307Y17238772D01*
X39140772Y17343307D01*
X39017851Y17425440D01*
X39017849Y17425441D01*
X38881270Y17482014D01*
X38881268Y17482015D01*
X38736276Y17510856D01*
X38736274Y17510856D01*
X38588438Y17510856D01*
X38588437Y17510856D01*
X38588434Y17510856D01*
X38443441Y17482014D01*
X38443439Y17482014D01*
X38306865Y17425444D01*
X38292077Y17415563D01*
X38292015Y17415521D01*
X38291364Y17415085D01*
X38183940Y17343307D01*
X38174938Y17334307D01*
X38167641Y17329244D01*
X38164171Y17328200D01*
X38156161Y17322381D01*
X38134399Y17311292D01*
X38089452Y17300500D01*
X37915554Y17300500D01*
X37884961Y17305346D01*
X37861497Y17312970D01*
X37829287Y17330594D01*
X37826418Y17332949D01*
X37826416Y17332951D01*
X37703495Y17415084D01*
X37703493Y17415085D01*
X37678494Y17425440D01*
X37566912Y17471659D01*
X37421920Y17500500D01*
X37421918Y17500500D01*
X37274082Y17500500D01*
X37274081Y17500500D01*
X37274078Y17500500D01*
X37129085Y17471658D01*
X37129083Y17471658D01*
X36992510Y17415088D01*
X36992498Y17415082D01*
X36869586Y17332953D01*
X36765047Y17228414D01*
X36682918Y17105502D01*
X36682912Y17105490D01*
X36626342Y16968917D01*
X36626342Y16968915D01*
X36597500Y16823922D01*
X21600000Y16823922D01*
X21600000Y21873426D01*
X30479500Y21873426D01*
X30479500Y21676577D01*
X30510288Y21482182D01*
X30510662Y21480827D01*
X30511302Y21479058D01*
X30571112Y21294982D01*
X30571114Y21294979D01*
X30571115Y21294976D01*
X30571116Y21294975D01*
X30660476Y21119595D01*
X30776172Y20960354D01*
X30915354Y20821172D01*
X31074595Y20705476D01*
X31249975Y20616116D01*
X31437174Y20555291D01*
X31437175Y20555291D01*
X31437178Y20555290D01*
X31561428Y20535611D01*
X31631577Y20524500D01*
X31828420Y20524500D01*
X31828423Y20524500D01*
X31905711Y20536742D01*
X32022821Y20555290D01*
X32022821Y20555291D01*
X32022823Y20555291D01*
X32022826Y20555291D01*
X32022829Y20555292D01*
X32025405Y20555700D01*
X32030212Y20557692D01*
X32210025Y20616116D01*
X32385405Y20705476D01*
X32544646Y20821172D01*
X32683828Y20960354D01*
X32799524Y21119595D01*
X32888884Y21294975D01*
X32900999Y21332265D01*
X32915064Y21359866D01*
X32919909Y21366534D01*
X32969410Y21402496D01*
X33030596Y21402493D01*
X33080092Y21366530D01*
X33084938Y21359860D01*
X33098999Y21332265D01*
X33111116Y21294974D01*
X33111117Y21294973D01*
X33200476Y21119595D01*
X33316172Y20960354D01*
X33455354Y20821172D01*
X33614595Y20705476D01*
X33789975Y20616116D01*
X33977174Y20555291D01*
X33977175Y20555291D01*
X33977178Y20555290D01*
X34101428Y20535611D01*
X34171577Y20524500D01*
X34368420Y20524500D01*
X34368423Y20524500D01*
X34445711Y20536742D01*
X34562821Y20555290D01*
X34562821Y20555291D01*
X34562823Y20555291D01*
X34562826Y20555291D01*
X34562829Y20555292D01*
X34565405Y20555700D01*
X34570212Y20557692D01*
X34750025Y20616116D01*
X34925405Y20705476D01*
X35084646Y20821172D01*
X35223828Y20960354D01*
X35339524Y21119595D01*
X35428884Y21294975D01*
X35440999Y21332265D01*
X35455064Y21359866D01*
X35459909Y21366534D01*
X35509410Y21402496D01*
X35570596Y21402493D01*
X35620092Y21366530D01*
X35624938Y21359860D01*
X35638999Y21332265D01*
X35651116Y21294974D01*
X35651117Y21294973D01*
X35740476Y21119595D01*
X35856172Y20960354D01*
X35995354Y20821172D01*
X36154595Y20705476D01*
X36329975Y20616116D01*
X36517174Y20555291D01*
X36517175Y20555291D01*
X36517178Y20555290D01*
X36641428Y20535611D01*
X36711577Y20524500D01*
X36908420Y20524500D01*
X36908423Y20524500D01*
X36985711Y20536742D01*
X37102821Y20555290D01*
X37102821Y20555291D01*
X37102823Y20555291D01*
X37102826Y20555291D01*
X37102829Y20555292D01*
X37105405Y20555700D01*
X37110212Y20557692D01*
X37290025Y20616116D01*
X37465405Y20705476D01*
X37624646Y20821172D01*
X37763828Y20960354D01*
X37879524Y21119595D01*
X37968884Y21294975D01*
X38029709Y21482174D01*
X38029710Y21482182D01*
X38060500Y21676580D01*
X38060500Y21873425D01*
X38029711Y22067816D01*
X38029710Y22067822D01*
X38029709Y22067826D01*
X37968884Y22255025D01*
X37879524Y22430405D01*
X37763828Y22589646D01*
X37624646Y22728828D01*
X37624642Y22728831D01*
X37624640Y22728833D01*
X37473864Y22838379D01*
X37473853Y22838387D01*
X37465405Y22844524D01*
X37465404Y22844525D01*
X37465402Y22844526D01*
X37290025Y22933884D01*
X37102821Y22994711D01*
X37102815Y22994713D01*
X36908424Y23025500D01*
X36908420Y23025500D01*
X36908417Y23025500D01*
X36711583Y23025500D01*
X36711580Y23025500D01*
X36711576Y23025500D01*
X36517182Y22994713D01*
X36329973Y22933884D01*
X36154597Y22844527D01*
X36154591Y22844523D01*
X35995360Y22728834D01*
X35856166Y22589640D01*
X35740477Y22430409D01*
X35740473Y22430403D01*
X35653741Y22260178D01*
X35653478Y22259905D01*
X35651112Y22255020D01*
X35639000Y22217740D01*
X35624934Y22190136D01*
X35620088Y22183467D01*
X35570585Y22147506D01*
X35509400Y22147510D01*
X35459903Y22183477D01*
X35455059Y22190145D01*
X35441000Y22217738D01*
X35440999Y22217740D01*
X35430078Y22251353D01*
X35429237Y22254337D01*
X35428450Y22255921D01*
X35427012Y22258889D01*
X35426261Y22260172D01*
X35339525Y22430403D01*
X35223832Y22589640D01*
X35223828Y22589646D01*
X35084646Y22728828D01*
X35084642Y22728831D01*
X35084640Y22728833D01*
X34933864Y22838379D01*
X34933853Y22838387D01*
X34925405Y22844524D01*
X34925404Y22844525D01*
X34925402Y22844526D01*
X34750025Y22933884D01*
X34562821Y22994711D01*
X34562815Y22994713D01*
X34368424Y23025500D01*
X34368420Y23025500D01*
X34368417Y23025500D01*
X34171583Y23025500D01*
X34171580Y23025500D01*
X34171576Y23025500D01*
X33977182Y22994713D01*
X33789973Y22933884D01*
X33614597Y22844527D01*
X33614591Y22844523D01*
X33455360Y22728834D01*
X33316166Y22589640D01*
X33200477Y22430409D01*
X33200473Y22430403D01*
X33113741Y22260178D01*
X33113478Y22259905D01*
X33111112Y22255020D01*
X33099000Y22217740D01*
X33084934Y22190136D01*
X33080088Y22183467D01*
X33030585Y22147506D01*
X32969400Y22147510D01*
X32919903Y22183477D01*
X32915059Y22190145D01*
X32901000Y22217738D01*
X32900999Y22217740D01*
X32890078Y22251353D01*
X32889237Y22254337D01*
X32888450Y22255921D01*
X32887012Y22258889D01*
X32886261Y22260172D01*
X32799525Y22430403D01*
X32683832Y22589640D01*
X32683828Y22589646D01*
X32544646Y22728828D01*
X32544642Y22728831D01*
X32544640Y22728833D01*
X32393864Y22838379D01*
X32393853Y22838387D01*
X32385405Y22844524D01*
X32385404Y22844525D01*
X32385402Y22844526D01*
X32210025Y22933884D01*
X32022821Y22994711D01*
X32022815Y22994713D01*
X31828424Y23025500D01*
X31828420Y23025500D01*
X31828417Y23025500D01*
X31631583Y23025500D01*
X31631580Y23025500D01*
X31631576Y23025500D01*
X31437182Y22994713D01*
X31249973Y22933884D01*
X31074597Y22844527D01*
X31074591Y22844523D01*
X30915360Y22728834D01*
X30776166Y22589640D01*
X30660477Y22430409D01*
X30660473Y22430403D01*
X30571116Y22255027D01*
X30510287Y22067817D01*
X30479500Y21873426D01*
X21600000Y21873426D01*
X21600000Y25730869D01*
X36963000Y25730869D01*
X36963000Y25549133D01*
X36991424Y25369664D01*
X37047583Y25196826D01*
X37130086Y25034904D01*
X37130091Y25034897D01*
X37236886Y24887907D01*
X37236890Y24887902D01*
X37236892Y24887900D01*
X37236894Y24887898D01*
X37236897Y24887894D01*
X37365394Y24759397D01*
X37365397Y24759395D01*
X37365403Y24759389D01*
X37365786Y24759075D01*
X37367000Y24758230D01*
X37512404Y24652587D01*
X37512410Y24652583D01*
X37674326Y24570083D01*
X37847154Y24513928D01*
X37847155Y24513928D01*
X37847158Y24513927D01*
X37986752Y24491818D01*
X38026634Y24485500D01*
X38208364Y24485500D01*
X38208366Y24485500D01*
X38263701Y24494265D01*
X38387841Y24513927D01*
X38387841Y24513928D01*
X38387843Y24513928D01*
X38387846Y24513928D01*
X38387849Y24513929D01*
X38390425Y24514337D01*
X38395230Y24516328D01*
X38560674Y24570083D01*
X38722590Y24652583D01*
X38869606Y24759397D01*
X38998103Y24887894D01*
X39104917Y25034910D01*
X39187417Y25196826D01*
X39243572Y25369654D01*
X39243574Y25369664D01*
X39272000Y25549136D01*
X39272000Y25730868D01*
X39243574Y25910336D01*
X39243574Y25910338D01*
X39243573Y25910342D01*
X39243572Y25910346D01*
X39187417Y26083174D01*
X39104917Y26245090D01*
X39104913Y26245096D01*
X38998107Y26392101D01*
X38998105Y26392103D01*
X38998103Y26392106D01*
X38869606Y26520603D01*
X38869602Y26520606D01*
X38869600Y26520608D01*
X38869597Y26520611D01*
X38722603Y26627409D01*
X38722596Y26627414D01*
X38722591Y26627417D01*
X38722589Y26627418D01*
X38560674Y26709917D01*
X38387836Y26766076D01*
X38208367Y26794500D01*
X38208364Y26794500D01*
X38208361Y26794500D01*
X38026639Y26794500D01*
X38026636Y26794500D01*
X38026633Y26794500D01*
X37847162Y26766076D01*
X37674324Y26709917D01*
X37512402Y26627414D01*
X37512395Y26627409D01*
X37365404Y26520613D01*
X37236887Y26392096D01*
X37130091Y26245105D01*
X37130086Y26245098D01*
X37047583Y26083176D01*
X36991424Y25910338D01*
X36963000Y25730869D01*
X21600000Y25730869D01*
X21600000Y28270869D01*
X36963000Y28270869D01*
X36963000Y28089133D01*
X36991424Y27909664D01*
X37047583Y27736826D01*
X37130086Y27574904D01*
X37130091Y27574897D01*
X37236886Y27427907D01*
X37236890Y27427902D01*
X37236892Y27427900D01*
X37236894Y27427898D01*
X37236897Y27427894D01*
X37365394Y27299397D01*
X37365397Y27299395D01*
X37365403Y27299389D01*
X37365779Y27299080D01*
X37366978Y27298246D01*
X37426824Y27254765D01*
X37512411Y27192582D01*
X37674326Y27110083D01*
X37847154Y27053928D01*
X37847155Y27053928D01*
X37847158Y27053927D01*
X37986752Y27031818D01*
X38026634Y27025500D01*
X38208364Y27025500D01*
X38208366Y27025500D01*
X38263701Y27034265D01*
X38387841Y27053927D01*
X38387841Y27053928D01*
X38387843Y27053928D01*
X38387846Y27053928D01*
X38387849Y27053929D01*
X38390425Y27054337D01*
X38395230Y27056328D01*
X38560674Y27110083D01*
X38722590Y27192583D01*
X38869606Y27299397D01*
X38998103Y27427894D01*
X39104917Y27574910D01*
X39187417Y27736826D01*
X39243572Y27909654D01*
X39243574Y27909664D01*
X39272000Y28089136D01*
X39272000Y28270868D01*
X39243574Y28450336D01*
X39243574Y28450338D01*
X39243573Y28450342D01*
X39243572Y28450346D01*
X39187417Y28623174D01*
X39104917Y28785090D01*
X39104913Y28785096D01*
X38998107Y28932101D01*
X38998105Y28932103D01*
X38998103Y28932106D01*
X38869606Y29060603D01*
X38869602Y29060606D01*
X38869600Y29060608D01*
X38869597Y29060611D01*
X38722603Y29167409D01*
X38722596Y29167414D01*
X38722591Y29167417D01*
X38722589Y29167418D01*
X38560674Y29249917D01*
X38387836Y29306076D01*
X38208367Y29334500D01*
X38208364Y29334500D01*
X38208361Y29334500D01*
X38026639Y29334500D01*
X38026636Y29334500D01*
X38026633Y29334500D01*
X37847162Y29306076D01*
X37674324Y29249917D01*
X37512402Y29167414D01*
X37512395Y29167409D01*
X37365404Y29060613D01*
X37236887Y28932096D01*
X37130091Y28785105D01*
X37130086Y28785098D01*
X37047583Y28623176D01*
X36991424Y28450338D01*
X36963000Y28270869D01*
X21600000Y28270869D01*
X21600000Y30810869D01*
X36963000Y30810869D01*
X36963000Y30629133D01*
X36991424Y30449664D01*
X37047583Y30276826D01*
X37130086Y30114904D01*
X37130091Y30114897D01*
X37236886Y29967907D01*
X37236890Y29967902D01*
X37236892Y29967900D01*
X37236894Y29967898D01*
X37236897Y29967894D01*
X37365394Y29839397D01*
X37365397Y29839395D01*
X37365403Y29839389D01*
X37365786Y29839075D01*
X37367000Y29838230D01*
X37512404Y29732587D01*
X37512410Y29732583D01*
X37674326Y29650083D01*
X37847154Y29593928D01*
X37847155Y29593928D01*
X37847158Y29593927D01*
X37986752Y29571818D01*
X38026634Y29565500D01*
X38208364Y29565500D01*
X38208366Y29565500D01*
X38263701Y29574265D01*
X38387841Y29593927D01*
X38387841Y29593928D01*
X38387843Y29593928D01*
X38387846Y29593928D01*
X38387849Y29593929D01*
X38390425Y29594337D01*
X38395230Y29596328D01*
X38560674Y29650083D01*
X38722590Y29732583D01*
X38869606Y29839397D01*
X38998103Y29967894D01*
X39104917Y30114910D01*
X39187417Y30276826D01*
X39243572Y30449654D01*
X39243574Y30449664D01*
X39272000Y30629136D01*
X39272000Y30810868D01*
X39243574Y30990336D01*
X39243574Y30990338D01*
X39243573Y30990342D01*
X39243572Y30990346D01*
X39187417Y31163174D01*
X39104917Y31325090D01*
X39104913Y31325096D01*
X38998107Y31472101D01*
X38998105Y31472103D01*
X38998103Y31472106D01*
X38869606Y31600603D01*
X38869602Y31600606D01*
X38869600Y31600608D01*
X38869597Y31600611D01*
X38722603Y31707409D01*
X38722596Y31707414D01*
X38722591Y31707417D01*
X38722589Y31707418D01*
X38560674Y31789917D01*
X38387836Y31846076D01*
X38208367Y31874500D01*
X38208364Y31874500D01*
X38208361Y31874500D01*
X38026639Y31874500D01*
X38026636Y31874500D01*
X38026633Y31874500D01*
X37847162Y31846076D01*
X37674324Y31789917D01*
X37512402Y31707414D01*
X37512395Y31707409D01*
X37365404Y31600613D01*
X37236887Y31472096D01*
X37130091Y31325105D01*
X37130086Y31325098D01*
X37047583Y31163176D01*
X36991424Y30990338D01*
X36963000Y30810869D01*
X21600000Y30810869D01*
X21600000Y33350869D01*
X36963000Y33350869D01*
X36963000Y33169133D01*
X36991424Y32989664D01*
X37047583Y32816826D01*
X37130086Y32654904D01*
X37130091Y32654897D01*
X37236886Y32507907D01*
X37236890Y32507902D01*
X37236892Y32507900D01*
X37236894Y32507898D01*
X37236897Y32507894D01*
X37365394Y32379397D01*
X37365397Y32379395D01*
X37365403Y32379389D01*
X37365786Y32379075D01*
X37367000Y32378230D01*
X37512404Y32272587D01*
X37512410Y32272583D01*
X37674326Y32190083D01*
X37847154Y32133928D01*
X37847155Y32133928D01*
X37847158Y32133927D01*
X37986752Y32111818D01*
X38026634Y32105500D01*
X38208364Y32105500D01*
X38208366Y32105500D01*
X38263701Y32114265D01*
X38387841Y32133927D01*
X38387841Y32133928D01*
X38387843Y32133928D01*
X38387846Y32133928D01*
X38387849Y32133929D01*
X38390425Y32134337D01*
X38395230Y32136328D01*
X38560674Y32190083D01*
X38722590Y32272583D01*
X38869606Y32379397D01*
X38998103Y32507894D01*
X39104917Y32654910D01*
X39187417Y32816826D01*
X39243572Y32989654D01*
X39243574Y32989664D01*
X39272000Y33169136D01*
X39272000Y33350868D01*
X39243574Y33530336D01*
X39243574Y33530338D01*
X39243573Y33530342D01*
X39243572Y33530346D01*
X39187417Y33703174D01*
X39104917Y33865090D01*
X39104913Y33865096D01*
X38998107Y34012101D01*
X38998105Y34012103D01*
X38998103Y34012106D01*
X38869606Y34140603D01*
X38869602Y34140606D01*
X38869600Y34140608D01*
X38869597Y34140611D01*
X38722603Y34247409D01*
X38722596Y34247414D01*
X38722591Y34247417D01*
X38722589Y34247418D01*
X38560674Y34329917D01*
X38387836Y34386076D01*
X38208367Y34414500D01*
X38208364Y34414500D01*
X38208361Y34414500D01*
X38026639Y34414500D01*
X38026636Y34414500D01*
X38026633Y34414500D01*
X37847162Y34386076D01*
X37674324Y34329917D01*
X37512402Y34247414D01*
X37512395Y34247409D01*
X37365404Y34140613D01*
X37236887Y34012096D01*
X37130091Y33865105D01*
X37130086Y33865098D01*
X37047583Y33703176D01*
X36991424Y33530338D01*
X36963000Y33350869D01*
X21600000Y33350869D01*
X21600000Y35890869D01*
X36963000Y35890869D01*
X36963000Y35709133D01*
X36991424Y35529664D01*
X37047583Y35356826D01*
X37130086Y35194904D01*
X37130091Y35194897D01*
X37236886Y35047907D01*
X37236890Y35047902D01*
X37236892Y35047900D01*
X37236894Y35047898D01*
X37236897Y35047894D01*
X37365394Y34919397D01*
X37365397Y34919395D01*
X37365403Y34919389D01*
X37365786Y34919075D01*
X37367000Y34918230D01*
X37512404Y34812587D01*
X37512410Y34812583D01*
X37674326Y34730083D01*
X37847154Y34673928D01*
X37847155Y34673928D01*
X37847158Y34673927D01*
X37986752Y34651818D01*
X38026634Y34645500D01*
X38208364Y34645500D01*
X38208366Y34645500D01*
X38263701Y34654265D01*
X38387841Y34673927D01*
X38387841Y34673928D01*
X38387843Y34673928D01*
X38387846Y34673928D01*
X38387849Y34673929D01*
X38390425Y34674337D01*
X38395230Y34676328D01*
X38560674Y34730083D01*
X38722590Y34812583D01*
X38869606Y34919397D01*
X38998103Y35047894D01*
X39104917Y35194910D01*
X39187417Y35356826D01*
X39243572Y35529654D01*
X39243574Y35529664D01*
X39272000Y35709136D01*
X39272000Y35890868D01*
X39272000Y35890869D01*
X52203000Y35890869D01*
X52203000Y35709133D01*
X52231424Y35529664D01*
X52287583Y35356826D01*
X52370086Y35194904D01*
X52370091Y35194897D01*
X52476886Y35047907D01*
X52476890Y35047902D01*
X52476892Y35047900D01*
X52476894Y35047898D01*
X52476897Y35047894D01*
X52605394Y34919397D01*
X52605397Y34919395D01*
X52605403Y34919389D01*
X52605786Y34919075D01*
X52607000Y34918230D01*
X52752404Y34812587D01*
X52752410Y34812583D01*
X52914326Y34730083D01*
X53087154Y34673928D01*
X53087155Y34673928D01*
X53087158Y34673927D01*
X53226752Y34651818D01*
X53266634Y34645500D01*
X53448364Y34645500D01*
X53448366Y34645500D01*
X53503701Y34654265D01*
X53627841Y34673927D01*
X53627841Y34673928D01*
X53627843Y34673928D01*
X53627846Y34673928D01*
X53627849Y34673929D01*
X53630425Y34674337D01*
X53635230Y34676328D01*
X53800674Y34730083D01*
X53962590Y34812583D01*
X54109606Y34919397D01*
X54238103Y35047894D01*
X54344917Y35194910D01*
X54427417Y35356826D01*
X54483572Y35529654D01*
X54483574Y35529664D01*
X54512000Y35709136D01*
X54512000Y35890868D01*
X54483574Y36070336D01*
X54483574Y36070338D01*
X54483573Y36070342D01*
X54483572Y36070346D01*
X54427417Y36243174D01*
X54344917Y36405090D01*
X54344913Y36405096D01*
X54238107Y36552101D01*
X54238105Y36552103D01*
X54238103Y36552106D01*
X54109606Y36680603D01*
X54109602Y36680606D01*
X54109600Y36680608D01*
X54109597Y36680611D01*
X53962603Y36787409D01*
X53962596Y36787414D01*
X53962591Y36787417D01*
X53962589Y36787418D01*
X53800674Y36869917D01*
X53627836Y36926076D01*
X53448367Y36954500D01*
X53448364Y36954500D01*
X53448361Y36954500D01*
X53266639Y36954500D01*
X53266636Y36954500D01*
X53266633Y36954500D01*
X53087162Y36926076D01*
X52914324Y36869917D01*
X52752402Y36787414D01*
X52752395Y36787409D01*
X52605404Y36680613D01*
X52476887Y36552096D01*
X52370091Y36405105D01*
X52370086Y36405098D01*
X52287583Y36243176D01*
X52231424Y36070338D01*
X52203000Y35890869D01*
X39272000Y35890869D01*
X39243574Y36070336D01*
X39243574Y36070338D01*
X39243573Y36070342D01*
X39243572Y36070346D01*
X39187417Y36243174D01*
X39104917Y36405090D01*
X39104913Y36405096D01*
X38998107Y36552101D01*
X38998105Y36552103D01*
X38998103Y36552106D01*
X38869606Y36680603D01*
X38869602Y36680606D01*
X38869600Y36680608D01*
X38869597Y36680611D01*
X38722603Y36787409D01*
X38722596Y36787414D01*
X38722591Y36787417D01*
X38722589Y36787418D01*
X38560674Y36869917D01*
X38387836Y36926076D01*
X38208367Y36954500D01*
X38208364Y36954500D01*
X38208361Y36954500D01*
X38026639Y36954500D01*
X38026636Y36954500D01*
X38026633Y36954500D01*
X37847162Y36926076D01*
X37674324Y36869917D01*
X37512402Y36787414D01*
X37512395Y36787409D01*
X37365404Y36680613D01*
X37236887Y36552096D01*
X37130091Y36405105D01*
X37130086Y36405098D01*
X37047583Y36243176D01*
X36991424Y36070338D01*
X36963000Y35890869D01*
X21600000Y35890869D01*
X21600000Y38430869D01*
X36963000Y38430869D01*
X36963000Y38249133D01*
X36991424Y38069664D01*
X37047583Y37896826D01*
X37130086Y37734904D01*
X37130091Y37734897D01*
X37236886Y37587907D01*
X37236890Y37587902D01*
X37236892Y37587900D01*
X37236894Y37587898D01*
X37236897Y37587894D01*
X37365394Y37459397D01*
X37365397Y37459395D01*
X37365403Y37459389D01*
X37365786Y37459075D01*
X37367000Y37458230D01*
X37512404Y37352587D01*
X37512410Y37352583D01*
X37674326Y37270083D01*
X37847154Y37213928D01*
X37847155Y37213928D01*
X37847158Y37213927D01*
X37986752Y37191818D01*
X38026634Y37185500D01*
X38208364Y37185500D01*
X38208366Y37185500D01*
X38263701Y37194265D01*
X38387841Y37213927D01*
X38387841Y37213928D01*
X38387843Y37213928D01*
X38387846Y37213928D01*
X38387849Y37213929D01*
X38390425Y37214337D01*
X38395230Y37216328D01*
X38560674Y37270083D01*
X38722590Y37352583D01*
X38869606Y37459397D01*
X38998103Y37587894D01*
X39104917Y37734910D01*
X39187417Y37896826D01*
X39243572Y38069654D01*
X39243574Y38069664D01*
X39272000Y38249136D01*
X39272000Y38430868D01*
X39272000Y38430869D01*
X52203000Y38430869D01*
X52203000Y38249133D01*
X52231424Y38069664D01*
X52287583Y37896826D01*
X52370086Y37734904D01*
X52370091Y37734897D01*
X52476886Y37587907D01*
X52476890Y37587902D01*
X52476892Y37587900D01*
X52476894Y37587898D01*
X52476897Y37587894D01*
X52605394Y37459397D01*
X52605397Y37459395D01*
X52605403Y37459389D01*
X52605786Y37459075D01*
X52607000Y37458230D01*
X52752404Y37352587D01*
X52752410Y37352583D01*
X52914326Y37270083D01*
X53087154Y37213928D01*
X53087155Y37213928D01*
X53087158Y37213927D01*
X53226752Y37191818D01*
X53266634Y37185500D01*
X53448364Y37185500D01*
X53448366Y37185500D01*
X53503701Y37194265D01*
X53627841Y37213927D01*
X53627841Y37213928D01*
X53627843Y37213928D01*
X53627846Y37213928D01*
X53627849Y37213929D01*
X53630425Y37214337D01*
X53635230Y37216328D01*
X53800674Y37270083D01*
X53962590Y37352583D01*
X54109606Y37459397D01*
X54238103Y37587894D01*
X54344917Y37734910D01*
X54427417Y37896826D01*
X54483572Y38069654D01*
X54483574Y38069664D01*
X54512000Y38249136D01*
X54512000Y38430868D01*
X54483574Y38610336D01*
X54483574Y38610338D01*
X54483573Y38610342D01*
X54483572Y38610346D01*
X54427417Y38783174D01*
X54344917Y38945090D01*
X54344913Y38945096D01*
X54238107Y39092101D01*
X54238105Y39092103D01*
X54238103Y39092106D01*
X54109606Y39220603D01*
X54109602Y39220606D01*
X54109600Y39220608D01*
X54109597Y39220611D01*
X53962603Y39327409D01*
X53962596Y39327414D01*
X53962591Y39327417D01*
X53962589Y39327418D01*
X53800674Y39409917D01*
X53627836Y39466076D01*
X53448367Y39494500D01*
X53448364Y39494500D01*
X53448361Y39494500D01*
X53266639Y39494500D01*
X53266636Y39494500D01*
X53266633Y39494500D01*
X53087162Y39466076D01*
X52914324Y39409917D01*
X52752402Y39327414D01*
X52752395Y39327409D01*
X52605404Y39220613D01*
X52476887Y39092096D01*
X52370091Y38945105D01*
X52370086Y38945098D01*
X52287583Y38783176D01*
X52231424Y38610338D01*
X52203000Y38430869D01*
X39272000Y38430869D01*
X39243574Y38610336D01*
X39243574Y38610338D01*
X39243573Y38610342D01*
X39243572Y38610346D01*
X39187417Y38783174D01*
X39104917Y38945090D01*
X39104913Y38945096D01*
X38998107Y39092101D01*
X38998105Y39092103D01*
X38998103Y39092106D01*
X38869606Y39220603D01*
X38869602Y39220606D01*
X38869600Y39220608D01*
X38869597Y39220611D01*
X38722603Y39327409D01*
X38722596Y39327414D01*
X38722591Y39327417D01*
X38722589Y39327418D01*
X38560674Y39409917D01*
X38387836Y39466076D01*
X38208367Y39494500D01*
X38208364Y39494500D01*
X38208361Y39494500D01*
X38026639Y39494500D01*
X38026636Y39494500D01*
X38026633Y39494500D01*
X37847162Y39466076D01*
X37674324Y39409917D01*
X37512402Y39327414D01*
X37512395Y39327409D01*
X37365404Y39220613D01*
X37236887Y39092096D01*
X37130091Y38945105D01*
X37130086Y38945098D01*
X37047583Y38783176D01*
X36991424Y38610338D01*
X36963000Y38430869D01*
X21600000Y38430869D01*
X21600000Y40970869D01*
X36963000Y40970869D01*
X36963000Y40789133D01*
X36991424Y40609664D01*
X37047583Y40436826D01*
X37130086Y40274904D01*
X37130091Y40274897D01*
X37236886Y40127907D01*
X37236890Y40127902D01*
X37236892Y40127900D01*
X37236894Y40127898D01*
X37236897Y40127894D01*
X37365394Y39999397D01*
X37365397Y39999395D01*
X37365403Y39999389D01*
X37365786Y39999075D01*
X37367000Y39998230D01*
X37512404Y39892587D01*
X37512410Y39892583D01*
X37674326Y39810083D01*
X37847154Y39753928D01*
X37847155Y39753928D01*
X37847158Y39753927D01*
X37986752Y39731818D01*
X38026634Y39725500D01*
X38208364Y39725500D01*
X38208366Y39725500D01*
X38263701Y39734265D01*
X38387841Y39753927D01*
X38387841Y39753928D01*
X38387843Y39753928D01*
X38387846Y39753928D01*
X38387849Y39753929D01*
X38390425Y39754337D01*
X38395230Y39756328D01*
X38560674Y39810083D01*
X38722590Y39892583D01*
X38869606Y39999397D01*
X38998103Y40127894D01*
X39104917Y40274910D01*
X39187417Y40436826D01*
X39243572Y40609654D01*
X39243574Y40609664D01*
X39272000Y40789136D01*
X39272000Y40970868D01*
X39272000Y40970869D01*
X52203000Y40970869D01*
X52203000Y40789133D01*
X52231424Y40609664D01*
X52287583Y40436826D01*
X52370086Y40274904D01*
X52370091Y40274897D01*
X52476886Y40127907D01*
X52476890Y40127902D01*
X52476892Y40127900D01*
X52476894Y40127898D01*
X52476897Y40127894D01*
X52605394Y39999397D01*
X52605397Y39999395D01*
X52605403Y39999389D01*
X52605786Y39999075D01*
X52607000Y39998230D01*
X52752404Y39892587D01*
X52752410Y39892583D01*
X52914326Y39810083D01*
X53087154Y39753928D01*
X53087155Y39753928D01*
X53087158Y39753927D01*
X53226752Y39731818D01*
X53266634Y39725500D01*
X53448364Y39725500D01*
X53448366Y39725500D01*
X53503701Y39734265D01*
X53627841Y39753927D01*
X53627841Y39753928D01*
X53627843Y39753928D01*
X53627846Y39753928D01*
X53627849Y39753929D01*
X53630425Y39754337D01*
X53635230Y39756328D01*
X53800674Y39810083D01*
X53962590Y39892583D01*
X54109606Y39999397D01*
X54238103Y40127894D01*
X54344917Y40274910D01*
X54427417Y40436826D01*
X54483572Y40609654D01*
X54483574Y40609664D01*
X54512000Y40789136D01*
X54512000Y40970868D01*
X54483574Y41150336D01*
X54483574Y41150338D01*
X54483573Y41150342D01*
X54483572Y41150346D01*
X54427417Y41323174D01*
X54344917Y41485090D01*
X54344913Y41485096D01*
X54238107Y41632101D01*
X54238105Y41632103D01*
X54238103Y41632106D01*
X54109606Y41760603D01*
X54109602Y41760606D01*
X54109600Y41760608D01*
X54109597Y41760611D01*
X53962603Y41867409D01*
X53962596Y41867414D01*
X53962591Y41867417D01*
X53962589Y41867418D01*
X53800674Y41949917D01*
X53627836Y42006076D01*
X53448367Y42034500D01*
X53448364Y42034500D01*
X53448361Y42034500D01*
X53266639Y42034500D01*
X53266636Y42034500D01*
X53266633Y42034500D01*
X53087162Y42006076D01*
X52914324Y41949917D01*
X52752402Y41867414D01*
X52752395Y41867409D01*
X52605404Y41760613D01*
X52476887Y41632096D01*
X52370091Y41485105D01*
X52370086Y41485098D01*
X52287583Y41323176D01*
X52231424Y41150338D01*
X52203000Y40970869D01*
X39272000Y40970869D01*
X39243574Y41150336D01*
X39243574Y41150338D01*
X39243573Y41150342D01*
X39243572Y41150346D01*
X39187417Y41323174D01*
X39104917Y41485090D01*
X39104913Y41485096D01*
X38998107Y41632101D01*
X38998105Y41632103D01*
X38998103Y41632106D01*
X38869606Y41760603D01*
X38869602Y41760606D01*
X38869600Y41760608D01*
X38869597Y41760611D01*
X38722603Y41867409D01*
X38722596Y41867414D01*
X38722591Y41867417D01*
X38722589Y41867418D01*
X38560674Y41949917D01*
X38387836Y42006076D01*
X38208367Y42034500D01*
X38208364Y42034500D01*
X38208361Y42034500D01*
X38026639Y42034500D01*
X38026636Y42034500D01*
X38026633Y42034500D01*
X37847162Y42006076D01*
X37674324Y41949917D01*
X37512402Y41867414D01*
X37512395Y41867409D01*
X37365404Y41760613D01*
X37236887Y41632096D01*
X37130091Y41485105D01*
X37130086Y41485098D01*
X37047583Y41323176D01*
X36991424Y41150338D01*
X36963000Y40970869D01*
X21600000Y40970869D01*
X21600000Y43518891D01*
X37113500Y43518891D01*
X37113500Y43321111D01*
X37152081Y43127148D01*
X37154745Y43120717D01*
X37227766Y42944430D01*
X37227770Y42944421D01*
X37227771Y42944419D01*
X37308687Y42823322D01*
X37587875Y43102512D01*
X37601845Y43109630D01*
X37612934Y43120718D01*
X37628422Y43123171D01*
X37642392Y43130289D01*
X37657879Y43127837D01*
X37673366Y43130289D01*
X37687336Y43123171D01*
X37702824Y43120718D01*
X37727879Y43102515D01*
X37800010Y43030384D01*
X37827786Y42975869D01*
X37818215Y42915437D01*
X37800009Y42890379D01*
X37520819Y42611190D01*
X37520820Y42611190D01*
X37520820Y42611189D01*
X37641929Y42530267D01*
X37824645Y42454583D01*
X38016284Y42416464D01*
X38018026Y42416074D01*
X38018610Y42416002D01*
X38018612Y42416001D01*
X38018616Y42416000D01*
X38018621Y42416000D01*
X38216384Y42416000D01*
X38216386Y42416000D01*
X38220298Y42416636D01*
X38222468Y42417211D01*
X38410354Y42454583D01*
X38593071Y42530267D01*
X38714178Y42611189D01*
X38434987Y42890380D01*
X38427870Y42904349D01*
X38416783Y42915436D01*
X38414330Y42930924D01*
X38407212Y42944894D01*
X38409664Y42960381D01*
X38407212Y42975868D01*
X38414330Y42989839D01*
X38416783Y43005326D01*
X38434983Y43030378D01*
X38507119Y43102514D01*
X38561632Y43130288D01*
X38622064Y43120717D01*
X38647119Y43102514D01*
X38926311Y42823322D01*
X39007233Y42944429D01*
X39082917Y43127146D01*
X39121036Y43318786D01*
X39121426Y43320527D01*
X39121499Y43321113D01*
X39121500Y43321117D01*
X39121500Y43510869D01*
X52203000Y43510869D01*
X52203000Y43329133D01*
X52231424Y43149664D01*
X52273587Y43019901D01*
X52287583Y42976826D01*
X52365796Y42823322D01*
X52370086Y42814904D01*
X52370091Y42814897D01*
X52476886Y42667907D01*
X52476890Y42667902D01*
X52476892Y42667900D01*
X52476894Y42667898D01*
X52476897Y42667894D01*
X52605394Y42539397D01*
X52605397Y42539395D01*
X52605403Y42539389D01*
X52605786Y42539075D01*
X52607000Y42538230D01*
X52752404Y42432587D01*
X52752410Y42432583D01*
X52914326Y42350083D01*
X53087154Y42293928D01*
X53087155Y42293928D01*
X53087158Y42293927D01*
X53226752Y42271818D01*
X53266634Y42265500D01*
X53448364Y42265500D01*
X53448366Y42265500D01*
X53503701Y42274265D01*
X53627841Y42293927D01*
X53627841Y42293928D01*
X53627843Y42293928D01*
X53627846Y42293928D01*
X53627849Y42293929D01*
X53630425Y42294337D01*
X53635230Y42296328D01*
X53800674Y42350083D01*
X53962590Y42432583D01*
X54109606Y42539397D01*
X54238103Y42667894D01*
X54344917Y42814910D01*
X54427417Y42976826D01*
X54483572Y43149654D01*
X54483573Y43149659D01*
X54510357Y43318763D01*
X54512000Y43329134D01*
X54512000Y43510868D01*
X54483574Y43690338D01*
X54483573Y43690342D01*
X54471660Y43727007D01*
X54427417Y43863174D01*
X54344917Y44025090D01*
X54344913Y44025096D01*
X54238107Y44172101D01*
X54238105Y44172103D01*
X54238103Y44172106D01*
X54109606Y44300603D01*
X54109602Y44300606D01*
X54109600Y44300608D01*
X54109597Y44300611D01*
X53962603Y44407409D01*
X53962596Y44407414D01*
X53962591Y44407417D01*
X53962589Y44407418D01*
X53800674Y44489917D01*
X53627836Y44546076D01*
X53448367Y44574500D01*
X53448364Y44574500D01*
X53448361Y44574500D01*
X53266639Y44574500D01*
X53266636Y44574500D01*
X53266633Y44574500D01*
X53087162Y44546076D01*
X52914324Y44489917D01*
X52752402Y44407414D01*
X52752395Y44407409D01*
X52605404Y44300613D01*
X52476887Y44172096D01*
X52370091Y44025105D01*
X52370086Y44025098D01*
X52287583Y43863176D01*
X52231424Y43690338D01*
X52203000Y43510869D01*
X39121500Y43510869D01*
X39121500Y43518884D01*
X39121499Y43518888D01*
X39082917Y43712855D01*
X39007233Y43895571D01*
X38926311Y44016680D01*
X38926310Y44016681D01*
X38647121Y43737491D01*
X38633151Y43730374D01*
X38622063Y43719285D01*
X38606575Y43716833D01*
X38592605Y43709714D01*
X38577118Y43712167D01*
X38561631Y43709714D01*
X38547660Y43716833D01*
X38532173Y43719285D01*
X38507117Y43737489D01*
X38434986Y43809620D01*
X38407211Y43864134D01*
X38416782Y43924566D01*
X38434989Y43949625D01*
X38714178Y44228813D01*
X38593081Y44309729D01*
X38593079Y44309730D01*
X38593070Y44309734D01*
X38410354Y44385418D01*
X38410352Y44385419D01*
X38216389Y44424000D01*
X38216387Y44424000D01*
X38018612Y44424000D01*
X38018609Y44424000D01*
X37824645Y44385418D01*
X37824643Y44385418D01*
X37641930Y44309736D01*
X37520819Y44228813D01*
X37800009Y43949623D01*
X37807126Y43935654D01*
X37818215Y43924565D01*
X37820667Y43909078D01*
X37827786Y43895107D01*
X37825333Y43879620D01*
X37827786Y43864133D01*
X37820667Y43850163D01*
X37818215Y43834675D01*
X37800010Y43809617D01*
X37727884Y43737491D01*
X37673367Y43709714D01*
X37612935Y43719285D01*
X37587877Y43737491D01*
X37308686Y44016681D01*
X37227764Y43895570D01*
X37152082Y43712857D01*
X37152082Y43712855D01*
X37113500Y43518891D01*
X21600000Y43518891D01*
X21600000Y46737639D01*
X21604843Y46768225D01*
X21608965Y46780914D01*
X21644923Y46830413D01*
X21647091Y46831988D01*
X21694603Y46850314D01*
X21698538Y46850741D01*
X21718887Y46850839D01*
X21744574Y46848309D01*
X22023698Y47127435D01*
X22037668Y47134553D01*
X22048757Y47145641D01*
X22064245Y47148094D01*
X22078215Y47155212D01*
X22093702Y47152760D01*
X22109189Y47155212D01*
X22123159Y47148094D01*
X22138647Y47145641D01*
X22163702Y47127438D01*
X22235833Y47055307D01*
X22263609Y47000792D01*
X22254038Y46940360D01*
X22235832Y46915302D01*
X21956707Y46636178D01*
X21956708Y46636178D01*
X21956708Y46636177D01*
X22076656Y46556031D01*
X22258514Y46480704D01*
X22449237Y46442766D01*
X22450985Y46442374D01*
X22451573Y46442302D01*
X22451575Y46442301D01*
X22451579Y46442300D01*
X22451584Y46442300D01*
X22648421Y46442300D01*
X22648423Y46442300D01*
X22652335Y46442936D01*
X22654505Y46443511D01*
X22833965Y46479209D01*
X22841485Y46480704D01*
X22841486Y46480704D01*
X23023342Y46556031D01*
X23143290Y46636177D01*
X22864164Y46915303D01*
X22857047Y46929272D01*
X22845960Y46940359D01*
X22843507Y46955847D01*
X22836389Y46969817D01*
X22838841Y46985304D01*
X22836389Y47000791D01*
X22843507Y47014762D01*
X22845960Y47030249D01*
X22864160Y47055301D01*
X22936296Y47127437D01*
X22990809Y47155211D01*
X23051241Y47145640D01*
X23076296Y47127437D01*
X23355423Y46848310D01*
X23435569Y46968258D01*
X23510896Y47150114D01*
X23510896Y47150116D01*
X23511422Y47152760D01*
X23512798Y47159675D01*
X23512798Y47159678D01*
X23523505Y47213504D01*
X23548835Y47340848D01*
X23549226Y47342591D01*
X23549299Y47343176D01*
X23549300Y47343180D01*
X23549300Y47532099D01*
X26480200Y47532099D01*
X26480200Y47351103D01*
X26508508Y47172365D01*
X26546543Y47055308D01*
X26564439Y47000230D01*
X26646433Y46839305D01*
X26646485Y46839204D01*
X26646600Y46838978D01*
X26652818Y46830420D01*
X26752982Y46692556D01*
X26880956Y46564582D01*
X27027374Y46458203D01*
X27188630Y46376039D01*
X27360755Y46320112D01*
X27360756Y46320112D01*
X27360759Y46320111D01*
X27432257Y46308787D01*
X27539503Y46291800D01*
X27720494Y46291800D01*
X27720497Y46291800D01*
X27792071Y46303137D01*
X27899240Y46320111D01*
X27899240Y46320112D01*
X27899242Y46320112D01*
X27899245Y46320112D01*
X27899248Y46320113D01*
X27901824Y46320521D01*
X27906631Y46322513D01*
X28071370Y46376039D01*
X28232626Y46458203D01*
X28379044Y46564582D01*
X28507018Y46692556D01*
X28545502Y46745524D01*
X36963000Y46745524D01*
X36963000Y45173763D01*
X36963581Y45170810D01*
X36977852Y45080702D01*
X36977862Y45080678D01*
X37032941Y44972582D01*
X37035450Y44967658D01*
X37125158Y44877950D01*
X37238196Y44820354D01*
X37331981Y44805500D01*
X38903018Y44805501D01*
X38903021Y44805501D01*
X38903022Y44805502D01*
X38949911Y44812928D01*
X38996799Y44820353D01*
X38996799Y44820354D01*
X39000637Y44820961D01*
X39000642Y44820962D01*
X39004564Y44821584D01*
X39014338Y44829289D01*
X39109842Y44877950D01*
X39199550Y44967658D01*
X39257146Y45080696D01*
X39272000Y45174481D01*
X39271999Y46050869D01*
X52203000Y46050869D01*
X52203000Y45869133D01*
X52231424Y45689664D01*
X52287583Y45516826D01*
X52370086Y45354904D01*
X52370091Y45354897D01*
X52476886Y45207907D01*
X52476890Y45207902D01*
X52476892Y45207900D01*
X52476894Y45207898D01*
X52476897Y45207894D01*
X52605394Y45079397D01*
X52605397Y45079395D01*
X52605403Y45079389D01*
X52605786Y45079075D01*
X52607000Y45078230D01*
X52752404Y44972587D01*
X52752410Y44972583D01*
X52914326Y44890083D01*
X53087154Y44833928D01*
X53087155Y44833928D01*
X53087158Y44833927D01*
X53226752Y44811818D01*
X53266634Y44805500D01*
X53448364Y44805500D01*
X53448366Y44805500D01*
X53503701Y44814265D01*
X53627841Y44833927D01*
X53627841Y44833928D01*
X53627843Y44833928D01*
X53627846Y44833928D01*
X53627849Y44833929D01*
X53630425Y44834337D01*
X53635230Y44836328D01*
X53800674Y44890083D01*
X53962590Y44972583D01*
X54109606Y45079397D01*
X54238103Y45207894D01*
X54344917Y45354910D01*
X54427417Y45516826D01*
X54483572Y45689654D01*
X54483574Y45689664D01*
X54512000Y45869136D01*
X54512000Y46050868D01*
X54494943Y46158552D01*
X54483573Y46230342D01*
X54463604Y46291800D01*
X54454405Y46320111D01*
X54445510Y46347487D01*
X54427417Y46403174D01*
X54344917Y46565090D01*
X54344913Y46565096D01*
X54238107Y46712101D01*
X54238105Y46712103D01*
X54238103Y46712106D01*
X54109606Y46840603D01*
X54109602Y46840606D01*
X54109600Y46840608D01*
X54109598Y46840610D01*
X53962603Y46947409D01*
X53962596Y46947414D01*
X53962591Y46947417D01*
X53962589Y46947418D01*
X53800674Y47029917D01*
X53763333Y47042050D01*
X53627836Y47086076D01*
X53448367Y47114500D01*
X53448364Y47114500D01*
X53448361Y47114500D01*
X53266639Y47114500D01*
X53266636Y47114500D01*
X53266633Y47114500D01*
X53087162Y47086076D01*
X52914324Y47029917D01*
X52752402Y46947414D01*
X52752395Y46947409D01*
X52605404Y46840613D01*
X52476887Y46712096D01*
X52370091Y46565105D01*
X52370086Y46565098D01*
X52287583Y46403176D01*
X52231424Y46230338D01*
X52203000Y46050869D01*
X39271999Y46050869D01*
X39271999Y46745518D01*
X39271999Y46745519D01*
X39271999Y46745522D01*
X39271999Y46746236D01*
X39271417Y46749193D01*
X39258365Y46831611D01*
X39258059Y46835495D01*
X39258056Y46835508D01*
X39257400Y46838805D01*
X39256482Y46840606D01*
X39199550Y46952342D01*
X39109842Y47042050D01*
X39055743Y47069615D01*
X39031152Y47094207D01*
X38903024Y47114500D01*
X38903021Y47114500D01*
X37331978Y47114500D01*
X37331259Y47114500D01*
X37328308Y47113919D01*
X37238200Y47099648D01*
X37238176Y47099638D01*
X37125161Y47042053D01*
X37035448Y46952340D01*
X36977854Y46839307D01*
X36963000Y46745524D01*
X28545502Y46745524D01*
X28613397Y46838974D01*
X28695561Y47000230D01*
X28751488Y47172355D01*
X28758006Y47213503D01*
X28778544Y47343176D01*
X28779800Y47351106D01*
X28779800Y47532095D01*
X28779800Y47532099D01*
X28751490Y47710835D01*
X28751489Y47710841D01*
X28745120Y47730444D01*
X28695561Y47882970D01*
X28613397Y48044226D01*
X28507018Y48190644D01*
X28379044Y48318618D01*
X28379040Y48318621D01*
X28379038Y48318623D01*
X28241077Y48418859D01*
X28241051Y48418876D01*
X28232626Y48424997D01*
X28232625Y48424998D01*
X28232623Y48424999D01*
X28227802Y48427456D01*
X28227798Y48427458D01*
X28071370Y48507161D01*
X27899235Y48563092D01*
X27720497Y48591400D01*
X27720494Y48591400D01*
X27720491Y48591400D01*
X27539509Y48591400D01*
X27539506Y48591400D01*
X27539503Y48591400D01*
X27360763Y48563092D01*
X27188628Y48507161D01*
X27027378Y48425001D01*
X26880958Y48318620D01*
X26752980Y48190642D01*
X26646599Y48044222D01*
X26564439Y47882972D01*
X26508508Y47710837D01*
X26480200Y47532099D01*
X23549300Y47532099D01*
X23549300Y47540021D01*
X23549299Y47540025D01*
X23510896Y47733085D01*
X23510896Y47733087D01*
X23510895Y47733089D01*
X23510895Y47733091D01*
X23435569Y47914944D01*
X23409520Y47953930D01*
X23355423Y48034892D01*
X23355422Y48034893D01*
X23076298Y47755768D01*
X23062328Y47748651D01*
X23051240Y47737562D01*
X23035752Y47735110D01*
X23021782Y47727991D01*
X23006295Y47730444D01*
X22990808Y47727991D01*
X22976837Y47735110D01*
X22961350Y47737562D01*
X22936294Y47755766D01*
X22864163Y47827897D01*
X22836388Y47882411D01*
X22845959Y47942843D01*
X22864166Y47967902D01*
X22960647Y48064383D01*
X23143290Y48247025D01*
X23023343Y48327170D01*
X23023342Y48327171D01*
X23023340Y48327172D01*
X22841486Y48402497D01*
X22841485Y48402497D01*
X22777131Y48415298D01*
X22648426Y48440900D01*
X22648424Y48440900D01*
X22451575Y48440900D01*
X22451574Y48440900D01*
X22383999Y48427458D01*
X22268077Y48404399D01*
X22268070Y48404399D01*
X22258513Y48402498D01*
X22076656Y48327171D01*
X22004752Y48279127D01*
X21956708Y48247025D01*
X22235834Y47967899D01*
X22242951Y47953930D01*
X22254039Y47942842D01*
X22256491Y47927355D01*
X22263610Y47913384D01*
X22261157Y47897897D01*
X22263610Y47882410D01*
X22256491Y47868440D01*
X22254039Y47852952D01*
X22235834Y47827894D01*
X22163707Y47755767D01*
X22109190Y47727990D01*
X22048758Y47737561D01*
X22023702Y47755765D01*
X21744574Y48034893D01*
X21744573Y48034893D01*
X21724307Y48032897D01*
X21696350Y48034119D01*
X21694820Y48034406D01*
X21688795Y48035728D01*
X21687774Y48035728D01*
X21682593Y48036700D01*
X21658943Y48049608D01*
X21634360Y48060651D01*
X21634332Y48060677D01*
X21633632Y48061312D01*
X21631873Y48064383D01*
X21628886Y48066013D01*
X21618989Y48086881D01*
X21603244Y48114374D01*
X21602096Y48119864D01*
X21600000Y48140127D01*
X21600000Y49344820D01*
X21604843Y49375406D01*
X21608965Y49388095D01*
X21644923Y49437594D01*
X21645522Y49438029D01*
X21649063Y49440600D01*
X21707243Y49459500D01*
X55401000Y49459500D01*
X55459191Y49440593D01*
G37*
%TD.AperFunction*%
%TD*%
%TA.AperFunction,Conductor*%
%TO.N,/PSU_IN+*%
G36*
X72165396Y28505417D02*
G01*
X72178085Y28501294D01*
X72227584Y28465332D01*
X72230579Y28461210D01*
X72249488Y28403020D01*
X72249488Y19814681D01*
X72244642Y19784088D01*
X72240520Y19771402D01*
X72204568Y19721911D01*
X72200447Y19718916D01*
X72142259Y19700000D01*
X55625375Y19700000D01*
X55594782Y19704846D01*
X55582096Y19708968D01*
X55532596Y19744932D01*
X55532589Y19744942D01*
X55529595Y19749064D01*
X55510695Y19807244D01*
X55510695Y28395580D01*
X55515538Y28426166D01*
X55519660Y28438855D01*
X55555618Y28488354D01*
X55556217Y28488789D01*
X55559758Y28491360D01*
X55617938Y28510260D01*
X72134808Y28510260D01*
X72165396Y28505417D01*
G37*
%TD.AperFunction*%
%TD*%
%TA.AperFunction,Conductor*%
%TO.N,ISO_GND*%
G36*
X62165908Y40445157D02*
G01*
X62178597Y40441034D01*
X62214557Y40414909D01*
X62222426Y40409191D01*
X62228096Y40405072D01*
X62231091Y40400950D01*
X62250000Y40342760D01*
X62250000Y32444681D01*
X62245154Y32414088D01*
X62241032Y32401402D01*
X62205080Y32351911D01*
X62200959Y32348916D01*
X62142771Y32330000D01*
X55599000Y32330000D01*
X55540809Y32348907D01*
X55504845Y32398407D01*
X55500000Y32429000D01*
X55500000Y40351000D01*
X55518907Y40409191D01*
X55568407Y40445155D01*
X55599000Y40450000D01*
X62135320Y40450000D01*
X62165908Y40445157D01*
G37*
%TD.AperFunction*%
%TD*%
%TA.AperFunction,Conductor*%
%TO.N,ISO_GND*%
G36*
X72138158Y49440593D02*
G01*
X72174122Y49391093D01*
X72178967Y49360500D01*
X72178967Y40564645D01*
X72160060Y40506454D01*
X72110560Y40470490D01*
X72079967Y40465645D01*
X55500000Y40465645D01*
X55500000Y49459500D01*
X72079967Y49459500D01*
X72138158Y49440593D01*
G37*
%TD.AperFunction*%
%TD*%
%TA.AperFunction,Conductor*%
%TO.N,/DUT_OUT+*%
G36*
X72165908Y15195157D02*
G01*
X72178597Y15191034D01*
X72228096Y15155072D01*
X72231091Y15150950D01*
X72250000Y15092760D01*
X72250000Y6614681D01*
X72245154Y6584088D01*
X72241032Y6571402D01*
X72205080Y6521911D01*
X72200959Y6518916D01*
X72142771Y6500000D01*
X55614680Y6500000D01*
X55584087Y6504846D01*
X55571401Y6508968D01*
X55521901Y6544932D01*
X55521894Y6544942D01*
X55518900Y6549064D01*
X55500000Y6607244D01*
X55500000Y15085320D01*
X55504843Y15115906D01*
X55508965Y15128595D01*
X55544923Y15178094D01*
X55545522Y15178529D01*
X55549063Y15181100D01*
X55607243Y15200000D01*
X72135320Y15200000D01*
X72165908Y15195157D01*
G37*
%TD.AperFunction*%
%TD*%
%TA.AperFunction,Conductor*%
%TO.N,/MCU_GP10*%
G36*
X54077535Y33474856D02*
G01*
X54082897Y33468733D01*
X54163493Y33257203D01*
X54436469Y32540751D01*
X54524618Y32309398D01*
X54524362Y32300447D01*
X54521958Y32296959D01*
X54320541Y32095542D01*
X54312268Y32092115D01*
X54308103Y32092882D01*
X53619168Y32355375D01*
X53148767Y32534603D01*
X53142256Y32540751D01*
X53141719Y32548870D01*
X53352420Y33257206D01*
X53358062Y33264156D01*
X53360287Y33265078D01*
X54068630Y33475781D01*
X54077535Y33474856D01*
G37*
%TD.AperFunction*%
%TD*%
%TA.AperFunction,Conductor*%
%TO.N,/MCU_GP10*%
G36*
X76788103Y29678417D02*
G01*
X77961037Y29233047D01*
X77967555Y29226907D01*
X77968098Y29218773D01*
X77755107Y28502771D01*
X77749464Y28495818D01*
X77747229Y28494893D01*
X77031227Y28281902D01*
X77022320Y28282827D01*
X77016953Y28288963D01*
X76571584Y29461896D01*
X76571851Y29470847D01*
X76574246Y29474319D01*
X76775679Y29675752D01*
X76783951Y29679178D01*
X76788103Y29678417D01*
G37*
%TD.AperFunction*%
%TD*%
M02*
